G04 PROTEUS GERBER X2 FILE*
%TF.GenerationSoftware,Labcenter,Proteus,8.17-SP2-Build37159*%
%TF.CreationDate,2025-02-23T13:52:33+00:00*%
%TF.FileFunction,Legend,Top*%
%TF.FilePolarity,Positive*%
%TF.Part,Single*%
%TF.SameCoordinates,{f5fd30df-bfb1-41d0-8757-df29ac62e929}*%
%FSLAX45Y45*%
%MOMM*%
G01*
%TA.AperFunction,Profile*%
%ADD73C,0.101600*%
%TA.AperFunction,Material*%
%ADD34C,0.101600*%
%ADD35C,0.120000*%
%ADD36C,0.200000*%
%ADD37C,0.100000*%
%ADD38C,0.508000*%
%ADD39C,0.152400*%
%TA.AperFunction,NonMaterial*%
%ADD40C,0.101600*%
%TD.AperFunction*%
D73*
X+0Y+635000D02*
X+14900000Y+635000D01*
X+14900000Y+8835000D01*
X+0Y+635000D02*
X+0Y+8835000D01*
X+14900000Y+8835000D01*
D34*
X+13346000Y+8543000D02*
X+13346000Y+7527000D01*
X+14362000Y+8543000D02*
X+14362000Y+7527000D01*
X+13346000Y+7527000D02*
X+14362000Y+7527000D01*
X+13346000Y+8543000D02*
X+14362000Y+8543000D01*
X+13747320Y+8598880D02*
X+13747320Y+8586180D01*
X+13760655Y+8573480D01*
X+13813995Y+8573480D01*
X+13827330Y+8586180D01*
X+13827330Y+8649680D01*
X+13880670Y+8624280D02*
X+13907340Y+8649680D01*
X+13907340Y+8573480D01*
X+11904000Y+5827000D02*
X+11904000Y+5065000D01*
X+11777000Y+4938000D01*
X+11523000Y+4938000D01*
X+11396000Y+5065000D01*
X+11396000Y+5827000D01*
X+11523000Y+5954000D01*
X+11777000Y+5954000D01*
X+11904000Y+5827000D01*
X+11934480Y+5339320D02*
X+12010680Y+5419330D01*
X+12010680Y+5339320D02*
X+11934480Y+5419330D01*
X+11959880Y+5472670D02*
X+11934480Y+5499340D01*
X+12010680Y+5499340D01*
X+13965380Y+6148920D02*
X+14232080Y+6148920D01*
X+14232080Y+6667080D01*
X+13965380Y+6667080D01*
X+13965380Y+6148920D01*
X+13967920Y+6230200D02*
X+14229540Y+6230200D01*
X+14100000Y+6077800D02*
X+14100000Y+6148920D01*
X+14100000Y+6667080D02*
X+14100000Y+6738200D01*
X+13934900Y+6301320D02*
X+13858700Y+6301320D01*
X+13858700Y+6354660D01*
X+13884100Y+6381330D01*
X+13909500Y+6381330D01*
X+13934900Y+6354660D01*
X+13934900Y+6301320D01*
X+13884100Y+6434670D02*
X+13858700Y+6461340D01*
X+13934900Y+6461340D01*
D35*
X+13700000Y+6500000D02*
X+13699340Y+6516239D01*
X+13693975Y+6548719D01*
X+13682775Y+6581199D01*
X+13664551Y+6613679D01*
X+13636684Y+6646005D01*
X+13604204Y+6670709D01*
X+13571724Y+6686697D01*
X+13539244Y+6696112D01*
X+13506764Y+6699886D01*
X+13500000Y+6700000D01*
X+13300000Y+6500000D02*
X+13300660Y+6516239D01*
X+13306025Y+6548719D01*
X+13317225Y+6581199D01*
X+13335449Y+6613679D01*
X+13363316Y+6646005D01*
X+13395796Y+6670709D01*
X+13428276Y+6686697D01*
X+13460756Y+6696112D01*
X+13493236Y+6699886D01*
X+13500000Y+6700000D01*
X+13300000Y+6500000D02*
X+13300660Y+6483761D01*
X+13306025Y+6451281D01*
X+13317225Y+6418801D01*
X+13335449Y+6386321D01*
X+13363316Y+6353995D01*
X+13395796Y+6329291D01*
X+13428276Y+6313303D01*
X+13460756Y+6303888D01*
X+13493236Y+6300114D01*
X+13500000Y+6300000D01*
X+13700000Y+6500000D02*
X+13699340Y+6483761D01*
X+13693975Y+6451281D01*
X+13682775Y+6418801D01*
X+13664551Y+6386321D01*
X+13636684Y+6353995D01*
X+13604204Y+6329291D01*
X+13571724Y+6313303D01*
X+13539244Y+6303888D01*
X+13506764Y+6300114D01*
X+13500000Y+6300000D01*
D36*
X+13674000Y+6336000D02*
X+13673965Y+6336831D01*
X+13673684Y+6338495D01*
X+13673094Y+6340159D01*
X+13672130Y+6341823D01*
X+13670655Y+6343464D01*
X+13668991Y+6344665D01*
X+13667327Y+6345430D01*
X+13665663Y+6345861D01*
X+13664000Y+6346000D01*
X+13654000Y+6336000D02*
X+13654035Y+6336831D01*
X+13654316Y+6338495D01*
X+13654906Y+6340159D01*
X+13655870Y+6341823D01*
X+13657345Y+6343464D01*
X+13659009Y+6344665D01*
X+13660673Y+6345430D01*
X+13662337Y+6345861D01*
X+13664000Y+6346000D01*
X+13654000Y+6336000D02*
X+13654035Y+6335169D01*
X+13654316Y+6333505D01*
X+13654906Y+6331841D01*
X+13655870Y+6330177D01*
X+13657345Y+6328536D01*
X+13659009Y+6327335D01*
X+13660673Y+6326570D01*
X+13662337Y+6326139D01*
X+13664000Y+6326000D01*
X+13674000Y+6336000D02*
X+13673965Y+6335169D01*
X+13673684Y+6333505D01*
X+13673094Y+6331841D01*
X+13672130Y+6330177D01*
X+13670655Y+6328536D01*
X+13668991Y+6327335D01*
X+13667327Y+6326570D01*
X+13665663Y+6326139D01*
X+13664000Y+6326000D01*
D34*
X+13473330Y+6205100D02*
X+13459995Y+6192400D01*
X+13419990Y+6192400D01*
X+13393320Y+6217800D01*
X+13393320Y+6243200D01*
X+13419990Y+6268600D01*
X+13459995Y+6268600D01*
X+13473330Y+6255900D01*
X+13513335Y+6255900D02*
X+13526670Y+6268600D01*
X+13566675Y+6268600D01*
X+13580010Y+6255900D01*
X+13580010Y+6243200D01*
X+13566675Y+6230500D01*
X+13526670Y+6230500D01*
X+13513335Y+6217800D01*
X+13513335Y+6192400D01*
X+13580010Y+6192400D01*
D35*
X+13700000Y+6000000D02*
X+13699340Y+6016239D01*
X+13693975Y+6048719D01*
X+13682775Y+6081199D01*
X+13664551Y+6113679D01*
X+13636684Y+6146005D01*
X+13604204Y+6170709D01*
X+13571724Y+6186697D01*
X+13539244Y+6196112D01*
X+13506764Y+6199886D01*
X+13500000Y+6200000D01*
X+13300000Y+6000000D02*
X+13300660Y+6016239D01*
X+13306025Y+6048719D01*
X+13317225Y+6081199D01*
X+13335449Y+6113679D01*
X+13363316Y+6146005D01*
X+13395796Y+6170709D01*
X+13428276Y+6186697D01*
X+13460756Y+6196112D01*
X+13493236Y+6199886D01*
X+13500000Y+6200000D01*
X+13300000Y+6000000D02*
X+13300660Y+5983761D01*
X+13306025Y+5951281D01*
X+13317225Y+5918801D01*
X+13335449Y+5886321D01*
X+13363316Y+5853995D01*
X+13395796Y+5829291D01*
X+13428276Y+5813303D01*
X+13460756Y+5803888D01*
X+13493236Y+5800114D01*
X+13500000Y+5800000D01*
X+13700000Y+6000000D02*
X+13699340Y+5983761D01*
X+13693975Y+5951281D01*
X+13682775Y+5918801D01*
X+13664551Y+5886321D01*
X+13636684Y+5853995D01*
X+13604204Y+5829291D01*
X+13571724Y+5813303D01*
X+13539244Y+5803888D01*
X+13506764Y+5800114D01*
X+13500000Y+5800000D01*
D36*
X+13674000Y+5836000D02*
X+13673965Y+5836831D01*
X+13673684Y+5838495D01*
X+13673094Y+5840159D01*
X+13672130Y+5841823D01*
X+13670655Y+5843464D01*
X+13668991Y+5844665D01*
X+13667327Y+5845430D01*
X+13665663Y+5845861D01*
X+13664000Y+5846000D01*
X+13654000Y+5836000D02*
X+13654035Y+5836831D01*
X+13654316Y+5838495D01*
X+13654906Y+5840159D01*
X+13655870Y+5841823D01*
X+13657345Y+5843464D01*
X+13659009Y+5844665D01*
X+13660673Y+5845430D01*
X+13662337Y+5845861D01*
X+13664000Y+5846000D01*
X+13654000Y+5836000D02*
X+13654035Y+5835169D01*
X+13654316Y+5833505D01*
X+13654906Y+5831841D01*
X+13655870Y+5830177D01*
X+13657345Y+5828536D01*
X+13659009Y+5827335D01*
X+13660673Y+5826570D01*
X+13662337Y+5826139D01*
X+13664000Y+5826000D01*
X+13674000Y+5836000D02*
X+13673965Y+5835169D01*
X+13673684Y+5833505D01*
X+13673094Y+5831841D01*
X+13672130Y+5830177D01*
X+13670655Y+5828536D01*
X+13668991Y+5827335D01*
X+13667327Y+5826570D01*
X+13665663Y+5826139D01*
X+13664000Y+5826000D01*
D34*
X+13473330Y+5705100D02*
X+13459995Y+5692400D01*
X+13419990Y+5692400D01*
X+13393320Y+5717800D01*
X+13393320Y+5743200D01*
X+13419990Y+5768600D01*
X+13459995Y+5768600D01*
X+13473330Y+5755900D01*
X+13513335Y+5755900D02*
X+13526670Y+5768600D01*
X+13566675Y+5768600D01*
X+13580010Y+5755900D01*
X+13580010Y+5743200D01*
X+13566675Y+5730500D01*
X+13580010Y+5717800D01*
X+13580010Y+5705100D01*
X+13566675Y+5692400D01*
X+13526670Y+5692400D01*
X+13513335Y+5705100D01*
X+13540005Y+5730500D02*
X+13566675Y+5730500D01*
X+13219000Y+5073000D02*
X+13981000Y+5073000D01*
X+13981000Y+5327000D01*
X+13219000Y+5327000D01*
X+13219000Y+5073000D01*
X+13219000Y+5327000D02*
X+13219000Y+5454000D01*
X+13981000Y+5454000D01*
X+13981000Y+5327000D01*
X+13219000Y+5327000D02*
X+13346000Y+5454000D01*
X+13346000Y+5327000D02*
X+13473000Y+5454000D01*
X+13473000Y+5327000D02*
X+13600000Y+5454000D01*
X+13600000Y+5327000D02*
X+13727000Y+5454000D01*
X+13727000Y+5327000D02*
X+13854000Y+5454000D01*
X+13854000Y+5327000D02*
X+13981000Y+5454000D01*
X+13493320Y+5560680D02*
X+13493320Y+5497180D01*
X+13506655Y+5484480D01*
X+13559995Y+5484480D01*
X+13573330Y+5497180D01*
X+13573330Y+5560680D01*
X+13680010Y+5509880D02*
X+13600000Y+5509880D01*
X+13653340Y+5560680D01*
X+13653340Y+5484480D01*
X+11023000Y+4373000D02*
X+10896000Y+4373000D01*
X+10769000Y+4500000D02*
X+10743124Y+4497564D01*
X+10719152Y+4490515D01*
X+10697562Y+4479238D01*
X+10678830Y+4464122D01*
X+10663431Y+4445554D01*
X+10651842Y+4423919D01*
X+10644540Y+4399606D01*
X+10642000Y+4373000D01*
X+10769000Y+4500000D02*
X+10795606Y+4497564D01*
X+10819919Y+4490515D01*
X+10841554Y+4479238D01*
X+10860122Y+4464122D01*
X+10875238Y+4445554D01*
X+10886515Y+4423919D01*
X+10893564Y+4399606D01*
X+10896000Y+4373000D01*
X+10642000Y+4373000D02*
X+10515000Y+4373000D01*
X+11023000Y+6913000D02*
X+10515000Y+6913000D01*
X+11023000Y+4373000D02*
X+11023000Y+6913000D01*
X+10515000Y+4373000D02*
X+10515000Y+6913000D01*
X+10680328Y+4642520D02*
X+10680328Y+4579020D01*
X+10693663Y+4566320D01*
X+10747003Y+4566320D01*
X+10760338Y+4579020D01*
X+10760338Y+4642520D01*
X+10800343Y+4629820D02*
X+10813678Y+4642520D01*
X+10853683Y+4642520D01*
X+10867018Y+4629820D01*
X+10867018Y+4617120D01*
X+10853683Y+4604420D01*
X+10813678Y+4604420D01*
X+10800343Y+4591720D01*
X+10800343Y+4566320D01*
X+10867018Y+4566320D01*
X+13500000Y+4650000D02*
X+13500000Y+4400000D01*
X+14300000Y+4400000D01*
X+14300000Y+4700000D01*
X+13500000Y+4700000D01*
X+13500000Y+4650000D01*
X+14131330Y+4847180D02*
X+14117995Y+4834480D01*
X+14077990Y+4834480D01*
X+14051320Y+4859880D01*
X+14051320Y+4885280D01*
X+14077990Y+4910680D01*
X+14117995Y+4910680D01*
X+14131330Y+4897980D01*
X+14238010Y+4859880D02*
X+14158000Y+4859880D01*
X+14211340Y+4910680D01*
X+14211340Y+4834480D01*
X+6327000Y+5427000D02*
X+6454000Y+5427000D01*
X+6581000Y+5300000D02*
X+6606876Y+5302436D01*
X+6630848Y+5309485D01*
X+6652438Y+5320762D01*
X+6671170Y+5335878D01*
X+6686569Y+5354446D01*
X+6698158Y+5376081D01*
X+6705460Y+5400394D01*
X+6708000Y+5427000D01*
X+6581000Y+5300000D02*
X+6554394Y+5302436D01*
X+6530081Y+5309485D01*
X+6508446Y+5320762D01*
X+6489878Y+5335878D01*
X+6474762Y+5354446D01*
X+6463485Y+5376081D01*
X+6456436Y+5400394D01*
X+6454000Y+5427000D01*
X+6708000Y+5427000D02*
X+6835000Y+5427000D01*
X+6327000Y+3395000D02*
X+6835000Y+3395000D01*
X+6327000Y+5427000D02*
X+6327000Y+3395000D01*
X+6835000Y+3395000D02*
X+6835000Y+5427000D01*
X+6474320Y+5533680D02*
X+6474320Y+5470180D01*
X+6487655Y+5457480D01*
X+6540995Y+5457480D01*
X+6554330Y+5470180D01*
X+6554330Y+5533680D01*
X+6607670Y+5508280D02*
X+6634340Y+5533680D01*
X+6634340Y+5457480D01*
X+6327000Y+7727000D02*
X+6454000Y+7727000D01*
X+6581000Y+7600000D02*
X+6606876Y+7602436D01*
X+6630848Y+7609485D01*
X+6652438Y+7620762D01*
X+6671170Y+7635878D01*
X+6686569Y+7654446D01*
X+6698158Y+7676081D01*
X+6705460Y+7700394D01*
X+6708000Y+7727000D01*
X+6581000Y+7600000D02*
X+6554394Y+7602436D01*
X+6530081Y+7609485D01*
X+6508446Y+7620762D01*
X+6489878Y+7635878D01*
X+6474762Y+7654446D01*
X+6463485Y+7676081D01*
X+6456436Y+7700394D01*
X+6454000Y+7727000D01*
X+6708000Y+7727000D02*
X+6835000Y+7727000D01*
X+6327000Y+5695000D02*
X+6835000Y+5695000D01*
X+6327000Y+7727000D02*
X+6327000Y+5695000D01*
X+6835000Y+5695000D02*
X+6835000Y+7727000D01*
X+6474320Y+7833680D02*
X+6474320Y+7770180D01*
X+6487655Y+7757480D01*
X+6540995Y+7757480D01*
X+6554330Y+7770180D01*
X+6554330Y+7833680D01*
X+6594335Y+7820980D02*
X+6607670Y+7833680D01*
X+6647675Y+7833680D01*
X+6661010Y+7820980D01*
X+6661010Y+7808280D01*
X+6647675Y+7795580D01*
X+6661010Y+7782880D01*
X+6661010Y+7770180D01*
X+6647675Y+7757480D01*
X+6607670Y+7757480D01*
X+6594335Y+7770180D01*
X+6621005Y+7795580D02*
X+6647675Y+7795580D01*
X+12873000Y+3308000D02*
X+12873000Y+3435000D01*
X+13889000Y+3435000D01*
X+13889000Y+2927000D01*
X+12873000Y+2927000D01*
X+12873000Y+3054000D01*
X+13000000Y+3181000D02*
X+12997564Y+3206876D01*
X+12990515Y+3230848D01*
X+12979238Y+3252438D01*
X+12964122Y+3271170D01*
X+12945554Y+3286569D01*
X+12923919Y+3298158D01*
X+12899606Y+3305460D01*
X+12873000Y+3308000D01*
X+13000000Y+3181000D02*
X+12997564Y+3154394D01*
X+12990515Y+3130081D01*
X+12979238Y+3108446D01*
X+12964122Y+3089878D01*
X+12945554Y+3074762D01*
X+12923919Y+3063485D01*
X+12899606Y+3056436D01*
X+12873000Y+3054000D01*
X+12766320Y+3074320D02*
X+12829820Y+3074320D01*
X+12842520Y+3087655D01*
X+12842520Y+3140995D01*
X+12829820Y+3154330D01*
X+12766320Y+3154330D01*
X+12766320Y+3261010D02*
X+12766320Y+3194335D01*
X+12791720Y+3194335D01*
X+12791720Y+3247675D01*
X+12804420Y+3261010D01*
X+12829820Y+3261010D01*
X+12842520Y+3247675D01*
X+12842520Y+3207670D01*
X+12829820Y+3194335D01*
X+11250000Y+3300000D02*
X+11250000Y+3050000D01*
X+12050000Y+3050000D01*
X+12050000Y+3350000D01*
X+11250000Y+3350000D01*
X+11250000Y+3300000D01*
X+11881330Y+3497180D02*
X+11867995Y+3484480D01*
X+11827990Y+3484480D01*
X+11801320Y+3509880D01*
X+11801320Y+3535280D01*
X+11827990Y+3560680D01*
X+11867995Y+3560680D01*
X+11881330Y+3547980D01*
X+11988010Y+3560680D02*
X+11921335Y+3560680D01*
X+11921335Y+3535280D01*
X+11974675Y+3535280D01*
X+11988010Y+3522580D01*
X+11988010Y+3497180D01*
X+11974675Y+3484480D01*
X+11934670Y+3484480D01*
X+11921335Y+3497180D01*
X+11019000Y+2273000D02*
X+11781000Y+2273000D01*
X+11781000Y+2527000D01*
X+11019000Y+2527000D01*
X+11019000Y+2273000D01*
X+11019000Y+2527000D02*
X+11019000Y+2654000D01*
X+11781000Y+2654000D01*
X+11781000Y+2527000D01*
X+11019000Y+2527000D02*
X+11146000Y+2654000D01*
X+11146000Y+2527000D02*
X+11273000Y+2654000D01*
X+11273000Y+2527000D02*
X+11400000Y+2654000D01*
X+11400000Y+2527000D02*
X+11527000Y+2654000D01*
X+11527000Y+2527000D02*
X+11654000Y+2654000D01*
X+11654000Y+2527000D02*
X+11781000Y+2654000D01*
X+11293320Y+2735280D02*
X+11319990Y+2760680D01*
X+11346660Y+2760680D01*
X+11373330Y+2735280D01*
X+11373330Y+2709880D01*
X+11346660Y+2684480D01*
X+11319990Y+2684480D01*
X+11293320Y+2709880D01*
X+11293320Y+2735280D01*
X+11346660Y+2709880D02*
X+11373330Y+2684480D01*
X+11426670Y+2735280D02*
X+11453340Y+2760680D01*
X+11453340Y+2684480D01*
X+10027000Y+3500000D02*
X+10154000Y+3500000D01*
X+10154000Y+3436500D02*
X+10662000Y+3436500D01*
X+10662000Y+3563500D01*
X+10154000Y+3563500D01*
X+10154000Y+3436500D01*
X+10662000Y+3500000D02*
X+10789000Y+3500000D01*
X+10301320Y+3593980D02*
X+10301320Y+3670180D01*
X+10367995Y+3670180D01*
X+10381330Y+3657480D01*
X+10381330Y+3644780D01*
X+10367995Y+3632080D01*
X+10301320Y+3632080D01*
X+10367995Y+3632080D02*
X+10381330Y+3619380D01*
X+10381330Y+3593980D01*
X+10421335Y+3657480D02*
X+10434670Y+3670180D01*
X+10474675Y+3670180D01*
X+10488010Y+3657480D01*
X+10488010Y+3644780D01*
X+10474675Y+3632080D01*
X+10434670Y+3632080D01*
X+10421335Y+3619380D01*
X+10421335Y+3593980D01*
X+10488010Y+3593980D01*
X+12873000Y+1946000D02*
X+14143000Y+1946000D01*
X+14143000Y+2454000D01*
X+12873000Y+2454000D01*
X+12873000Y+1946000D01*
X+13481330Y+2497180D02*
X+13467995Y+2484480D01*
X+13427990Y+2484480D01*
X+13401320Y+2509880D01*
X+13401320Y+2535280D01*
X+13427990Y+2560680D01*
X+13467995Y+2560680D01*
X+13481330Y+2547980D01*
X+13588010Y+2547980D02*
X+13574675Y+2560680D01*
X+13534670Y+2560680D01*
X+13521335Y+2547980D01*
X+13521335Y+2497180D01*
X+13534670Y+2484480D01*
X+13574675Y+2484480D01*
X+13588010Y+2497180D01*
X+13588010Y+2509880D01*
X+13574675Y+2522580D01*
X+13521335Y+2522580D01*
X+12565380Y+1437932D02*
X+12832080Y+1437932D01*
X+12832080Y+1956092D01*
X+12565380Y+1956092D01*
X+12565380Y+1437932D01*
X+12567920Y+1519212D02*
X+12829540Y+1519212D01*
X+12700000Y+1366812D02*
X+12700000Y+1437932D01*
X+12700000Y+1956092D02*
X+12700000Y+2027212D01*
X+12534900Y+1590332D02*
X+12458700Y+1590332D01*
X+12458700Y+1643672D01*
X+12484100Y+1670342D01*
X+12509500Y+1670342D01*
X+12534900Y+1643672D01*
X+12534900Y+1590332D01*
X+12471400Y+1710347D02*
X+12458700Y+1723682D01*
X+12458700Y+1763687D01*
X+12471400Y+1777022D01*
X+12484100Y+1777022D01*
X+12496800Y+1763687D01*
X+12496800Y+1723682D01*
X+12509500Y+1710347D01*
X+12534900Y+1710347D01*
X+12534900Y+1777022D01*
X+11054000Y+1454000D02*
X+11181000Y+1454000D01*
X+11181000Y+1390500D02*
X+11689000Y+1390500D01*
X+11689000Y+1517500D01*
X+11181000Y+1517500D01*
X+11181000Y+1390500D01*
X+11689000Y+1454000D02*
X+11816000Y+1454000D01*
X+11328320Y+1547980D02*
X+11328320Y+1624180D01*
X+11394995Y+1624180D01*
X+11408330Y+1611480D01*
X+11408330Y+1598780D01*
X+11394995Y+1586080D01*
X+11328320Y+1586080D01*
X+11394995Y+1586080D02*
X+11408330Y+1573380D01*
X+11408330Y+1547980D01*
X+11515010Y+1624180D02*
X+11448335Y+1624180D01*
X+11448335Y+1598780D01*
X+11501675Y+1598780D01*
X+11515010Y+1586080D01*
X+11515010Y+1560680D01*
X+11501675Y+1547980D01*
X+11461670Y+1547980D01*
X+11448335Y+1560680D01*
X+10750000Y+1081000D02*
X+10750000Y+831000D01*
X+11550000Y+831000D01*
X+11550000Y+1131000D01*
X+10750000Y+1131000D01*
X+10750000Y+1081000D01*
X+11381330Y+1278180D02*
X+11367995Y+1265480D01*
X+11327990Y+1265480D01*
X+11301320Y+1290880D01*
X+11301320Y+1316280D01*
X+11327990Y+1341680D01*
X+11367995Y+1341680D01*
X+11381330Y+1328980D01*
X+11488010Y+1316280D02*
X+11474675Y+1303580D01*
X+11434670Y+1303580D01*
X+11421335Y+1316280D01*
X+11421335Y+1328980D01*
X+11434670Y+1341680D01*
X+11474675Y+1341680D01*
X+11488010Y+1328980D01*
X+11488010Y+1278180D01*
X+11474675Y+1265480D01*
X+11434670Y+1265480D01*
X+12354000Y+981000D02*
X+12481000Y+981000D01*
X+12481000Y+917500D02*
X+12989000Y+917500D01*
X+12989000Y+1044500D01*
X+12481000Y+1044500D01*
X+12481000Y+917500D01*
X+12989000Y+981000D02*
X+13116000Y+981000D01*
X+12628320Y+820980D02*
X+12628320Y+897180D01*
X+12694995Y+897180D01*
X+12708330Y+884480D01*
X+12708330Y+871780D01*
X+12694995Y+859080D01*
X+12628320Y+859080D01*
X+12694995Y+859080D02*
X+12708330Y+846380D01*
X+12708330Y+820980D01*
X+12815010Y+884480D02*
X+12801675Y+897180D01*
X+12761670Y+897180D01*
X+12748335Y+884480D01*
X+12748335Y+833680D01*
X+12761670Y+820980D01*
X+12801675Y+820980D01*
X+12815010Y+833680D01*
X+12815010Y+846380D01*
X+12801675Y+859080D01*
X+12748335Y+859080D01*
X+10404000Y+2123100D02*
X+9896000Y+2123100D01*
X+10480200Y+1958000D02*
X+10475438Y+1996298D01*
X+10461150Y+2035788D01*
X+10437338Y+2077658D01*
X+10404000Y+2123100D01*
X+10480200Y+1958000D02*
X+10477569Y+1893082D01*
X+10461088Y+1833047D01*
X+10432161Y+1779058D01*
X+10392193Y+1732278D01*
X+10342588Y+1693869D01*
X+10284751Y+1664995D01*
X+10220087Y+1646817D01*
X+10150000Y+1640500D01*
X+9819800Y+1958000D02*
X+9824562Y+1996298D01*
X+9838850Y+2035788D01*
X+9862662Y+2077658D01*
X+9896000Y+2123100D01*
X+9819800Y+1958000D02*
X+9822431Y+1893082D01*
X+9838912Y+1833047D01*
X+9867839Y+1779058D01*
X+9907807Y+1732278D01*
X+9957412Y+1693869D01*
X+10015249Y+1664995D01*
X+10079913Y+1646817D01*
X+10150000Y+1640500D01*
X+10043320Y+1584620D02*
X+10069990Y+1610020D01*
X+10096660Y+1610020D01*
X+10123330Y+1584620D01*
X+10123330Y+1559220D01*
X+10096660Y+1533820D01*
X+10069990Y+1533820D01*
X+10043320Y+1559220D01*
X+10043320Y+1584620D01*
X+10096660Y+1559220D02*
X+10123330Y+1533820D01*
X+10163335Y+1597320D02*
X+10176670Y+1610020D01*
X+10216675Y+1610020D01*
X+10230010Y+1597320D01*
X+10230010Y+1584620D01*
X+10216675Y+1571920D01*
X+10176670Y+1571920D01*
X+10163335Y+1559220D01*
X+10163335Y+1533820D01*
X+10230010Y+1533820D01*
D36*
X+7245000Y+4660000D02*
X+7345000Y+4660000D01*
X+7245000Y+4840000D02*
X+7345000Y+4840000D01*
D34*
X+7134980Y+4875400D02*
X+7134980Y+4951600D01*
X+7201655Y+4951600D01*
X+7214990Y+4938900D01*
X+7214990Y+4926200D01*
X+7201655Y+4913500D01*
X+7134980Y+4913500D01*
X+7201655Y+4913500D02*
X+7214990Y+4900800D01*
X+7214990Y+4875400D01*
X+7268330Y+4926200D02*
X+7295000Y+4951600D01*
X+7295000Y+4875400D01*
X+7361675Y+4938900D02*
X+7375010Y+4951600D01*
X+7415015Y+4951600D01*
X+7428350Y+4938900D01*
X+7428350Y+4926200D01*
X+7415015Y+4913500D01*
X+7375010Y+4913500D01*
X+7361675Y+4900800D01*
X+7361675Y+4875400D01*
X+7428350Y+4875400D01*
D36*
X+7234500Y+4977300D02*
X+7334500Y+4977300D01*
X+7234500Y+5157300D02*
X+7334500Y+5157300D01*
D34*
X+7124480Y+5192700D02*
X+7124480Y+5268900D01*
X+7191155Y+5268900D01*
X+7204490Y+5256200D01*
X+7204490Y+5243500D01*
X+7191155Y+5230800D01*
X+7124480Y+5230800D01*
X+7191155Y+5230800D02*
X+7204490Y+5218100D01*
X+7204490Y+5192700D01*
X+7257830Y+5243500D02*
X+7284500Y+5268900D01*
X+7284500Y+5192700D01*
X+7417850Y+5218100D02*
X+7337840Y+5218100D01*
X+7391180Y+5268900D01*
X+7391180Y+5192700D01*
D36*
X+5910000Y+7206100D02*
X+5810000Y+7206100D01*
X+5910000Y+7026100D02*
X+5810000Y+7026100D01*
D34*
X+5699980Y+6914500D02*
X+5699980Y+6990700D01*
X+5766655Y+6990700D01*
X+5779990Y+6978000D01*
X+5779990Y+6965300D01*
X+5766655Y+6952600D01*
X+5699980Y+6952600D01*
X+5766655Y+6952600D02*
X+5779990Y+6939900D01*
X+5779990Y+6914500D01*
X+5819995Y+6978000D02*
X+5833330Y+6990700D01*
X+5873335Y+6990700D01*
X+5886670Y+6978000D01*
X+5886670Y+6965300D01*
X+5873335Y+6952600D01*
X+5833330Y+6952600D01*
X+5819995Y+6939900D01*
X+5819995Y+6914500D01*
X+5886670Y+6914500D01*
X+5940010Y+6965300D02*
X+5966680Y+6990700D01*
X+5966680Y+6914500D01*
D36*
X+5910000Y+7438700D02*
X+5810000Y+7438700D01*
X+5910000Y+7258700D02*
X+5810000Y+7258700D01*
D34*
X+5699980Y+7147100D02*
X+5699980Y+7223300D01*
X+5766655Y+7223300D01*
X+5779990Y+7210600D01*
X+5779990Y+7197900D01*
X+5766655Y+7185200D01*
X+5699980Y+7185200D01*
X+5766655Y+7185200D02*
X+5779990Y+7172500D01*
X+5779990Y+7147100D01*
X+5819995Y+7210600D02*
X+5833330Y+7223300D01*
X+5873335Y+7223300D01*
X+5886670Y+7210600D01*
X+5886670Y+7197900D01*
X+5873335Y+7185200D01*
X+5833330Y+7185200D01*
X+5819995Y+7172500D01*
X+5819995Y+7147100D01*
X+5886670Y+7147100D01*
X+5926675Y+7210600D02*
X+5940010Y+7223300D01*
X+5980015Y+7223300D01*
X+5993350Y+7210600D01*
X+5993350Y+7197900D01*
X+5980015Y+7185200D01*
X+5993350Y+7172500D01*
X+5993350Y+7159800D01*
X+5980015Y+7147100D01*
X+5940010Y+7147100D01*
X+5926675Y+7159800D01*
X+5953345Y+7185200D02*
X+5980015Y+7185200D01*
D36*
X+5910000Y+7696700D02*
X+5810000Y+7696700D01*
X+5910000Y+7516700D02*
X+5810000Y+7516700D01*
D34*
X+5699980Y+7405100D02*
X+5699980Y+7481300D01*
X+5766655Y+7481300D01*
X+5779990Y+7468600D01*
X+5779990Y+7455900D01*
X+5766655Y+7443200D01*
X+5699980Y+7443200D01*
X+5766655Y+7443200D02*
X+5779990Y+7430500D01*
X+5779990Y+7405100D01*
X+5819995Y+7468600D02*
X+5833330Y+7481300D01*
X+5873335Y+7481300D01*
X+5886670Y+7468600D01*
X+5886670Y+7455900D01*
X+5873335Y+7443200D01*
X+5833330Y+7443200D01*
X+5819995Y+7430500D01*
X+5819995Y+7405100D01*
X+5886670Y+7405100D01*
X+5993350Y+7481300D02*
X+5926675Y+7481300D01*
X+5926675Y+7455900D01*
X+5980015Y+7455900D01*
X+5993350Y+7443200D01*
X+5993350Y+7417800D01*
X+5980015Y+7405100D01*
X+5940010Y+7405100D01*
X+5926675Y+7417800D01*
D36*
X+7570300Y+6025900D02*
X+7570300Y+6125900D01*
X+7390300Y+6025900D02*
X+7390300Y+6125900D01*
D34*
X+7354900Y+5915880D02*
X+7278700Y+5915880D01*
X+7278700Y+5982555D01*
X+7291400Y+5995890D01*
X+7304100Y+5995890D01*
X+7316800Y+5982555D01*
X+7316800Y+5915880D01*
X+7316800Y+5982555D02*
X+7329500Y+5995890D01*
X+7354900Y+5995890D01*
X+7291400Y+6035895D02*
X+7278700Y+6049230D01*
X+7278700Y+6089235D01*
X+7291400Y+6102570D01*
X+7304100Y+6102570D01*
X+7316800Y+6089235D01*
X+7316800Y+6049230D01*
X+7329500Y+6035895D01*
X+7354900Y+6035895D01*
X+7354900Y+6102570D01*
X+7316800Y+6155910D02*
X+7304100Y+6142575D01*
X+7291400Y+6142575D01*
X+7278700Y+6155910D01*
X+7278700Y+6195915D01*
X+7291400Y+6209250D01*
X+7304100Y+6209250D01*
X+7316800Y+6195915D01*
X+7316800Y+6155910D01*
X+7329500Y+6142575D01*
X+7342200Y+6142575D01*
X+7354900Y+6155910D01*
X+7354900Y+6195915D01*
X+7342200Y+6209250D01*
X+7329500Y+6209250D01*
X+7316800Y+6195915D01*
D36*
X+5910000Y+6948100D02*
X+5810000Y+6948100D01*
X+5910000Y+6768100D02*
X+5810000Y+6768100D01*
D34*
X+5699980Y+6656500D02*
X+5699980Y+6732700D01*
X+5766655Y+6732700D01*
X+5779990Y+6720000D01*
X+5779990Y+6707300D01*
X+5766655Y+6694600D01*
X+5699980Y+6694600D01*
X+5766655Y+6694600D02*
X+5779990Y+6681900D01*
X+5779990Y+6656500D01*
X+5819995Y+6720000D02*
X+5833330Y+6732700D01*
X+5873335Y+6732700D01*
X+5886670Y+6720000D01*
X+5886670Y+6707300D01*
X+5873335Y+6694600D01*
X+5886670Y+6681900D01*
X+5886670Y+6669200D01*
X+5873335Y+6656500D01*
X+5833330Y+6656500D01*
X+5819995Y+6669200D01*
X+5846665Y+6694600D02*
X+5873335Y+6694600D01*
X+5940010Y+6707300D02*
X+5966680Y+6732700D01*
X+5966680Y+6656500D01*
X+9896000Y+1019900D02*
X+10404000Y+1019900D01*
X+9819800Y+1185000D02*
X+9824562Y+1146702D01*
X+9838850Y+1107212D01*
X+9862662Y+1065342D01*
X+9896000Y+1019900D01*
X+9819800Y+1185000D02*
X+9822431Y+1249918D01*
X+9838912Y+1309953D01*
X+9867839Y+1363942D01*
X+9907807Y+1410722D01*
X+9957412Y+1449131D01*
X+10015249Y+1478005D01*
X+10079913Y+1496183D01*
X+10150000Y+1502500D01*
X+10480200Y+1185000D02*
X+10475438Y+1146702D01*
X+10461150Y+1107212D01*
X+10437338Y+1065342D01*
X+10404000Y+1019900D01*
X+10480200Y+1185000D02*
X+10477569Y+1249918D01*
X+10461088Y+1309953D01*
X+10432161Y+1363942D01*
X+10392193Y+1410722D01*
X+10342588Y+1449131D01*
X+10284751Y+1478005D01*
X+10220087Y+1496183D01*
X+10150000Y+1502500D01*
X+10043320Y+1583780D02*
X+10069990Y+1609180D01*
X+10096660Y+1609180D01*
X+10123330Y+1583780D01*
X+10123330Y+1558380D01*
X+10096660Y+1532980D01*
X+10069990Y+1532980D01*
X+10043320Y+1558380D01*
X+10043320Y+1583780D01*
X+10096660Y+1558380D02*
X+10123330Y+1532980D01*
X+10163335Y+1596480D02*
X+10176670Y+1609180D01*
X+10216675Y+1609180D01*
X+10230010Y+1596480D01*
X+10230010Y+1583780D01*
X+10216675Y+1571080D01*
X+10230010Y+1558380D01*
X+10230010Y+1545680D01*
X+10216675Y+1532980D01*
X+10176670Y+1532980D01*
X+10163335Y+1545680D01*
X+10190005Y+1571080D02*
X+10216675Y+1571080D01*
X+9484900Y+1151600D02*
X+9357900Y+1151600D01*
X+8849900Y+1088100D02*
X+9357900Y+1088100D01*
X+9357900Y+1215100D01*
X+8849900Y+1215100D01*
X+8849900Y+1088100D01*
X+8849900Y+1151600D02*
X+8722900Y+1151600D01*
X+8997220Y+981420D02*
X+8997220Y+1057620D01*
X+9063895Y+1057620D01*
X+9077230Y+1044920D01*
X+9077230Y+1032220D01*
X+9063895Y+1019520D01*
X+8997220Y+1019520D01*
X+9063895Y+1019520D02*
X+9077230Y+1006820D01*
X+9077230Y+981420D01*
X+9130570Y+1019520D02*
X+9117235Y+1032220D01*
X+9117235Y+1044920D01*
X+9130570Y+1057620D01*
X+9170575Y+1057620D01*
X+9183910Y+1044920D01*
X+9183910Y+1032220D01*
X+9170575Y+1019520D01*
X+9130570Y+1019520D01*
X+9117235Y+1006820D01*
X+9117235Y+994120D01*
X+9130570Y+981420D01*
X+9170575Y+981420D01*
X+9183910Y+994120D01*
X+9183910Y+1006820D01*
X+9170575Y+1019520D01*
X+3329000Y+1247000D02*
X+3579000Y+1247000D01*
X+3579000Y+2047000D01*
X+3279000Y+2047000D01*
X+3279000Y+1247000D01*
X+3329000Y+1247000D01*
X+3131820Y+1751330D02*
X+3144520Y+1737995D01*
X+3144520Y+1697990D01*
X+3119120Y+1671320D01*
X+3093720Y+1671320D01*
X+3068320Y+1697990D01*
X+3068320Y+1737995D01*
X+3081020Y+1751330D01*
X+3068320Y+1791335D02*
X+3068320Y+1858010D01*
X+3081020Y+1858010D01*
X+3144520Y+1791335D01*
D35*
X+11807800Y+4622800D02*
X+11807140Y+4639039D01*
X+11801775Y+4671519D01*
X+11790575Y+4703999D01*
X+11772351Y+4736479D01*
X+11744484Y+4768805D01*
X+11712004Y+4793509D01*
X+11679524Y+4809497D01*
X+11647044Y+4818912D01*
X+11614564Y+4822686D01*
X+11607800Y+4822800D01*
X+11407800Y+4622800D02*
X+11408460Y+4639039D01*
X+11413825Y+4671519D01*
X+11425025Y+4703999D01*
X+11443249Y+4736479D01*
X+11471116Y+4768805D01*
X+11503596Y+4793509D01*
X+11536076Y+4809497D01*
X+11568556Y+4818912D01*
X+11601036Y+4822686D01*
X+11607800Y+4822800D01*
X+11407800Y+4622800D02*
X+11408460Y+4606561D01*
X+11413825Y+4574081D01*
X+11425025Y+4541601D01*
X+11443249Y+4509121D01*
X+11471116Y+4476795D01*
X+11503596Y+4452091D01*
X+11536076Y+4436103D01*
X+11568556Y+4426688D01*
X+11601036Y+4422914D01*
X+11607800Y+4422800D01*
X+11807800Y+4622800D02*
X+11807140Y+4606561D01*
X+11801775Y+4574081D01*
X+11790575Y+4541601D01*
X+11772351Y+4509121D01*
X+11744484Y+4476795D01*
X+11712004Y+4452091D01*
X+11679524Y+4436103D01*
X+11647044Y+4426688D01*
X+11614564Y+4422914D01*
X+11607800Y+4422800D01*
D36*
X+11453800Y+4786800D02*
X+11453765Y+4787631D01*
X+11453484Y+4789295D01*
X+11452894Y+4790959D01*
X+11451930Y+4792623D01*
X+11450455Y+4794264D01*
X+11448791Y+4795465D01*
X+11447127Y+4796230D01*
X+11445463Y+4796661D01*
X+11443800Y+4796800D01*
X+11433800Y+4786800D02*
X+11433835Y+4787631D01*
X+11434116Y+4789295D01*
X+11434706Y+4790959D01*
X+11435670Y+4792623D01*
X+11437145Y+4794264D01*
X+11438809Y+4795465D01*
X+11440473Y+4796230D01*
X+11442137Y+4796661D01*
X+11443800Y+4796800D01*
X+11433800Y+4786800D02*
X+11433835Y+4785969D01*
X+11434116Y+4784305D01*
X+11434706Y+4782641D01*
X+11435670Y+4780977D01*
X+11437145Y+4779336D01*
X+11438809Y+4778135D01*
X+11440473Y+4777370D01*
X+11442137Y+4776939D01*
X+11443800Y+4776800D01*
X+11453800Y+4786800D02*
X+11453765Y+4785969D01*
X+11453484Y+4784305D01*
X+11452894Y+4782641D01*
X+11451930Y+4780977D01*
X+11450455Y+4779336D01*
X+11448791Y+4778135D01*
X+11447127Y+4777370D01*
X+11445463Y+4776939D01*
X+11443800Y+4776800D01*
D34*
X+11581130Y+4866900D02*
X+11567795Y+4854200D01*
X+11527790Y+4854200D01*
X+11501120Y+4879600D01*
X+11501120Y+4905000D01*
X+11527790Y+4930400D01*
X+11567795Y+4930400D01*
X+11581130Y+4917700D01*
X+11634470Y+4905000D02*
X+11661140Y+4930400D01*
X+11661140Y+4854200D01*
X+3683000Y+7708900D02*
X+4191000Y+7708900D01*
X+3606800Y+7874000D02*
X+3611562Y+7835702D01*
X+3625850Y+7796212D01*
X+3649662Y+7754342D01*
X+3683000Y+7708900D01*
X+3606800Y+7874000D02*
X+3609431Y+7938918D01*
X+3625912Y+7998953D01*
X+3654839Y+8052942D01*
X+3694807Y+8099722D01*
X+3744412Y+8138131D01*
X+3802249Y+8167005D01*
X+3866913Y+8185183D01*
X+3937000Y+8191500D01*
X+4267200Y+7874000D02*
X+4262438Y+7835702D01*
X+4248150Y+7796212D01*
X+4224338Y+7754342D01*
X+4191000Y+7708900D01*
X+4267200Y+7874000D02*
X+4264569Y+7938918D01*
X+4248088Y+7998953D01*
X+4219161Y+8052942D01*
X+4179193Y+8099722D01*
X+4129588Y+8138131D01*
X+4071751Y+8167005D01*
X+4007087Y+8185183D01*
X+3937000Y+8191500D01*
X+3792220Y+8247380D02*
X+3818890Y+8272780D01*
X+3845560Y+8272780D01*
X+3872230Y+8247380D01*
X+3872230Y+8221980D01*
X+3845560Y+8196580D01*
X+3818890Y+8196580D01*
X+3792220Y+8221980D01*
X+3792220Y+8247380D01*
X+3845560Y+8221980D02*
X+3872230Y+8196580D01*
X+3978910Y+8221980D02*
X+3898900Y+8221980D01*
X+3952240Y+8272780D01*
X+3952240Y+8196580D01*
X+4381500Y+7734300D02*
X+4889500Y+7734300D01*
X+4305300Y+7899400D02*
X+4310062Y+7861102D01*
X+4324350Y+7821612D01*
X+4348162Y+7779742D01*
X+4381500Y+7734300D01*
X+4305300Y+7899400D02*
X+4307931Y+7964318D01*
X+4324412Y+8024353D01*
X+4353339Y+8078342D01*
X+4393307Y+8125122D01*
X+4442912Y+8163531D01*
X+4500749Y+8192405D01*
X+4565413Y+8210583D01*
X+4635500Y+8216900D01*
X+4965700Y+7899400D02*
X+4960938Y+7861102D01*
X+4946650Y+7821612D01*
X+4922838Y+7779742D01*
X+4889500Y+7734300D01*
X+4965700Y+7899400D02*
X+4963069Y+7964318D01*
X+4946588Y+8024353D01*
X+4917661Y+8078342D01*
X+4877693Y+8125122D01*
X+4828088Y+8163531D01*
X+4770251Y+8192405D01*
X+4705587Y+8210583D01*
X+4635500Y+8216900D01*
X+4528820Y+8298180D02*
X+4555490Y+8323580D01*
X+4582160Y+8323580D01*
X+4608830Y+8298180D01*
X+4608830Y+8272780D01*
X+4582160Y+8247380D01*
X+4555490Y+8247380D01*
X+4528820Y+8272780D01*
X+4528820Y+8298180D01*
X+4582160Y+8272780D02*
X+4608830Y+8247380D01*
X+4715510Y+8323580D02*
X+4648835Y+8323580D01*
X+4648835Y+8298180D01*
X+4702175Y+8298180D01*
X+4715510Y+8285480D01*
X+4715510Y+8260080D01*
X+4702175Y+8247380D01*
X+4662170Y+8247380D01*
X+4648835Y+8260080D01*
X+1600200Y+7734300D02*
X+2108200Y+7734300D01*
X+1524000Y+7899400D02*
X+1528762Y+7861102D01*
X+1543050Y+7821612D01*
X+1566862Y+7779742D01*
X+1600200Y+7734300D01*
X+1524000Y+7899400D02*
X+1526631Y+7964318D01*
X+1543112Y+8024353D01*
X+1572039Y+8078342D01*
X+1612007Y+8125122D01*
X+1661612Y+8163531D01*
X+1719449Y+8192405D01*
X+1784113Y+8210583D01*
X+1854200Y+8216900D01*
X+2184400Y+7899400D02*
X+2179638Y+7861102D01*
X+2165350Y+7821612D01*
X+2141538Y+7779742D01*
X+2108200Y+7734300D01*
X+2184400Y+7899400D02*
X+2181769Y+7964318D01*
X+2165288Y+8024353D01*
X+2136361Y+8078342D01*
X+2096393Y+8125122D01*
X+2046788Y+8163531D01*
X+1988951Y+8192405D01*
X+1924287Y+8210583D01*
X+1854200Y+8216900D01*
X+1747520Y+8298180D02*
X+1774190Y+8323580D01*
X+1800860Y+8323580D01*
X+1827530Y+8298180D01*
X+1827530Y+8272780D01*
X+1800860Y+8247380D01*
X+1774190Y+8247380D01*
X+1747520Y+8272780D01*
X+1747520Y+8298180D01*
X+1800860Y+8272780D02*
X+1827530Y+8247380D01*
X+1934210Y+8298180D02*
X+1920875Y+8285480D01*
X+1880870Y+8285480D01*
X+1867535Y+8298180D01*
X+1867535Y+8310880D01*
X+1880870Y+8323580D01*
X+1920875Y+8323580D01*
X+1934210Y+8310880D01*
X+1934210Y+8260080D01*
X+1920875Y+8247380D01*
X+1880870Y+8247380D01*
X+901700Y+7708900D02*
X+1409700Y+7708900D01*
X+825500Y+7874000D02*
X+830262Y+7835702D01*
X+844550Y+7796212D01*
X+868362Y+7754342D01*
X+901700Y+7708900D01*
X+825500Y+7874000D02*
X+828131Y+7938918D01*
X+844612Y+7998953D01*
X+873539Y+8052942D01*
X+913507Y+8099722D01*
X+963112Y+8138131D01*
X+1020949Y+8167005D01*
X+1085613Y+8185183D01*
X+1155700Y+8191500D01*
X+1485900Y+7874000D02*
X+1481138Y+7835702D01*
X+1466850Y+7796212D01*
X+1443038Y+7754342D01*
X+1409700Y+7708900D01*
X+1485900Y+7874000D02*
X+1483269Y+7938918D01*
X+1466788Y+7998953D01*
X+1437861Y+8052942D01*
X+1397893Y+8099722D01*
X+1348288Y+8138131D01*
X+1290451Y+8167005D01*
X+1225787Y+8185183D01*
X+1155700Y+8191500D01*
X+995680Y+8272780D02*
X+1022350Y+8298180D01*
X+1049020Y+8298180D01*
X+1075690Y+8272780D01*
X+1075690Y+8247380D01*
X+1049020Y+8221980D01*
X+1022350Y+8221980D01*
X+995680Y+8247380D01*
X+995680Y+8272780D01*
X+1049020Y+8247380D02*
X+1075690Y+8221980D01*
X+1129030Y+8272780D02*
X+1155700Y+8298180D01*
X+1155700Y+8221980D01*
X+1209040Y+8234680D02*
X+1209040Y+8285480D01*
X+1222375Y+8298180D01*
X+1275715Y+8298180D01*
X+1289050Y+8285480D01*
X+1289050Y+8234680D01*
X+1275715Y+8221980D01*
X+1222375Y+8221980D01*
X+1209040Y+8234680D01*
X+1209040Y+8221980D02*
X+1289050Y+8298180D01*
X+2006600Y+6705600D02*
X+2514600Y+6705600D01*
X+1930400Y+6870700D02*
X+1935162Y+6832402D01*
X+1949450Y+6792912D01*
X+1973262Y+6751042D01*
X+2006600Y+6705600D01*
X+1930400Y+6870700D02*
X+1933031Y+6935618D01*
X+1949512Y+6995653D01*
X+1978439Y+7049642D01*
X+2018407Y+7096422D01*
X+2068012Y+7134831D01*
X+2125849Y+7163705D01*
X+2190513Y+7181883D01*
X+2260600Y+7188200D01*
X+2590800Y+6870700D02*
X+2586038Y+6832402D01*
X+2571750Y+6792912D01*
X+2547938Y+6751042D01*
X+2514600Y+6705600D01*
X+2590800Y+6870700D02*
X+2588169Y+6935618D01*
X+2571688Y+6995653D01*
X+2542761Y+7049642D01*
X+2502793Y+7096422D01*
X+2453188Y+7134831D01*
X+2395351Y+7163705D01*
X+2330687Y+7181883D01*
X+2260600Y+7188200D01*
X+2153920Y+7269480D02*
X+2180590Y+7294880D01*
X+2207260Y+7294880D01*
X+2233930Y+7269480D01*
X+2233930Y+7244080D01*
X+2207260Y+7218680D01*
X+2180590Y+7218680D01*
X+2153920Y+7244080D01*
X+2153920Y+7269480D01*
X+2207260Y+7244080D02*
X+2233930Y+7218680D01*
X+2340610Y+7282180D02*
X+2327275Y+7294880D01*
X+2287270Y+7294880D01*
X+2273935Y+7282180D01*
X+2273935Y+7231380D01*
X+2287270Y+7218680D01*
X+2327275Y+7218680D01*
X+2340610Y+7231380D01*
X+2340610Y+7244080D01*
X+2327275Y+7256780D01*
X+2273935Y+7256780D01*
X+1320800Y+6692900D02*
X+1828800Y+6692900D01*
X+1244600Y+6858000D02*
X+1249362Y+6819702D01*
X+1263650Y+6780212D01*
X+1287462Y+6738342D01*
X+1320800Y+6692900D01*
X+1244600Y+6858000D02*
X+1247231Y+6922918D01*
X+1263712Y+6982953D01*
X+1292639Y+7036942D01*
X+1332607Y+7083722D01*
X+1382212Y+7122131D01*
X+1440049Y+7151005D01*
X+1504713Y+7169183D01*
X+1574800Y+7175500D01*
X+1905000Y+6858000D02*
X+1900238Y+6819702D01*
X+1885950Y+6780212D01*
X+1862138Y+6738342D01*
X+1828800Y+6692900D01*
X+1905000Y+6858000D02*
X+1902369Y+6922918D01*
X+1885888Y+6982953D01*
X+1856961Y+7036942D01*
X+1816993Y+7083722D01*
X+1767388Y+7122131D01*
X+1709551Y+7151005D01*
X+1644887Y+7169183D01*
X+1574800Y+7175500D01*
X+1414780Y+7256780D02*
X+1441450Y+7282180D01*
X+1468120Y+7282180D01*
X+1494790Y+7256780D01*
X+1494790Y+7231380D01*
X+1468120Y+7205980D01*
X+1441450Y+7205980D01*
X+1414780Y+7231380D01*
X+1414780Y+7256780D01*
X+1468120Y+7231380D02*
X+1494790Y+7205980D01*
X+1548130Y+7256780D02*
X+1574800Y+7282180D01*
X+1574800Y+7205980D01*
X+1654810Y+7256780D02*
X+1681480Y+7282180D01*
X+1681480Y+7205980D01*
X+2997200Y+7708900D02*
X+3505200Y+7708900D01*
X+2921000Y+7874000D02*
X+2925762Y+7835702D01*
X+2940050Y+7796212D01*
X+2963862Y+7754342D01*
X+2997200Y+7708900D01*
X+2921000Y+7874000D02*
X+2923631Y+7938918D01*
X+2940112Y+7998953D01*
X+2969039Y+8052942D01*
X+3009007Y+8099722D01*
X+3058612Y+8138131D01*
X+3116449Y+8167005D01*
X+3181113Y+8185183D01*
X+3251200Y+8191500D01*
X+3581400Y+7874000D02*
X+3576638Y+7835702D01*
X+3562350Y+7796212D01*
X+3538538Y+7754342D01*
X+3505200Y+7708900D01*
X+3581400Y+7874000D02*
X+3578769Y+7938918D01*
X+3562288Y+7998953D01*
X+3533361Y+8052942D01*
X+3493393Y+8099722D01*
X+3443788Y+8138131D01*
X+3385951Y+8167005D01*
X+3321287Y+8185183D01*
X+3251200Y+8191500D01*
X+3144520Y+8272780D02*
X+3171190Y+8298180D01*
X+3197860Y+8298180D01*
X+3224530Y+8272780D01*
X+3224530Y+8247380D01*
X+3197860Y+8221980D01*
X+3171190Y+8221980D01*
X+3144520Y+8247380D01*
X+3144520Y+8272780D01*
X+3197860Y+8247380D02*
X+3224530Y+8221980D01*
X+3264535Y+8298180D02*
X+3331210Y+8298180D01*
X+3331210Y+8285480D01*
X+3264535Y+8221980D01*
X+8699500Y+4749800D02*
X+8699500Y+4876800D01*
X+9715500Y+4876800D01*
X+9715500Y+4368800D01*
X+8699500Y+4368800D01*
X+8699500Y+4495800D01*
X+8826500Y+4622800D02*
X+8824064Y+4648676D01*
X+8817015Y+4672648D01*
X+8805738Y+4694238D01*
X+8790622Y+4712970D01*
X+8772054Y+4728369D01*
X+8750419Y+4739958D01*
X+8726106Y+4747260D01*
X+8699500Y+4749800D01*
X+8826500Y+4622800D02*
X+8824064Y+4596194D01*
X+8817015Y+4571881D01*
X+8805738Y+4550246D01*
X+8790622Y+4531678D01*
X+8772054Y+4516562D01*
X+8750419Y+4505285D01*
X+8726106Y+4498236D01*
X+8699500Y+4495800D01*
X+8592820Y+4516120D02*
X+8656320Y+4516120D01*
X+8669020Y+4529455D01*
X+8669020Y+4582795D01*
X+8656320Y+4596130D01*
X+8592820Y+4596130D01*
X+8605520Y+4702810D02*
X+8592820Y+4689475D01*
X+8592820Y+4649470D01*
X+8605520Y+4636135D01*
X+8656320Y+4636135D01*
X+8669020Y+4649470D01*
X+8669020Y+4689475D01*
X+8656320Y+4702810D01*
X+8643620Y+4702810D01*
X+8630920Y+4689475D01*
X+8630920Y+4636135D01*
D36*
X+9275500Y+5347800D02*
X+9175500Y+5347800D01*
X+9275500Y+5167800D02*
X+9175500Y+5167800D01*
D34*
X+9065480Y+5056200D02*
X+9065480Y+5132400D01*
X+9132155Y+5132400D01*
X+9145490Y+5119700D01*
X+9145490Y+5107000D01*
X+9132155Y+5094300D01*
X+9065480Y+5094300D01*
X+9132155Y+5094300D02*
X+9145490Y+5081600D01*
X+9145490Y+5056200D01*
X+9185495Y+5119700D02*
X+9198830Y+5132400D01*
X+9238835Y+5132400D01*
X+9252170Y+5119700D01*
X+9252170Y+5107000D01*
X+9238835Y+5094300D01*
X+9252170Y+5081600D01*
X+9252170Y+5068900D01*
X+9238835Y+5056200D01*
X+9198830Y+5056200D01*
X+9185495Y+5068900D01*
X+9212165Y+5094300D02*
X+9238835Y+5094300D01*
X+9278840Y+5068900D02*
X+9278840Y+5119700D01*
X+9292175Y+5132400D01*
X+9345515Y+5132400D01*
X+9358850Y+5119700D01*
X+9358850Y+5068900D01*
X+9345515Y+5056200D01*
X+9292175Y+5056200D01*
X+9278840Y+5068900D01*
X+9278840Y+5056200D02*
X+9358850Y+5132400D01*
D36*
X+9962900Y+4659800D02*
X+10062900Y+4659800D01*
X+9962900Y+4839800D02*
X+10062900Y+4839800D01*
D34*
X+9852880Y+4875200D02*
X+9852880Y+4951400D01*
X+9919555Y+4951400D01*
X+9932890Y+4938700D01*
X+9932890Y+4926000D01*
X+9919555Y+4913300D01*
X+9852880Y+4913300D01*
X+9919555Y+4913300D02*
X+9932890Y+4900600D01*
X+9932890Y+4875200D01*
X+9972895Y+4938700D02*
X+9986230Y+4951400D01*
X+10026235Y+4951400D01*
X+10039570Y+4938700D01*
X+10039570Y+4926000D01*
X+10026235Y+4913300D01*
X+10039570Y+4900600D01*
X+10039570Y+4887900D01*
X+10026235Y+4875200D01*
X+9986230Y+4875200D01*
X+9972895Y+4887900D01*
X+9999565Y+4913300D02*
X+10026235Y+4913300D01*
X+10079575Y+4938700D02*
X+10092910Y+4951400D01*
X+10132915Y+4951400D01*
X+10146250Y+4938700D01*
X+10146250Y+4926000D01*
X+10132915Y+4913300D01*
X+10092910Y+4913300D01*
X+10079575Y+4900600D01*
X+10079575Y+4875200D01*
X+10146250Y+4875200D01*
X+2692400Y+6705600D02*
X+3200400Y+6705600D01*
X+2616200Y+6870700D02*
X+2620962Y+6832402D01*
X+2635250Y+6792912D01*
X+2659062Y+6751042D01*
X+2692400Y+6705600D01*
X+2616200Y+6870700D02*
X+2618831Y+6935618D01*
X+2635312Y+6995653D01*
X+2664239Y+7049642D01*
X+2704207Y+7096422D01*
X+2753812Y+7134831D01*
X+2811649Y+7163705D01*
X+2876313Y+7181883D01*
X+2946400Y+7188200D01*
X+3276600Y+6870700D02*
X+3271838Y+6832402D01*
X+3257550Y+6792912D01*
X+3233738Y+6751042D01*
X+3200400Y+6705600D01*
X+3276600Y+6870700D02*
X+3273969Y+6935618D01*
X+3257488Y+6995653D01*
X+3228561Y+7049642D01*
X+3188593Y+7096422D01*
X+3138988Y+7134831D01*
X+3081151Y+7163705D01*
X+3016487Y+7181883D01*
X+2946400Y+7188200D01*
X+2839720Y+7269480D02*
X+2866390Y+7294880D01*
X+2893060Y+7294880D01*
X+2919730Y+7269480D01*
X+2919730Y+7244080D01*
X+2893060Y+7218680D01*
X+2866390Y+7218680D01*
X+2839720Y+7244080D01*
X+2839720Y+7269480D01*
X+2893060Y+7244080D02*
X+2919730Y+7218680D01*
X+2973070Y+7256780D02*
X+2959735Y+7269480D01*
X+2959735Y+7282180D01*
X+2973070Y+7294880D01*
X+3013075Y+7294880D01*
X+3026410Y+7282180D01*
X+3026410Y+7269480D01*
X+3013075Y+7256780D01*
X+2973070Y+7256780D01*
X+2959735Y+7244080D01*
X+2959735Y+7231380D01*
X+2973070Y+7218680D01*
X+3013075Y+7218680D01*
X+3026410Y+7231380D01*
X+3026410Y+7244080D01*
X+3013075Y+7256780D01*
X+203200Y+7696200D02*
X+711200Y+7696200D01*
X+127000Y+7861300D02*
X+131762Y+7823002D01*
X+146050Y+7783512D01*
X+169862Y+7741642D01*
X+203200Y+7696200D01*
X+127000Y+7861300D02*
X+129631Y+7926218D01*
X+146112Y+7986253D01*
X+175039Y+8040242D01*
X+215007Y+8087022D01*
X+264612Y+8125431D01*
X+322449Y+8154305D01*
X+387113Y+8172483D01*
X+457200Y+8178800D01*
X+787400Y+7861300D02*
X+782638Y+7823002D01*
X+768350Y+7783512D01*
X+744538Y+7741642D01*
X+711200Y+7696200D01*
X+787400Y+7861300D02*
X+784769Y+7926218D01*
X+768288Y+7986253D01*
X+739361Y+8040242D01*
X+699393Y+8087022D01*
X+649788Y+8125431D01*
X+591951Y+8154305D01*
X+527287Y+8172483D01*
X+457200Y+8178800D01*
X+297180Y+8260080D02*
X+323850Y+8285480D01*
X+350520Y+8285480D01*
X+377190Y+8260080D01*
X+377190Y+8234680D01*
X+350520Y+8209280D01*
X+323850Y+8209280D01*
X+297180Y+8234680D01*
X+297180Y+8260080D01*
X+350520Y+8234680D02*
X+377190Y+8209280D01*
X+430530Y+8260080D02*
X+457200Y+8285480D01*
X+457200Y+8209280D01*
X+523875Y+8272780D02*
X+537210Y+8285480D01*
X+577215Y+8285480D01*
X+590550Y+8272780D01*
X+590550Y+8260080D01*
X+577215Y+8247380D01*
X+537210Y+8247380D01*
X+523875Y+8234680D01*
X+523875Y+8209280D01*
X+590550Y+8209280D01*
X+2298700Y+7721600D02*
X+2806700Y+7721600D01*
X+2222500Y+7886700D02*
X+2227262Y+7848402D01*
X+2241550Y+7808912D01*
X+2265362Y+7767042D01*
X+2298700Y+7721600D01*
X+2222500Y+7886700D02*
X+2225131Y+7951618D01*
X+2241612Y+8011653D01*
X+2270539Y+8065642D01*
X+2310507Y+8112422D01*
X+2360112Y+8150831D01*
X+2417949Y+8179705D01*
X+2482613Y+8197883D01*
X+2552700Y+8204200D01*
X+2882900Y+7886700D02*
X+2878138Y+7848402D01*
X+2863850Y+7808912D01*
X+2840038Y+7767042D01*
X+2806700Y+7721600D01*
X+2882900Y+7886700D02*
X+2880269Y+7951618D01*
X+2863788Y+8011653D01*
X+2834861Y+8065642D01*
X+2794893Y+8112422D01*
X+2745288Y+8150831D01*
X+2687451Y+8179705D01*
X+2622787Y+8197883D01*
X+2552700Y+8204200D01*
X+2392680Y+8285480D02*
X+2419350Y+8310880D01*
X+2446020Y+8310880D01*
X+2472690Y+8285480D01*
X+2472690Y+8260080D01*
X+2446020Y+8234680D01*
X+2419350Y+8234680D01*
X+2392680Y+8260080D01*
X+2392680Y+8285480D01*
X+2446020Y+8260080D02*
X+2472690Y+8234680D01*
X+2512695Y+8298180D02*
X+2526030Y+8310880D01*
X+2566035Y+8310880D01*
X+2579370Y+8298180D01*
X+2579370Y+8285480D01*
X+2566035Y+8272780D01*
X+2526030Y+8272780D01*
X+2512695Y+8260080D01*
X+2512695Y+8234680D01*
X+2579370Y+8234680D01*
X+2619375Y+8298180D02*
X+2632710Y+8310880D01*
X+2672715Y+8310880D01*
X+2686050Y+8298180D01*
X+2686050Y+8285480D01*
X+2672715Y+8272780D01*
X+2632710Y+8272780D01*
X+2619375Y+8260080D01*
X+2619375Y+8234680D01*
X+2686050Y+8234680D01*
X+8509000Y+3987800D02*
X+9271000Y+3987800D01*
X+9398000Y+3860800D01*
X+9398000Y+3606800D01*
X+9271000Y+3479800D01*
X+8509000Y+3479800D01*
X+8382000Y+3606800D01*
X+8382000Y+3860800D01*
X+8509000Y+3987800D01*
X+8783320Y+4094480D02*
X+8863330Y+4018280D01*
X+8783320Y+4018280D02*
X+8863330Y+4094480D01*
X+8903335Y+4081780D02*
X+8916670Y+4094480D01*
X+8956675Y+4094480D01*
X+8970010Y+4081780D01*
X+8970010Y+4069080D01*
X+8956675Y+4056380D01*
X+8916670Y+4056380D01*
X+8903335Y+4043680D01*
X+8903335Y+4018280D01*
X+8970010Y+4018280D01*
D37*
X+7114600Y+1847088D02*
X+6689598Y+1847088D01*
X+6451600Y+1392100D01*
X+4927600Y+1392100D01*
X+4689602Y+1847088D01*
X+4264600Y+1847088D01*
X+7114600Y+2547112D02*
X+6689598Y+2547112D01*
X+6451600Y+3002100D01*
X+4927600Y+3002100D01*
X+4689602Y+2547112D01*
X+4264600Y+2547112D01*
D36*
X+7329600Y+2187100D02*
X+7329600Y+2187100D01*
X+7322529Y+2190029D01*
X+7319600Y+2197100D01*
X+7322529Y+2204171D01*
X+7329600Y+2207100D01*
X+7329600Y+2207100D01*
X+7336671Y+2204171D01*
X+7339600Y+2197100D01*
X+7336671Y+2190029D01*
X+7329600Y+2187100D01*
D34*
X+5612920Y+1361700D02*
X+5612920Y+1298200D01*
X+5626255Y+1285500D01*
X+5679595Y+1285500D01*
X+5692930Y+1298200D01*
X+5692930Y+1361700D01*
X+5732935Y+1361700D02*
X+5799610Y+1361700D01*
X+5799610Y+1349000D01*
X+5732935Y+1285500D01*
X+1333500Y+4178300D02*
X+1841500Y+4178300D01*
X+1257300Y+4343400D02*
X+1262062Y+4305102D01*
X+1276350Y+4265612D01*
X+1300162Y+4223742D01*
X+1333500Y+4178300D01*
X+1257300Y+4343400D02*
X+1259931Y+4408318D01*
X+1276412Y+4468353D01*
X+1305339Y+4522342D01*
X+1345307Y+4569122D01*
X+1394912Y+4607531D01*
X+1452749Y+4636405D01*
X+1517413Y+4654583D01*
X+1587500Y+4660900D01*
X+1917700Y+4343400D02*
X+1912938Y+4305102D01*
X+1898650Y+4265612D01*
X+1874838Y+4223742D01*
X+1841500Y+4178300D01*
X+1917700Y+4343400D02*
X+1915069Y+4408318D01*
X+1898588Y+4468353D01*
X+1869661Y+4522342D01*
X+1829693Y+4569122D01*
X+1780088Y+4607531D01*
X+1722251Y+4636405D01*
X+1657587Y+4654583D01*
X+1587500Y+4660900D01*
X+1427480Y+4742180D02*
X+1454150Y+4767580D01*
X+1480820Y+4767580D01*
X+1507490Y+4742180D01*
X+1507490Y+4716780D01*
X+1480820Y+4691380D01*
X+1454150Y+4691380D01*
X+1427480Y+4716780D01*
X+1427480Y+4742180D01*
X+1480820Y+4716780D02*
X+1507490Y+4691380D01*
X+1547495Y+4754880D02*
X+1560830Y+4767580D01*
X+1600835Y+4767580D01*
X+1614170Y+4754880D01*
X+1614170Y+4742180D01*
X+1600835Y+4729480D01*
X+1560830Y+4729480D01*
X+1547495Y+4716780D01*
X+1547495Y+4691380D01*
X+1614170Y+4691380D01*
X+1654175Y+4754880D02*
X+1667510Y+4767580D01*
X+1707515Y+4767580D01*
X+1720850Y+4754880D01*
X+1720850Y+4742180D01*
X+1707515Y+4729480D01*
X+1720850Y+4716780D01*
X+1720850Y+4704080D01*
X+1707515Y+4691380D01*
X+1667510Y+4691380D01*
X+1654175Y+4704080D01*
X+1680845Y+4729480D02*
X+1707515Y+4729480D01*
X+2768600Y+4178300D02*
X+3276600Y+4178300D01*
X+2692400Y+4343400D02*
X+2697162Y+4305102D01*
X+2711450Y+4265612D01*
X+2735262Y+4223742D01*
X+2768600Y+4178300D01*
X+2692400Y+4343400D02*
X+2695031Y+4408318D01*
X+2711512Y+4468353D01*
X+2740439Y+4522342D01*
X+2780407Y+4569122D01*
X+2830012Y+4607531D01*
X+2887849Y+4636405D01*
X+2952513Y+4654583D01*
X+3022600Y+4660900D01*
X+3352800Y+4343400D02*
X+3348038Y+4305102D01*
X+3333750Y+4265612D01*
X+3309938Y+4223742D01*
X+3276600Y+4178300D01*
X+3352800Y+4343400D02*
X+3350169Y+4408318D01*
X+3333688Y+4468353D01*
X+3304761Y+4522342D01*
X+3264793Y+4569122D01*
X+3215188Y+4607531D01*
X+3157351Y+4636405D01*
X+3092687Y+4654583D01*
X+3022600Y+4660900D01*
X+2862580Y+4742180D02*
X+2889250Y+4767580D01*
X+2915920Y+4767580D01*
X+2942590Y+4742180D01*
X+2942590Y+4716780D01*
X+2915920Y+4691380D01*
X+2889250Y+4691380D01*
X+2862580Y+4716780D01*
X+2862580Y+4742180D01*
X+2915920Y+4716780D02*
X+2942590Y+4691380D01*
X+2982595Y+4754880D02*
X+2995930Y+4767580D01*
X+3035935Y+4767580D01*
X+3049270Y+4754880D01*
X+3049270Y+4742180D01*
X+3035935Y+4729480D01*
X+2995930Y+4729480D01*
X+2982595Y+4716780D01*
X+2982595Y+4691380D01*
X+3049270Y+4691380D01*
X+3155950Y+4716780D02*
X+3075940Y+4716780D01*
X+3129280Y+4767580D01*
X+3129280Y+4691380D01*
X+3886200Y+5041900D02*
X+4394200Y+5041900D01*
X+3810000Y+5207000D02*
X+3814762Y+5168702D01*
X+3829050Y+5129212D01*
X+3852862Y+5087342D01*
X+3886200Y+5041900D01*
X+3810000Y+5207000D02*
X+3812631Y+5271918D01*
X+3829112Y+5331953D01*
X+3858039Y+5385942D01*
X+3898007Y+5432722D01*
X+3947612Y+5471131D01*
X+4005449Y+5500005D01*
X+4070113Y+5518183D01*
X+4140200Y+5524500D01*
X+4470400Y+5207000D02*
X+4465638Y+5168702D01*
X+4451350Y+5129212D01*
X+4427538Y+5087342D01*
X+4394200Y+5041900D01*
X+4470400Y+5207000D02*
X+4467769Y+5271918D01*
X+4451288Y+5331953D01*
X+4422361Y+5385942D01*
X+4382393Y+5432722D01*
X+4332788Y+5471131D01*
X+4274951Y+5500005D01*
X+4210287Y+5518183D01*
X+4140200Y+5524500D01*
X+3980180Y+5605780D02*
X+4006850Y+5631180D01*
X+4033520Y+5631180D01*
X+4060190Y+5605780D01*
X+4060190Y+5580380D01*
X+4033520Y+5554980D01*
X+4006850Y+5554980D01*
X+3980180Y+5580380D01*
X+3980180Y+5605780D01*
X+4033520Y+5580380D02*
X+4060190Y+5554980D01*
X+4100195Y+5618480D02*
X+4113530Y+5631180D01*
X+4153535Y+5631180D01*
X+4166870Y+5618480D01*
X+4166870Y+5605780D01*
X+4153535Y+5593080D01*
X+4113530Y+5593080D01*
X+4100195Y+5580380D01*
X+4100195Y+5554980D01*
X+4166870Y+5554980D01*
X+4273550Y+5631180D02*
X+4206875Y+5631180D01*
X+4206875Y+5605780D01*
X+4260215Y+5605780D01*
X+4273550Y+5593080D01*
X+4273550Y+5567680D01*
X+4260215Y+5554980D01*
X+4220210Y+5554980D01*
X+4206875Y+5567680D01*
X+393700Y+5080000D02*
X+901700Y+5080000D01*
X+317500Y+5245100D02*
X+322262Y+5206802D01*
X+336550Y+5167312D01*
X+360362Y+5125442D01*
X+393700Y+5080000D01*
X+317500Y+5245100D02*
X+320131Y+5310018D01*
X+336612Y+5370053D01*
X+365539Y+5424042D01*
X+405507Y+5470822D01*
X+455112Y+5509231D01*
X+512949Y+5538105D01*
X+577613Y+5556283D01*
X+647700Y+5562600D01*
X+977900Y+5245100D02*
X+973138Y+5206802D01*
X+958850Y+5167312D01*
X+935038Y+5125442D01*
X+901700Y+5080000D01*
X+977900Y+5245100D02*
X+975269Y+5310018D01*
X+958788Y+5370053D01*
X+929861Y+5424042D01*
X+889893Y+5470822D01*
X+840288Y+5509231D01*
X+782451Y+5538105D01*
X+717787Y+5556283D01*
X+647700Y+5562600D01*
X+487680Y+5643880D02*
X+514350Y+5669280D01*
X+541020Y+5669280D01*
X+567690Y+5643880D01*
X+567690Y+5618480D01*
X+541020Y+5593080D01*
X+514350Y+5593080D01*
X+487680Y+5618480D01*
X+487680Y+5643880D01*
X+541020Y+5618480D02*
X+567690Y+5593080D01*
X+607695Y+5656580D02*
X+621030Y+5669280D01*
X+661035Y+5669280D01*
X+674370Y+5656580D01*
X+674370Y+5643880D01*
X+661035Y+5631180D01*
X+621030Y+5631180D01*
X+607695Y+5618480D01*
X+607695Y+5593080D01*
X+674370Y+5593080D01*
X+781050Y+5656580D02*
X+767715Y+5669280D01*
X+727710Y+5669280D01*
X+714375Y+5656580D01*
X+714375Y+5605780D01*
X+727710Y+5593080D01*
X+767715Y+5593080D01*
X+781050Y+5605780D01*
X+781050Y+5618480D01*
X+767715Y+5631180D01*
X+714375Y+5631180D01*
X+2057400Y+4165600D02*
X+2565400Y+4165600D01*
X+1981200Y+4330700D02*
X+1985962Y+4292402D01*
X+2000250Y+4252912D01*
X+2024062Y+4211042D01*
X+2057400Y+4165600D01*
X+1981200Y+4330700D02*
X+1983831Y+4395618D01*
X+2000312Y+4455653D01*
X+2029239Y+4509642D01*
X+2069207Y+4556422D01*
X+2118812Y+4594831D01*
X+2176649Y+4623705D01*
X+2241313Y+4641883D01*
X+2311400Y+4648200D01*
X+2641600Y+4330700D02*
X+2636838Y+4292402D01*
X+2622550Y+4252912D01*
X+2598738Y+4211042D01*
X+2565400Y+4165600D01*
X+2641600Y+4330700D02*
X+2638969Y+4395618D01*
X+2622488Y+4455653D01*
X+2593561Y+4509642D01*
X+2553593Y+4556422D01*
X+2503988Y+4594831D01*
X+2446151Y+4623705D01*
X+2381487Y+4641883D01*
X+2311400Y+4648200D01*
X+2151380Y+4729480D02*
X+2178050Y+4754880D01*
X+2204720Y+4754880D01*
X+2231390Y+4729480D01*
X+2231390Y+4704080D01*
X+2204720Y+4678680D01*
X+2178050Y+4678680D01*
X+2151380Y+4704080D01*
X+2151380Y+4729480D01*
X+2204720Y+4704080D02*
X+2231390Y+4678680D01*
X+2271395Y+4742180D02*
X+2284730Y+4754880D01*
X+2324735Y+4754880D01*
X+2338070Y+4742180D01*
X+2338070Y+4729480D01*
X+2324735Y+4716780D01*
X+2284730Y+4716780D01*
X+2271395Y+4704080D01*
X+2271395Y+4678680D01*
X+2338070Y+4678680D01*
X+2378075Y+4754880D02*
X+2444750Y+4754880D01*
X+2444750Y+4742180D01*
X+2378075Y+4678680D01*
X+1079500Y+5041900D02*
X+1587500Y+5041900D01*
X+1003300Y+5207000D02*
X+1008062Y+5168702D01*
X+1022350Y+5129212D01*
X+1046162Y+5087342D01*
X+1079500Y+5041900D01*
X+1003300Y+5207000D02*
X+1005931Y+5271918D01*
X+1022412Y+5331953D01*
X+1051339Y+5385942D01*
X+1091307Y+5432722D01*
X+1140912Y+5471131D01*
X+1198749Y+5500005D01*
X+1263413Y+5518183D01*
X+1333500Y+5524500D01*
X+1663700Y+5207000D02*
X+1658938Y+5168702D01*
X+1644650Y+5129212D01*
X+1620838Y+5087342D01*
X+1587500Y+5041900D01*
X+1663700Y+5207000D02*
X+1661069Y+5271918D01*
X+1644588Y+5331953D01*
X+1615661Y+5385942D01*
X+1575693Y+5432722D01*
X+1526088Y+5471131D01*
X+1468251Y+5500005D01*
X+1403587Y+5518183D01*
X+1333500Y+5524500D01*
X+1173480Y+5605780D02*
X+1200150Y+5631180D01*
X+1226820Y+5631180D01*
X+1253490Y+5605780D01*
X+1253490Y+5580380D01*
X+1226820Y+5554980D01*
X+1200150Y+5554980D01*
X+1173480Y+5580380D01*
X+1173480Y+5605780D01*
X+1226820Y+5580380D02*
X+1253490Y+5554980D01*
X+1293495Y+5618480D02*
X+1306830Y+5631180D01*
X+1346835Y+5631180D01*
X+1360170Y+5618480D01*
X+1360170Y+5605780D01*
X+1346835Y+5593080D01*
X+1306830Y+5593080D01*
X+1293495Y+5580380D01*
X+1293495Y+5554980D01*
X+1360170Y+5554980D01*
X+1413510Y+5593080D02*
X+1400175Y+5605780D01*
X+1400175Y+5618480D01*
X+1413510Y+5631180D01*
X+1453515Y+5631180D01*
X+1466850Y+5618480D01*
X+1466850Y+5605780D01*
X+1453515Y+5593080D01*
X+1413510Y+5593080D01*
X+1400175Y+5580380D01*
X+1400175Y+5567680D01*
X+1413510Y+5554980D01*
X+1453515Y+5554980D01*
X+1466850Y+5567680D01*
X+1466850Y+5580380D01*
X+1453515Y+5593080D01*
X+3162300Y+5003800D02*
X+3670300Y+5003800D01*
X+3086100Y+5168900D02*
X+3090862Y+5130602D01*
X+3105150Y+5091112D01*
X+3128962Y+5049242D01*
X+3162300Y+5003800D01*
X+3086100Y+5168900D02*
X+3088731Y+5233818D01*
X+3105212Y+5293853D01*
X+3134139Y+5347842D01*
X+3174107Y+5394622D01*
X+3223712Y+5433031D01*
X+3281549Y+5461905D01*
X+3346213Y+5480083D01*
X+3416300Y+5486400D01*
X+3746500Y+5168900D02*
X+3741738Y+5130602D01*
X+3727450Y+5091112D01*
X+3703638Y+5049242D01*
X+3670300Y+5003800D01*
X+3746500Y+5168900D02*
X+3743869Y+5233818D01*
X+3727388Y+5293853D01*
X+3698461Y+5347842D01*
X+3658493Y+5394622D01*
X+3608888Y+5433031D01*
X+3551051Y+5461905D01*
X+3486387Y+5480083D01*
X+3416300Y+5486400D01*
X+3256280Y+5567680D02*
X+3282950Y+5593080D01*
X+3309620Y+5593080D01*
X+3336290Y+5567680D01*
X+3336290Y+5542280D01*
X+3309620Y+5516880D01*
X+3282950Y+5516880D01*
X+3256280Y+5542280D01*
X+3256280Y+5567680D01*
X+3309620Y+5542280D02*
X+3336290Y+5516880D01*
X+3376295Y+5580380D02*
X+3389630Y+5593080D01*
X+3429635Y+5593080D01*
X+3442970Y+5580380D01*
X+3442970Y+5567680D01*
X+3429635Y+5554980D01*
X+3389630Y+5554980D01*
X+3376295Y+5542280D01*
X+3376295Y+5516880D01*
X+3442970Y+5516880D01*
X+3549650Y+5567680D02*
X+3536315Y+5554980D01*
X+3496310Y+5554980D01*
X+3482975Y+5567680D01*
X+3482975Y+5580380D01*
X+3496310Y+5593080D01*
X+3536315Y+5593080D01*
X+3549650Y+5580380D01*
X+3549650Y+5529580D01*
X+3536315Y+5516880D01*
X+3496310Y+5516880D01*
X+1752600Y+5067300D02*
X+2260600Y+5067300D01*
X+1676400Y+5232400D02*
X+1681162Y+5194102D01*
X+1695450Y+5154612D01*
X+1719262Y+5112742D01*
X+1752600Y+5067300D01*
X+1676400Y+5232400D02*
X+1679031Y+5297318D01*
X+1695512Y+5357353D01*
X+1724439Y+5411342D01*
X+1764407Y+5458122D01*
X+1814012Y+5496531D01*
X+1871849Y+5525405D01*
X+1936513Y+5543583D01*
X+2006600Y+5549900D01*
X+2336800Y+5232400D02*
X+2332038Y+5194102D01*
X+2317750Y+5154612D01*
X+2293938Y+5112742D01*
X+2260600Y+5067300D01*
X+2336800Y+5232400D02*
X+2334169Y+5297318D01*
X+2317688Y+5357353D01*
X+2288761Y+5411342D01*
X+2248793Y+5458122D01*
X+2199188Y+5496531D01*
X+2141351Y+5525405D01*
X+2076687Y+5543583D01*
X+2006600Y+5549900D01*
X+1846580Y+5631180D02*
X+1873250Y+5656580D01*
X+1899920Y+5656580D01*
X+1926590Y+5631180D01*
X+1926590Y+5605780D01*
X+1899920Y+5580380D01*
X+1873250Y+5580380D01*
X+1846580Y+5605780D01*
X+1846580Y+5631180D01*
X+1899920Y+5605780D02*
X+1926590Y+5580380D01*
X+1966595Y+5643880D02*
X+1979930Y+5656580D01*
X+2019935Y+5656580D01*
X+2033270Y+5643880D01*
X+2033270Y+5631180D01*
X+2019935Y+5618480D01*
X+2033270Y+5605780D01*
X+2033270Y+5593080D01*
X+2019935Y+5580380D01*
X+1979930Y+5580380D01*
X+1966595Y+5593080D01*
X+1993265Y+5618480D02*
X+2019935Y+5618480D01*
X+2059940Y+5593080D02*
X+2059940Y+5643880D01*
X+2073275Y+5656580D01*
X+2126615Y+5656580D01*
X+2139950Y+5643880D01*
X+2139950Y+5593080D01*
X+2126615Y+5580380D01*
X+2073275Y+5580380D01*
X+2059940Y+5593080D01*
X+2059940Y+5580380D02*
X+2139950Y+5656580D01*
X+3454400Y+4152900D02*
X+3962400Y+4152900D01*
X+3378200Y+4318000D02*
X+3382962Y+4279702D01*
X+3397250Y+4240212D01*
X+3421062Y+4198342D01*
X+3454400Y+4152900D01*
X+3378200Y+4318000D02*
X+3380831Y+4382918D01*
X+3397312Y+4442953D01*
X+3426239Y+4496942D01*
X+3466207Y+4543722D01*
X+3515812Y+4582131D01*
X+3573649Y+4611005D01*
X+3638313Y+4629183D01*
X+3708400Y+4635500D01*
X+4038600Y+4318000D02*
X+4033838Y+4279702D01*
X+4019550Y+4240212D01*
X+3995738Y+4198342D01*
X+3962400Y+4152900D01*
X+4038600Y+4318000D02*
X+4035969Y+4382918D01*
X+4019488Y+4442953D01*
X+3990561Y+4496942D01*
X+3950593Y+4543722D01*
X+3900988Y+4582131D01*
X+3843151Y+4611005D01*
X+3778487Y+4629183D01*
X+3708400Y+4635500D01*
X+3548380Y+4716780D02*
X+3575050Y+4742180D01*
X+3601720Y+4742180D01*
X+3628390Y+4716780D01*
X+3628390Y+4691380D01*
X+3601720Y+4665980D01*
X+3575050Y+4665980D01*
X+3548380Y+4691380D01*
X+3548380Y+4716780D01*
X+3601720Y+4691380D02*
X+3628390Y+4665980D01*
X+3668395Y+4729480D02*
X+3681730Y+4742180D01*
X+3721735Y+4742180D01*
X+3735070Y+4729480D01*
X+3735070Y+4716780D01*
X+3721735Y+4704080D01*
X+3735070Y+4691380D01*
X+3735070Y+4678680D01*
X+3721735Y+4665980D01*
X+3681730Y+4665980D01*
X+3668395Y+4678680D01*
X+3695065Y+4704080D02*
X+3721735Y+4704080D01*
X+3788410Y+4716780D02*
X+3815080Y+4742180D01*
X+3815080Y+4665980D01*
X+2438400Y+5016500D02*
X+2946400Y+5016500D01*
X+2362200Y+5181600D02*
X+2366962Y+5143302D01*
X+2381250Y+5103812D01*
X+2405062Y+5061942D01*
X+2438400Y+5016500D01*
X+2362200Y+5181600D02*
X+2364831Y+5246518D01*
X+2381312Y+5306553D01*
X+2410239Y+5360542D01*
X+2450207Y+5407322D01*
X+2499812Y+5445731D01*
X+2557649Y+5474605D01*
X+2622313Y+5492783D01*
X+2692400Y+5499100D01*
X+3022600Y+5181600D02*
X+3017838Y+5143302D01*
X+3003550Y+5103812D01*
X+2979738Y+5061942D01*
X+2946400Y+5016500D01*
X+3022600Y+5181600D02*
X+3019969Y+5246518D01*
X+3003488Y+5306553D01*
X+2974561Y+5360542D01*
X+2934593Y+5407322D01*
X+2884988Y+5445731D01*
X+2827151Y+5474605D01*
X+2762487Y+5492783D01*
X+2692400Y+5499100D01*
X+2532380Y+5580380D02*
X+2559050Y+5605780D01*
X+2585720Y+5605780D01*
X+2612390Y+5580380D01*
X+2612390Y+5554980D01*
X+2585720Y+5529580D01*
X+2559050Y+5529580D01*
X+2532380Y+5554980D01*
X+2532380Y+5580380D01*
X+2585720Y+5554980D02*
X+2612390Y+5529580D01*
X+2652395Y+5593080D02*
X+2665730Y+5605780D01*
X+2705735Y+5605780D01*
X+2719070Y+5593080D01*
X+2719070Y+5580380D01*
X+2705735Y+5567680D01*
X+2719070Y+5554980D01*
X+2719070Y+5542280D01*
X+2705735Y+5529580D01*
X+2665730Y+5529580D01*
X+2652395Y+5542280D01*
X+2679065Y+5567680D02*
X+2705735Y+5567680D01*
X+2759075Y+5593080D02*
X+2772410Y+5605780D01*
X+2812415Y+5605780D01*
X+2825750Y+5593080D01*
X+2825750Y+5580380D01*
X+2812415Y+5567680D01*
X+2772410Y+5567680D01*
X+2759075Y+5554980D01*
X+2759075Y+5529580D01*
X+2825750Y+5529580D01*
D36*
X+11875200Y+4502300D02*
X+11845200Y+4502300D01*
X+11875200Y+4362300D02*
X+11845200Y+4362300D01*
D34*
X+11753520Y+4250700D02*
X+11753520Y+4326900D01*
X+11820195Y+4326900D01*
X+11833530Y+4314200D01*
X+11833530Y+4301500D01*
X+11820195Y+4288800D01*
X+11753520Y+4288800D01*
X+11820195Y+4288800D02*
X+11833530Y+4276100D01*
X+11833530Y+4250700D01*
X+11886870Y+4301500D02*
X+11913540Y+4326900D01*
X+11913540Y+4250700D01*
D38*
X+1162200Y+5956300D02*
X+1162069Y+5959458D01*
X+1161003Y+5965776D01*
X+1158772Y+5972094D01*
X+1155127Y+5978412D01*
X+1149552Y+5984651D01*
X+1143234Y+5989247D01*
X+1136916Y+5992180D01*
X+1130598Y+5993842D01*
X+1124280Y+5994400D01*
X+1124100Y+5994400D01*
X+1086000Y+5956300D02*
X+1086131Y+5959458D01*
X+1087197Y+5965776D01*
X+1089428Y+5972094D01*
X+1093073Y+5978412D01*
X+1098648Y+5984651D01*
X+1104966Y+5989247D01*
X+1111284Y+5992180D01*
X+1117602Y+5993842D01*
X+1123920Y+5994400D01*
X+1124100Y+5994400D01*
X+1086000Y+5956300D02*
X+1086131Y+5953142D01*
X+1087197Y+5946824D01*
X+1089428Y+5940506D01*
X+1093073Y+5934188D01*
X+1098648Y+5927949D01*
X+1104966Y+5923353D01*
X+1111284Y+5920420D01*
X+1117602Y+5918758D01*
X+1123920Y+5918200D01*
X+1124100Y+5918200D01*
X+1162200Y+5956300D02*
X+1162069Y+5953142D01*
X+1161003Y+5946824D01*
X+1158772Y+5940506D01*
X+1155127Y+5934188D01*
X+1149552Y+5927949D01*
X+1143234Y+5923353D01*
X+1136916Y+5920420D01*
X+1130598Y+5918758D01*
X+1124280Y+5918200D01*
X+1124100Y+5918200D01*
D39*
X+974090Y+6046140D02*
X+1101693Y+6046140D01*
X+3674110Y+6046140D02*
X+3674110Y+6246800D01*
X+3549291Y+6246800D01*
X+974090Y+6246800D02*
X+974090Y+6046140D01*
X+3546507Y+6046140D02*
X+3674110Y+6046140D01*
X+3498909Y+6246800D02*
X+3349291Y+6246800D01*
X+3346507Y+6046140D02*
X+3501693Y+6046140D01*
X+3298909Y+6246800D02*
X+3149291Y+6246800D01*
X+3146507Y+6046140D02*
X+3301693Y+6046140D01*
X+3098909Y+6246800D02*
X+2949291Y+6246800D01*
X+2946507Y+6046140D02*
X+3101693Y+6046140D01*
X+2898909Y+6246800D02*
X+2749291Y+6246800D01*
X+2746507Y+6046140D02*
X+2901693Y+6046140D01*
X+2698909Y+6246800D02*
X+2549291Y+6246800D01*
X+2546507Y+6046140D02*
X+2701693Y+6046140D01*
X+2498909Y+6246800D02*
X+2349291Y+6246800D01*
X+2346507Y+6046140D02*
X+2501693Y+6046140D01*
X+2298909Y+6246800D02*
X+2149291Y+6246800D01*
X+2146507Y+6046140D02*
X+2301693Y+6046140D01*
X+2098909Y+6246800D02*
X+1949291Y+6246800D01*
X+1946507Y+6046140D02*
X+2101693Y+6046140D01*
X+1898909Y+6246800D02*
X+1749291Y+6246800D01*
X+1746507Y+6046140D02*
X+1901693Y+6046140D01*
X+1698909Y+6246800D02*
X+1549291Y+6246800D01*
X+1546507Y+6046140D02*
X+1701693Y+6046140D01*
X+1498909Y+6246800D02*
X+1349291Y+6246800D01*
X+1346507Y+6046140D02*
X+1501693Y+6046140D01*
X+1298909Y+6246800D02*
X+1149291Y+6246800D01*
X+1098909Y+6246800D02*
X+974090Y+6246800D01*
X+1146507Y+6046140D02*
X+1301693Y+6046140D01*
D34*
X+2217420Y+6305220D02*
X+2217420Y+6292520D01*
X+2230755Y+6279820D01*
X+2284095Y+6279820D01*
X+2297430Y+6292520D01*
X+2297430Y+6356020D01*
X+2337435Y+6343320D02*
X+2350770Y+6356020D01*
X+2390775Y+6356020D01*
X+2404110Y+6343320D01*
X+2404110Y+6330620D01*
X+2390775Y+6317920D01*
X+2350770Y+6317920D01*
X+2337435Y+6305220D01*
X+2337435Y+6279820D01*
X+2404110Y+6279820D01*
D38*
X+1174900Y+3289300D02*
X+1174769Y+3292458D01*
X+1173703Y+3298776D01*
X+1171472Y+3305094D01*
X+1167827Y+3311412D01*
X+1162252Y+3317651D01*
X+1155934Y+3322247D01*
X+1149616Y+3325180D01*
X+1143298Y+3326842D01*
X+1136980Y+3327400D01*
X+1136800Y+3327400D01*
X+1098700Y+3289300D02*
X+1098831Y+3292458D01*
X+1099897Y+3298776D01*
X+1102128Y+3305094D01*
X+1105773Y+3311412D01*
X+1111348Y+3317651D01*
X+1117666Y+3322247D01*
X+1123984Y+3325180D01*
X+1130302Y+3326842D01*
X+1136620Y+3327400D01*
X+1136800Y+3327400D01*
X+1098700Y+3289300D02*
X+1098831Y+3286142D01*
X+1099897Y+3279824D01*
X+1102128Y+3273506D01*
X+1105773Y+3267188D01*
X+1111348Y+3260949D01*
X+1117666Y+3256353D01*
X+1123984Y+3253420D01*
X+1130302Y+3251758D01*
X+1136620Y+3251200D01*
X+1136800Y+3251200D01*
X+1174900Y+3289300D02*
X+1174769Y+3286142D01*
X+1173703Y+3279824D01*
X+1171472Y+3273506D01*
X+1167827Y+3267188D01*
X+1162252Y+3260949D01*
X+1155934Y+3256353D01*
X+1149616Y+3253420D01*
X+1143298Y+3251758D01*
X+1136980Y+3251200D01*
X+1136800Y+3251200D01*
D39*
X+986790Y+3379140D02*
X+1114393Y+3379140D01*
X+3686810Y+3379140D02*
X+3686810Y+3579800D01*
X+3561991Y+3579800D01*
X+986790Y+3579800D02*
X+986790Y+3379140D01*
X+3559207Y+3379140D02*
X+3686810Y+3379140D01*
X+3511609Y+3579800D02*
X+3361991Y+3579800D01*
X+3359207Y+3379140D02*
X+3514393Y+3379140D01*
X+3311609Y+3579800D02*
X+3161991Y+3579800D01*
X+3159207Y+3379140D02*
X+3314393Y+3379140D01*
X+3111609Y+3579800D02*
X+2961991Y+3579800D01*
X+2959207Y+3379140D02*
X+3114393Y+3379140D01*
X+2911609Y+3579800D02*
X+2761991Y+3579800D01*
X+2759207Y+3379140D02*
X+2914393Y+3379140D01*
X+2711609Y+3579800D02*
X+2561991Y+3579800D01*
X+2559207Y+3379140D02*
X+2714393Y+3379140D01*
X+2511609Y+3579800D02*
X+2361991Y+3579800D01*
X+2359207Y+3379140D02*
X+2514393Y+3379140D01*
X+2311609Y+3579800D02*
X+2161991Y+3579800D01*
X+2159207Y+3379140D02*
X+2314393Y+3379140D01*
X+2111609Y+3579800D02*
X+1961991Y+3579800D01*
X+1959207Y+3379140D02*
X+2114393Y+3379140D01*
X+1911609Y+3579800D02*
X+1761991Y+3579800D01*
X+1759207Y+3379140D02*
X+1914393Y+3379140D01*
X+1711609Y+3579800D02*
X+1561991Y+3579800D01*
X+1559207Y+3379140D02*
X+1714393Y+3379140D01*
X+1511609Y+3579800D02*
X+1361991Y+3579800D01*
X+1359207Y+3379140D02*
X+1514393Y+3379140D01*
X+1311609Y+3579800D02*
X+1161991Y+3579800D01*
X+1111609Y+3579800D02*
X+986790Y+3579800D01*
X+1159207Y+3379140D02*
X+1314393Y+3379140D01*
D34*
X+2230120Y+3638220D02*
X+2230120Y+3625520D01*
X+2243455Y+3612820D01*
X+2296795Y+3612820D01*
X+2310130Y+3625520D01*
X+2310130Y+3689020D01*
X+2416810Y+3689020D02*
X+2350135Y+3689020D01*
X+2350135Y+3663620D01*
X+2403475Y+3663620D01*
X+2416810Y+3650920D01*
X+2416810Y+3625520D01*
X+2403475Y+3612820D01*
X+2363470Y+3612820D01*
X+2350135Y+3625520D01*
X+1168400Y+3098800D02*
X+1041400Y+3098800D01*
X+533400Y+3035300D02*
X+1041400Y+3035300D01*
X+1041400Y+3162300D01*
X+533400Y+3162300D01*
X+533400Y+3035300D01*
X+533400Y+3098800D02*
X+406400Y+3098800D01*
X+680720Y+2928620D02*
X+680720Y+3004820D01*
X+747395Y+3004820D01*
X+760730Y+2992120D01*
X+760730Y+2979420D01*
X+747395Y+2966720D01*
X+680720Y+2966720D01*
X+747395Y+2966720D02*
X+760730Y+2954020D01*
X+760730Y+2928620D01*
X+867410Y+2954020D02*
X+787400Y+2954020D01*
X+840740Y+3004820D01*
X+840740Y+2928620D01*
X+139700Y+6032500D02*
X+139700Y+5905500D01*
X+76200Y+5397500D02*
X+203200Y+5397500D01*
X+203200Y+5905500D01*
X+76200Y+5905500D01*
X+76200Y+5397500D01*
X+139700Y+5397500D02*
X+139700Y+5270500D01*
X+309880Y+5544820D02*
X+233680Y+5544820D01*
X+233680Y+5611495D01*
X+246380Y+5624830D01*
X+259080Y+5624830D01*
X+271780Y+5611495D01*
X+271780Y+5544820D01*
X+271780Y+5611495D02*
X+284480Y+5624830D01*
X+309880Y+5624830D01*
X+246380Y+5664835D02*
X+233680Y+5678170D01*
X+233680Y+5718175D01*
X+246380Y+5731510D01*
X+259080Y+5731510D01*
X+271780Y+5718175D01*
X+284480Y+5731510D01*
X+297180Y+5731510D01*
X+309880Y+5718175D01*
X+309880Y+5678170D01*
X+297180Y+5664835D01*
X+271780Y+5691505D02*
X+271780Y+5718175D01*
X+11049000Y+1676400D02*
X+11176000Y+1676400D01*
X+11176000Y+1612900D02*
X+11684000Y+1612900D01*
X+11684000Y+1739900D01*
X+11176000Y+1739900D01*
X+11176000Y+1612900D01*
X+11684000Y+1676400D02*
X+11811000Y+1676400D01*
X+11323320Y+1770380D02*
X+11323320Y+1846580D01*
X+11389995Y+1846580D01*
X+11403330Y+1833880D01*
X+11403330Y+1821180D01*
X+11389995Y+1808480D01*
X+11323320Y+1808480D01*
X+11389995Y+1808480D02*
X+11403330Y+1795780D01*
X+11403330Y+1770380D01*
X+11443335Y+1846580D02*
X+11510010Y+1846580D01*
X+11510010Y+1833880D01*
X+11443335Y+1770380D01*
D35*
X+11045800Y+2019300D02*
X+11045140Y+2035539D01*
X+11039775Y+2068019D01*
X+11028575Y+2100499D01*
X+11010351Y+2132979D01*
X+10982484Y+2165305D01*
X+10950004Y+2190009D01*
X+10917524Y+2205997D01*
X+10885044Y+2215412D01*
X+10852564Y+2219186D01*
X+10845800Y+2219300D01*
X+10645800Y+2019300D02*
X+10646460Y+2035539D01*
X+10651825Y+2068019D01*
X+10663025Y+2100499D01*
X+10681249Y+2132979D01*
X+10709116Y+2165305D01*
X+10741596Y+2190009D01*
X+10774076Y+2205997D01*
X+10806556Y+2215412D01*
X+10839036Y+2219186D01*
X+10845800Y+2219300D01*
X+10645800Y+2019300D02*
X+10646460Y+2003061D01*
X+10651825Y+1970581D01*
X+10663025Y+1938101D01*
X+10681249Y+1905621D01*
X+10709116Y+1873295D01*
X+10741596Y+1848591D01*
X+10774076Y+1832603D01*
X+10806556Y+1823188D01*
X+10839036Y+1819414D01*
X+10845800Y+1819300D01*
X+11045800Y+2019300D02*
X+11045140Y+2003061D01*
X+11039775Y+1970581D01*
X+11028575Y+1938101D01*
X+11010351Y+1905621D01*
X+10982484Y+1873295D01*
X+10950004Y+1848591D01*
X+10917524Y+1832603D01*
X+10885044Y+1823188D01*
X+10852564Y+1819414D01*
X+10845800Y+1819300D01*
D36*
X+11019800Y+1855300D02*
X+11019765Y+1856131D01*
X+11019484Y+1857795D01*
X+11018894Y+1859459D01*
X+11017930Y+1861123D01*
X+11016455Y+1862764D01*
X+11014791Y+1863965D01*
X+11013127Y+1864730D01*
X+11011463Y+1865161D01*
X+11009800Y+1865300D01*
X+10999800Y+1855300D02*
X+10999835Y+1856131D01*
X+11000116Y+1857795D01*
X+11000706Y+1859459D01*
X+11001670Y+1861123D01*
X+11003145Y+1862764D01*
X+11004809Y+1863965D01*
X+11006473Y+1864730D01*
X+11008137Y+1865161D01*
X+11009800Y+1865300D01*
X+10999800Y+1855300D02*
X+10999835Y+1854469D01*
X+11000116Y+1852805D01*
X+11000706Y+1851141D01*
X+11001670Y+1849477D01*
X+11003145Y+1847836D01*
X+11004809Y+1846635D01*
X+11006473Y+1845870D01*
X+11008137Y+1845439D01*
X+11009800Y+1845300D01*
X+11019800Y+1855300D02*
X+11019765Y+1854469D01*
X+11019484Y+1852805D01*
X+11018894Y+1851141D01*
X+11017930Y+1849477D01*
X+11016455Y+1847836D01*
X+11014791Y+1846635D01*
X+11013127Y+1845870D01*
X+11011463Y+1845439D01*
X+11009800Y+1845300D01*
D34*
X+10765790Y+1724400D02*
X+10752455Y+1711700D01*
X+10712450Y+1711700D01*
X+10685780Y+1737100D01*
X+10685780Y+1762500D01*
X+10712450Y+1787900D01*
X+10752455Y+1787900D01*
X+10765790Y+1775200D01*
X+10819130Y+1762500D02*
X+10845800Y+1787900D01*
X+10845800Y+1711700D01*
X+10899140Y+1724400D02*
X+10899140Y+1775200D01*
X+10912475Y+1787900D01*
X+10965815Y+1787900D01*
X+10979150Y+1775200D01*
X+10979150Y+1724400D01*
X+10965815Y+1711700D01*
X+10912475Y+1711700D01*
X+10899140Y+1724400D01*
X+10899140Y+1711700D02*
X+10979150Y+1787900D01*
X+12153900Y+4876800D02*
X+12153900Y+4749800D01*
X+12090400Y+4241800D02*
X+12217400Y+4241800D01*
X+12217400Y+4749800D01*
X+12090400Y+4749800D01*
X+12090400Y+4241800D01*
X+12153900Y+4241800D02*
X+12153900Y+4114800D01*
X+12324080Y+4389120D02*
X+12247880Y+4389120D01*
X+12247880Y+4455795D01*
X+12260580Y+4469130D01*
X+12273280Y+4469130D01*
X+12285980Y+4455795D01*
X+12285980Y+4389120D01*
X+12285980Y+4455795D02*
X+12298680Y+4469130D01*
X+12324080Y+4469130D01*
X+12273280Y+4575810D02*
X+12285980Y+4562475D01*
X+12285980Y+4522470D01*
X+12273280Y+4509135D01*
X+12260580Y+4509135D01*
X+12247880Y+4522470D01*
X+12247880Y+4562475D01*
X+12260580Y+4575810D01*
X+12311380Y+4575810D01*
X+12324080Y+4562475D01*
X+12324080Y+4522470D01*
X+458800Y+5780900D02*
X+708800Y+5780900D01*
X+708800Y+6580900D01*
X+408800Y+6580900D01*
X+408800Y+5780900D01*
X+458800Y+5780900D01*
X+261620Y+6412230D02*
X+274320Y+6398895D01*
X+274320Y+6358890D01*
X+248920Y+6332220D01*
X+223520Y+6332220D01*
X+198120Y+6358890D01*
X+198120Y+6398895D01*
X+210820Y+6412230D01*
X+236220Y+6465570D02*
X+223520Y+6452235D01*
X+210820Y+6452235D01*
X+198120Y+6465570D01*
X+198120Y+6505575D01*
X+210820Y+6518910D01*
X+223520Y+6518910D01*
X+236220Y+6505575D01*
X+236220Y+6465570D01*
X+248920Y+6452235D01*
X+261620Y+6452235D01*
X+274320Y+6465570D01*
X+274320Y+6505575D01*
X+261620Y+6518910D01*
X+248920Y+6518910D01*
X+236220Y+6505575D01*
X+12179300Y+8521700D02*
X+12179300Y+7505700D01*
X+13195300Y+8521700D02*
X+13195300Y+7505700D01*
X+12179300Y+7505700D02*
X+13195300Y+7505700D01*
X+12179300Y+8521700D02*
X+13195300Y+8521700D01*
X+12580620Y+8577580D02*
X+12580620Y+8564880D01*
X+12593955Y+8552180D01*
X+12647295Y+8552180D01*
X+12660630Y+8564880D01*
X+12660630Y+8628380D01*
X+12700635Y+8615680D02*
X+12713970Y+8628380D01*
X+12753975Y+8628380D01*
X+12767310Y+8615680D01*
X+12767310Y+8602980D01*
X+12753975Y+8590280D01*
X+12767310Y+8577580D01*
X+12767310Y+8564880D01*
X+12753975Y+8552180D01*
X+12713970Y+8552180D01*
X+12700635Y+8564880D01*
X+12727305Y+8590280D02*
X+12753975Y+8590280D01*
D40*
X+300000Y+1509080D02*
X+300000Y+1250000D01*
X+442875Y+990920D01*
X+585750Y+1250000D01*
X+585750Y+1509080D01*
X+776250Y+1336360D02*
X+871500Y+1509080D01*
X+871500Y+990920D01*
X+1204875Y+1077280D02*
X+1252500Y+1077280D01*
X+1252500Y+990920D01*
X+1204875Y+990920D01*
X+1204875Y+1077280D01*
X+1538250Y+1336360D02*
X+1633500Y+1509080D01*
X+1633500Y+990920D01*
X+8201600Y+8451880D02*
X+8252400Y+8451880D01*
X+8252400Y+8385840D01*
X+8150800Y+8385840D01*
X+8100000Y+8451880D01*
X+8100000Y+8517920D01*
X+8150800Y+8583960D01*
X+8227000Y+8583960D01*
X+8252400Y+8550940D01*
X+8379400Y+8517920D02*
X+8379400Y+8385840D01*
X+8379400Y+8583960D02*
X+8379400Y+8583960D01*
X+8531800Y+8583960D02*
X+8531800Y+8418860D01*
X+8557200Y+8385840D01*
X+8633400Y+8385840D01*
X+8658800Y+8418860D01*
X+8506400Y+8517920D02*
X+8633400Y+8517920D01*
X+8862000Y+8385840D02*
X+8862000Y+8484900D01*
X+8836600Y+8517920D01*
X+8735000Y+8517920D01*
X+8709600Y+8484900D01*
X+8709600Y+8583960D02*
X+8709600Y+8385840D01*
X+8912800Y+8517920D02*
X+8912800Y+8418860D01*
X+8938200Y+8385840D01*
X+9039800Y+8385840D01*
X+9065200Y+8418860D01*
X+9065200Y+8385840D02*
X+9065200Y+8517920D01*
X+9116000Y+8484900D02*
X+9141400Y+8517920D01*
X+9243000Y+8517920D01*
X+9268400Y+8484900D01*
X+9268400Y+8418860D01*
X+9243000Y+8385840D01*
X+9141400Y+8385840D01*
X+9116000Y+8418860D01*
X+9116000Y+8385840D02*
X+9116000Y+8583960D01*
X+9649400Y+8385840D02*
X+9547800Y+8385840D01*
X+9522400Y+8418860D01*
X+9522400Y+8550940D01*
X+9547800Y+8583960D01*
X+9649400Y+8583960D01*
X+9674800Y+8550940D01*
X+9674800Y+8451880D01*
X+9598600Y+8451880D01*
X+9598600Y+8517920D01*
X+9649400Y+8517920D01*
X+9725600Y+8583960D02*
X+9725600Y+8385840D01*
X+9878000Y+8583960D02*
X+9801800Y+8484900D01*
X+9878000Y+8385840D01*
X+9725600Y+8484900D02*
X+9801800Y+8484900D01*
X+9928800Y+8451880D02*
X+10081200Y+8451880D01*
X+10081200Y+8484900D01*
X+10055800Y+8517920D01*
X+9954200Y+8517920D01*
X+9928800Y+8484900D01*
X+9928800Y+8418860D01*
X+9954200Y+8385840D01*
X+10055800Y+8385840D01*
X+10157400Y+8583960D02*
X+10157400Y+8418860D01*
X+10182800Y+8385840D01*
X+10259000Y+8385840D01*
X+10284400Y+8418860D01*
X+10132000Y+8517920D02*
X+10259000Y+8517920D01*
X+10335200Y+8484900D02*
X+10360600Y+8517920D01*
X+10462200Y+8517920D01*
X+10487600Y+8484900D01*
X+10487600Y+8418860D01*
X+10462200Y+8385840D01*
X+10360600Y+8385840D01*
X+10335200Y+8418860D01*
X+10335200Y+8484900D01*
X+10538400Y+8385840D02*
X+10538400Y+8517920D01*
X+10538400Y+8484900D02*
X+10563800Y+8517920D01*
X+10665400Y+8517920D01*
X+10690800Y+8484900D01*
X+10690800Y+8385840D01*
X+10741600Y+8583960D02*
X+10741600Y+8385840D01*
X+10741600Y+8418860D02*
X+10894000Y+8517920D01*
X+10792400Y+8451880D02*
X+10894000Y+8385840D01*
X+10944800Y+8451880D02*
X+11097200Y+8451880D01*
X+11097200Y+8484900D01*
X+11071800Y+8517920D01*
X+10970200Y+8517920D01*
X+10944800Y+8484900D01*
X+10944800Y+8418860D01*
X+10970200Y+8385840D01*
X+11071800Y+8385840D01*
X+11148000Y+8583960D02*
X+11148000Y+8385840D01*
X+11148000Y+8418860D02*
X+11300400Y+8517920D01*
X+11198800Y+8451880D02*
X+11300400Y+8385840D01*
X+11351200Y+8484900D02*
X+11376600Y+8517920D01*
X+11478200Y+8517920D01*
X+11503600Y+8484900D01*
X+11503600Y+8418860D01*
X+11478200Y+8385840D01*
X+11376600Y+8385840D01*
X+11351200Y+8418860D01*
X+11351200Y+8484900D01*
M02*
