G04 PROTEUS GERBER X2 FILE*
%TF.GenerationSoftware,Labcenter,Proteus,8.17-SP2-Build37159*%
%TF.CreationDate,2025-02-23T13:52:33+00:00*%
%TF.FileFunction,AssemblyDrawing,Bot*%
%TF.FilePolarity,Positive*%
%TF.Part,Single*%
%TF.SameCoordinates,{f5fd30df-bfb1-41d0-8757-df29ac62e929}*%
%FSLAX45Y45*%
%MOMM*%
G01*
%TA.AperFunction,Profile*%
%ADD73C,0.101600*%
%TA.AperFunction,Material*%
%ADD34C,0.101600*%
%ADD67C,1.028700*%
%ADD68C,0.106210*%
%ADD48C,0.050000*%
%ADD60C,0.721360*%
%ADD61C,0.110420*%
%ADD69C,0.548640*%
%ADD74C,0.228150*%
%TD.AperFunction*%
D73*
X+0Y+635000D02*
X+14900000Y+635000D01*
X+14900000Y+8835000D01*
X+0Y+635000D02*
X+0Y+8835000D01*
X+14900000Y+8835000D01*
D34*
X+12465380Y+2342850D02*
X+12734620Y+2342850D01*
X+12734620Y+2782270D01*
X+12465380Y+2782270D01*
X+12465380Y+2342850D01*
D67*
X+12600000Y+2725120D02*
X+12600000Y+2725120D01*
D68*
X+12568136Y+2603860D02*
X+12631865Y+2603860D01*
X+12631865Y+2532166D01*
X+12589379Y+2484370D02*
X+12568136Y+2460472D01*
X+12631865Y+2460472D01*
D48*
X+5241200Y+4888800D02*
X+4781200Y+4888800D01*
X+4781200Y+5118800D01*
X+5241200Y+5118800D01*
X+5241200Y+4888800D01*
X+5011200Y+5053800D02*
X+5011200Y+4953800D01*
X+4961200Y+5003800D02*
X+5061200Y+5003800D01*
D60*
X+5156200Y+5003800D02*
X+5156200Y+5003800D01*
D61*
X+5098487Y+4970672D02*
X+5098487Y+5036927D01*
X+5036374Y+5036927D01*
X+5023952Y+5025884D01*
X+5023952Y+5014842D01*
X+5036374Y+5003800D01*
X+5098487Y+5003800D01*
X+5036374Y+5003800D02*
X+5023952Y+4992757D01*
X+5023952Y+4970672D01*
X+4974261Y+5014842D02*
X+4949416Y+5036927D01*
X+4949416Y+4970672D01*
X+4874880Y+5014842D02*
X+4850035Y+5036927D01*
X+4850035Y+4970672D01*
D48*
X+5253900Y+5155500D02*
X+4793900Y+5155500D01*
X+4793900Y+5385500D01*
X+5253900Y+5385500D01*
X+5253900Y+5155500D01*
X+5023900Y+5320500D02*
X+5023900Y+5220500D01*
X+4973900Y+5270500D02*
X+5073900Y+5270500D01*
D60*
X+5168900Y+5270500D02*
X+5168900Y+5270500D01*
D61*
X+5111187Y+5237372D02*
X+5111187Y+5303627D01*
X+5049074Y+5303627D01*
X+5036652Y+5292584D01*
X+5036652Y+5281542D01*
X+5049074Y+5270500D01*
X+5111187Y+5270500D01*
X+5049074Y+5270500D02*
X+5036652Y+5259457D01*
X+5036652Y+5237372D01*
X+4986961Y+5281542D02*
X+4962116Y+5303627D01*
X+4962116Y+5237372D01*
X+4900003Y+5292584D02*
X+4887580Y+5303627D01*
X+4850312Y+5303627D01*
X+4837890Y+5292584D01*
X+4837890Y+5281542D01*
X+4850312Y+5270500D01*
X+4837890Y+5259457D01*
X+4837890Y+5248415D01*
X+4850312Y+5237372D01*
X+4887580Y+5237372D01*
X+4900003Y+5248415D01*
X+4875158Y+5270500D02*
X+4850312Y+5270500D01*
D48*
X+5253900Y+5384100D02*
X+4793900Y+5384100D01*
X+4793900Y+5614100D01*
X+5253900Y+5614100D01*
X+5253900Y+5384100D01*
X+5023900Y+5549100D02*
X+5023900Y+5449100D01*
X+4973900Y+5499100D02*
X+5073900Y+5499100D01*
D60*
X+5168900Y+5499100D02*
X+5168900Y+5499100D01*
D61*
X+5111187Y+5465972D02*
X+5111187Y+5532227D01*
X+5049074Y+5532227D01*
X+5036652Y+5521184D01*
X+5036652Y+5510142D01*
X+5049074Y+5499100D01*
X+5111187Y+5499100D01*
X+5049074Y+5499100D02*
X+5036652Y+5488057D01*
X+5036652Y+5465972D01*
X+4986961Y+5510142D02*
X+4962116Y+5532227D01*
X+4962116Y+5465972D01*
X+4837890Y+5532227D02*
X+4900003Y+5532227D01*
X+4900003Y+5510142D01*
X+4850312Y+5510142D01*
X+4837890Y+5499100D01*
X+4837890Y+5477015D01*
X+4850312Y+5465972D01*
X+4887580Y+5465972D01*
X+4900003Y+5477015D01*
D48*
X+5890400Y+3635000D02*
X+5430400Y+3635000D01*
X+5430400Y+3865000D01*
X+5890400Y+3865000D01*
X+5890400Y+3635000D01*
X+5660400Y+3800000D02*
X+5660400Y+3700000D01*
X+5610400Y+3750000D02*
X+5710400Y+3750000D01*
D60*
X+5805400Y+3750000D02*
X+5805400Y+3750000D01*
D61*
X+5747687Y+3716872D02*
X+5747687Y+3783127D01*
X+5685574Y+3783127D01*
X+5673152Y+3772084D01*
X+5673152Y+3761042D01*
X+5685574Y+3750000D01*
X+5747687Y+3750000D01*
X+5685574Y+3750000D02*
X+5673152Y+3738957D01*
X+5673152Y+3716872D01*
X+5623461Y+3761042D02*
X+5598616Y+3783127D01*
X+5598616Y+3716872D01*
X+5474390Y+3772084D02*
X+5486812Y+3783127D01*
X+5524080Y+3783127D01*
X+5536503Y+3772084D01*
X+5536503Y+3727915D01*
X+5524080Y+3716872D01*
X+5486812Y+3716872D01*
X+5474390Y+3727915D01*
X+5474390Y+3738957D01*
X+5486812Y+3750000D01*
X+5536503Y+3750000D01*
D48*
X+5241200Y+4647500D02*
X+4781200Y+4647500D01*
X+4781200Y+4877500D01*
X+5241200Y+4877500D01*
X+5241200Y+4647500D01*
X+5011200Y+4812500D02*
X+5011200Y+4712500D01*
X+4961200Y+4762500D02*
X+5061200Y+4762500D01*
D60*
X+5156200Y+4762500D02*
X+5156200Y+4762500D01*
D61*
X+5098487Y+4729372D02*
X+5098487Y+4795627D01*
X+5036374Y+4795627D01*
X+5023952Y+4784584D01*
X+5023952Y+4773542D01*
X+5036374Y+4762500D01*
X+5098487Y+4762500D01*
X+5036374Y+4762500D02*
X+5023952Y+4751457D01*
X+5023952Y+4729372D01*
X+4974261Y+4773542D02*
X+4949416Y+4795627D01*
X+4949416Y+4729372D01*
X+4887303Y+4795627D02*
X+4825190Y+4795627D01*
X+4825190Y+4784584D01*
X+4887303Y+4729372D01*
D48*
X+7506400Y+3448400D02*
X+7506400Y+2988400D01*
X+7276400Y+2988400D01*
X+7276400Y+3448400D01*
X+7506400Y+3448400D01*
X+7341400Y+3218400D02*
X+7441400Y+3218400D01*
X+7391400Y+3168400D02*
X+7391400Y+3268400D01*
D60*
X+7391400Y+3363400D02*
X+7391400Y+3363400D01*
D61*
X+7424528Y+3305687D02*
X+7358273Y+3305687D01*
X+7358273Y+3243574D01*
X+7369316Y+3231152D01*
X+7380358Y+3231152D01*
X+7391400Y+3243574D01*
X+7391400Y+3305687D01*
X+7391400Y+3243574D02*
X+7402443Y+3231152D01*
X+7424528Y+3231152D01*
X+7380358Y+3181461D02*
X+7358273Y+3156616D01*
X+7424528Y+3156616D01*
X+7391400Y+3082080D02*
X+7380358Y+3094503D01*
X+7369316Y+3094503D01*
X+7358273Y+3082080D01*
X+7358273Y+3044812D01*
X+7369316Y+3032390D01*
X+7380358Y+3032390D01*
X+7391400Y+3044812D01*
X+7391400Y+3082080D01*
X+7402443Y+3094503D01*
X+7413485Y+3094503D01*
X+7424528Y+3082080D01*
X+7424528Y+3044812D01*
X+7413485Y+3032390D01*
X+7402443Y+3032390D01*
X+7391400Y+3044812D01*
D48*
X+5890400Y+3885000D02*
X+5430400Y+3885000D01*
X+5430400Y+4115000D01*
X+5890400Y+4115000D01*
X+5890400Y+3885000D01*
X+5660400Y+4050000D02*
X+5660400Y+3950000D01*
X+5610400Y+4000000D02*
X+5710400Y+4000000D01*
D60*
X+5805400Y+4000000D02*
X+5805400Y+4000000D01*
D61*
X+5747687Y+3966872D02*
X+5747687Y+4033127D01*
X+5685574Y+4033127D01*
X+5673152Y+4022084D01*
X+5673152Y+4011042D01*
X+5685574Y+4000000D01*
X+5747687Y+4000000D01*
X+5685574Y+4000000D02*
X+5673152Y+3988957D01*
X+5673152Y+3966872D01*
X+5623461Y+4011042D02*
X+5598616Y+4033127D01*
X+5598616Y+3966872D01*
X+5474390Y+4011042D02*
X+5486812Y+4000000D01*
X+5524080Y+4000000D01*
X+5536503Y+4011042D01*
X+5536503Y+4022084D01*
X+5524080Y+4033127D01*
X+5486812Y+4033127D01*
X+5474390Y+4022084D01*
X+5474390Y+3977915D01*
X+5486812Y+3966872D01*
X+5524080Y+3966872D01*
D48*
X+5890400Y+4135000D02*
X+5430400Y+4135000D01*
X+5430400Y+4365000D01*
X+5890400Y+4365000D01*
X+5890400Y+4135000D01*
X+5660400Y+4300000D02*
X+5660400Y+4200000D01*
X+5610400Y+4250000D02*
X+5710400Y+4250000D01*
D60*
X+5805400Y+4250000D02*
X+5805400Y+4250000D01*
D61*
X+5747687Y+4216872D02*
X+5747687Y+4283127D01*
X+5685574Y+4283127D01*
X+5673152Y+4272084D01*
X+5673152Y+4261042D01*
X+5685574Y+4250000D01*
X+5747687Y+4250000D01*
X+5685574Y+4250000D02*
X+5673152Y+4238957D01*
X+5673152Y+4216872D01*
X+5635884Y+4272084D02*
X+5623461Y+4283127D01*
X+5586193Y+4283127D01*
X+5573771Y+4272084D01*
X+5573771Y+4261042D01*
X+5586193Y+4250000D01*
X+5623461Y+4250000D01*
X+5635884Y+4238957D01*
X+5635884Y+4216872D01*
X+5573771Y+4216872D01*
X+5548925Y+4227915D02*
X+5548925Y+4272084D01*
X+5536503Y+4283127D01*
X+5486812Y+4283127D01*
X+5474390Y+4272084D01*
X+5474390Y+4227915D01*
X+5486812Y+4216872D01*
X+5536503Y+4216872D01*
X+5548925Y+4227915D01*
X+5548925Y+4216872D02*
X+5474390Y+4283127D01*
D48*
X+7585000Y+7575000D02*
X+7585000Y+8035000D01*
X+7815000Y+8035000D01*
X+7815000Y+7575000D01*
X+7585000Y+7575000D01*
X+7750000Y+7805000D02*
X+7650000Y+7805000D01*
X+7700000Y+7855000D02*
X+7700000Y+7755000D01*
D60*
X+7700000Y+7660000D02*
X+7700000Y+7660000D01*
D61*
X+7733128Y+8015855D02*
X+7666873Y+8015855D01*
X+7666873Y+7953742D01*
X+7677916Y+7941320D01*
X+7688958Y+7941320D01*
X+7700000Y+7953742D01*
X+7700000Y+8015855D01*
X+7700000Y+7953742D02*
X+7711043Y+7941320D01*
X+7733128Y+7941320D01*
X+7677916Y+7904052D02*
X+7666873Y+7891629D01*
X+7666873Y+7854361D01*
X+7677916Y+7841939D01*
X+7688958Y+7841939D01*
X+7700000Y+7854361D01*
X+7700000Y+7891629D01*
X+7711043Y+7904052D01*
X+7733128Y+7904052D01*
X+7733128Y+7841939D01*
X+7677916Y+7804671D02*
X+7666873Y+7792248D01*
X+7666873Y+7754980D01*
X+7677916Y+7742558D01*
X+7688958Y+7742558D01*
X+7700000Y+7754980D01*
X+7700000Y+7792248D01*
X+7711043Y+7804671D01*
X+7733128Y+7804671D01*
X+7733128Y+7742558D01*
D48*
X+7238300Y+7585800D02*
X+7238300Y+8045800D01*
X+7468300Y+8045800D01*
X+7468300Y+7585800D01*
X+7238300Y+7585800D01*
X+7403300Y+7815800D02*
X+7303300Y+7815800D01*
X+7353300Y+7865800D02*
X+7353300Y+7765800D01*
D60*
X+7353300Y+7670800D02*
X+7353300Y+7670800D01*
D61*
X+7386428Y+8026655D02*
X+7320173Y+8026655D01*
X+7320173Y+7964542D01*
X+7331216Y+7952120D01*
X+7342258Y+7952120D01*
X+7353300Y+7964542D01*
X+7353300Y+8026655D01*
X+7353300Y+7964542D02*
X+7364343Y+7952120D01*
X+7386428Y+7952120D01*
X+7331216Y+7914852D02*
X+7320173Y+7902429D01*
X+7320173Y+7865161D01*
X+7331216Y+7852739D01*
X+7342258Y+7852739D01*
X+7353300Y+7865161D01*
X+7353300Y+7902429D01*
X+7364343Y+7914852D01*
X+7386428Y+7914852D01*
X+7386428Y+7852739D01*
X+7364343Y+7753358D02*
X+7364343Y+7827893D01*
X+7320173Y+7778203D01*
X+7386428Y+7778203D01*
D48*
X+5239100Y+6285800D02*
X+4779100Y+6285800D01*
X+4779100Y+6515800D01*
X+5239100Y+6515800D01*
X+5239100Y+6285800D01*
X+5009100Y+6450800D02*
X+5009100Y+6350800D01*
X+4959100Y+6400800D02*
X+5059100Y+6400800D01*
D60*
X+5154100Y+6400800D02*
X+5154100Y+6400800D01*
D61*
X+5096387Y+6367672D02*
X+5096387Y+6433927D01*
X+5034274Y+6433927D01*
X+5021852Y+6422884D01*
X+5021852Y+6411842D01*
X+5034274Y+6400800D01*
X+5096387Y+6400800D01*
X+5034274Y+6400800D02*
X+5021852Y+6389757D01*
X+5021852Y+6367672D01*
X+4984584Y+6422884D02*
X+4972161Y+6433927D01*
X+4934893Y+6433927D01*
X+4922471Y+6422884D01*
X+4922471Y+6411842D01*
X+4934893Y+6400800D01*
X+4972161Y+6400800D01*
X+4984584Y+6389757D01*
X+4984584Y+6367672D01*
X+4922471Y+6367672D01*
X+4823090Y+6422884D02*
X+4835512Y+6433927D01*
X+4872780Y+6433927D01*
X+4885203Y+6422884D01*
X+4885203Y+6378715D01*
X+4872780Y+6367672D01*
X+4835512Y+6367672D01*
X+4823090Y+6378715D01*
X+4823090Y+6389757D01*
X+4835512Y+6400800D01*
X+4885203Y+6400800D01*
D48*
X+5239100Y+6514400D02*
X+4779100Y+6514400D01*
X+4779100Y+6744400D01*
X+5239100Y+6744400D01*
X+5239100Y+6514400D01*
X+5009100Y+6679400D02*
X+5009100Y+6579400D01*
X+4959100Y+6629400D02*
X+5059100Y+6629400D01*
D60*
X+5154100Y+6629400D02*
X+5154100Y+6629400D01*
D61*
X+5096387Y+6596272D02*
X+5096387Y+6662527D01*
X+5034274Y+6662527D01*
X+5021852Y+6651484D01*
X+5021852Y+6640442D01*
X+5034274Y+6629400D01*
X+5096387Y+6629400D01*
X+5034274Y+6629400D02*
X+5021852Y+6618357D01*
X+5021852Y+6596272D01*
X+4984584Y+6651484D02*
X+4972161Y+6662527D01*
X+4934893Y+6662527D01*
X+4922471Y+6651484D01*
X+4922471Y+6640442D01*
X+4934893Y+6629400D01*
X+4972161Y+6629400D01*
X+4984584Y+6618357D01*
X+4984584Y+6596272D01*
X+4922471Y+6596272D01*
X+4885203Y+6662527D02*
X+4823090Y+6662527D01*
X+4823090Y+6651484D01*
X+4885203Y+6596272D01*
D48*
X+5241200Y+6019100D02*
X+4781200Y+6019100D01*
X+4781200Y+6249100D01*
X+5241200Y+6249100D01*
X+5241200Y+6019100D01*
X+5011200Y+6184100D02*
X+5011200Y+6084100D01*
X+4961200Y+6134100D02*
X+5061200Y+6134100D01*
D60*
X+5156200Y+6134100D02*
X+5156200Y+6134100D01*
D61*
X+5098487Y+6100972D02*
X+5098487Y+6167227D01*
X+5036374Y+6167227D01*
X+5023952Y+6156184D01*
X+5023952Y+6145142D01*
X+5036374Y+6134100D01*
X+5098487Y+6134100D01*
X+5036374Y+6134100D02*
X+5023952Y+6123057D01*
X+5023952Y+6100972D01*
X+4986684Y+6156184D02*
X+4974261Y+6167227D01*
X+4936993Y+6167227D01*
X+4924571Y+6156184D01*
X+4924571Y+6145142D01*
X+4936993Y+6134100D01*
X+4974261Y+6134100D01*
X+4986684Y+6123057D01*
X+4986684Y+6100972D01*
X+4924571Y+6100972D01*
X+4825190Y+6145142D02*
X+4837612Y+6134100D01*
X+4874880Y+6134100D01*
X+4887303Y+6145142D01*
X+4887303Y+6156184D01*
X+4874880Y+6167227D01*
X+4837612Y+6167227D01*
X+4825190Y+6156184D01*
X+4825190Y+6112015D01*
X+4837612Y+6100972D01*
X+4874880Y+6100972D01*
D34*
X+10455910Y+7614920D02*
X+11200130Y+7614920D01*
X+11200130Y+8056880D01*
X+10455910Y+8056880D01*
X+10455910Y+7614920D01*
D69*
X+10566400Y+7645400D02*
X+10566400Y+7645400D01*
D74*
X+11033357Y+7933302D02*
X+11033357Y+7819225D01*
X+11007690Y+7796410D01*
X+10905022Y+7796410D01*
X+10879355Y+7819225D01*
X+10879355Y+7933302D01*
X+10776686Y+7864856D02*
X+10802353Y+7887671D01*
X+10802353Y+7910487D01*
X+10776686Y+7933302D01*
X+10699685Y+7933302D01*
X+10674018Y+7910487D01*
X+10674018Y+7887671D01*
X+10699685Y+7864856D01*
X+10776686Y+7864856D01*
X+10802353Y+7842041D01*
X+10802353Y+7819225D01*
X+10776686Y+7796410D01*
X+10699685Y+7796410D01*
X+10674018Y+7819225D01*
X+10674018Y+7842041D01*
X+10699685Y+7864856D01*
D48*
X+11425000Y+8215000D02*
X+11885000Y+8215000D01*
X+11885000Y+7985000D01*
X+11425000Y+7985000D01*
X+11425000Y+8215000D01*
X+11655000Y+8050000D02*
X+11655000Y+8150000D01*
X+11705000Y+8100000D02*
X+11605000Y+8100000D01*
D60*
X+11510000Y+8100000D02*
X+11510000Y+8100000D01*
D61*
X+11865855Y+8066872D02*
X+11865855Y+8133127D01*
X+11803742Y+8133127D01*
X+11791320Y+8122084D01*
X+11791320Y+8111042D01*
X+11803742Y+8100000D01*
X+11865855Y+8100000D01*
X+11803742Y+8100000D02*
X+11791320Y+8088957D01*
X+11791320Y+8066872D01*
X+11741629Y+8111042D02*
X+11716784Y+8133127D01*
X+11716784Y+8066872D01*
X+11667093Y+8077915D02*
X+11667093Y+8122084D01*
X+11654671Y+8133127D01*
X+11604980Y+8133127D01*
X+11592558Y+8122084D01*
X+11592558Y+8077915D01*
X+11604980Y+8066872D01*
X+11654671Y+8066872D01*
X+11667093Y+8077915D01*
X+11667093Y+8066872D02*
X+11592558Y+8133127D01*
D48*
X+11785000Y+7375000D02*
X+11785000Y+7835000D01*
X+12015000Y+7835000D01*
X+12015000Y+7375000D01*
X+11785000Y+7375000D01*
X+11950000Y+7605000D02*
X+11850000Y+7605000D01*
X+11900000Y+7655000D02*
X+11900000Y+7555000D01*
D60*
X+11900000Y+7460000D02*
X+11900000Y+7460000D01*
D61*
X+11933128Y+7815855D02*
X+11866873Y+7815855D01*
X+11866873Y+7753742D01*
X+11877916Y+7741320D01*
X+11888958Y+7741320D01*
X+11900000Y+7753742D01*
X+11900000Y+7815855D01*
X+11900000Y+7753742D02*
X+11911043Y+7741320D01*
X+11933128Y+7741320D01*
X+11877916Y+7704052D02*
X+11866873Y+7691629D01*
X+11866873Y+7654361D01*
X+11877916Y+7641939D01*
X+11888958Y+7641939D01*
X+11900000Y+7654361D01*
X+11911043Y+7641939D01*
X+11922085Y+7641939D01*
X+11933128Y+7654361D01*
X+11933128Y+7691629D01*
X+11922085Y+7704052D01*
X+11900000Y+7679207D02*
X+11900000Y+7654361D01*
X+11877916Y+7604671D02*
X+11866873Y+7592248D01*
X+11866873Y+7554980D01*
X+11877916Y+7542558D01*
X+11888958Y+7542558D01*
X+11900000Y+7554980D01*
X+11911043Y+7542558D01*
X+11922085Y+7542558D01*
X+11933128Y+7554980D01*
X+11933128Y+7592248D01*
X+11922085Y+7604671D01*
X+11900000Y+7579826D02*
X+11900000Y+7554980D01*
M02*
