G04 PROTEUS GERBER X2 FILE*
%TF.GenerationSoftware,Labcenter,Proteus,8.17-SP2-Build37159*%
%TF.CreationDate,2025-02-23T13:52:33+00:00*%
%TF.FileFunction,AssemblyDrawing,Top*%
%TF.FilePolarity,Positive*%
%TF.Part,Single*%
%TF.SameCoordinates,{f5fd30df-bfb1-41d0-8757-df29ac62e929}*%
%FSLAX45Y45*%
%MOMM*%
G01*
%TA.AperFunction,Profile*%
%ADD73C,0.101600*%
%TA.AperFunction,Material*%
%ADD34C,0.101600*%
%ADD42C,1.219200*%
%ADD43C,0.279730*%
%ADD44C,0.812800*%
%ADD45C,0.204890*%
%ADD46C,0.914400*%
%ADD47C,0.183130*%
%ADD48C,0.050000*%
%ADD49C,0.420000*%
%ADD50C,0.145960*%
%ADD51C,0.179490*%
%ADD38C,0.508000*%
%ADD52C,0.440230*%
%ADD53C,0.609600*%
%ADD54C,0.197120*%
%ADD55C,0.267200*%
%ADD56C,0.711200*%
%ADD57C,0.117340*%
%ADD58C,0.284480*%
%ADD59C,0.139700*%
%ADD60C,0.721360*%
%ADD61C,0.110420*%
%ADD62C,1.400040*%
%ADD63C,0.747250*%
%ADD64C,0.579120*%
%ADD65C,0.079460*%
%ADD39C,0.152400*%
%ADD66C,0.558800*%
%TD.AperFunction*%
D73*
X+0Y+635000D02*
X+14900000Y+635000D01*
X+14900000Y+8835000D01*
X+0Y+635000D02*
X+0Y+8835000D01*
X+14900000Y+8835000D01*
D34*
X+13340920Y+7521920D02*
X+14367080Y+7521920D01*
X+14367080Y+8548080D01*
X+13340920Y+8548080D01*
X+13340920Y+7521920D01*
D42*
X+13600000Y+8035000D02*
X+13600000Y+8035000D01*
D43*
X+14041994Y+7783236D02*
X+14069968Y+7783236D01*
X+14097942Y+7814706D01*
X+14097942Y+7940588D01*
X+14069968Y+7972059D01*
X+13930099Y+7972059D01*
X+13986047Y+8097941D02*
X+13930099Y+8160882D01*
X+14097942Y+8160882D01*
D34*
X+11390920Y+4932920D02*
X+11909080Y+4932920D01*
X+11909080Y+5959080D01*
X+11390920Y+5959080D01*
X+11390920Y+4932920D01*
D44*
X+11650000Y+5700000D02*
X+11650000Y+5700000D01*
D45*
X+11588532Y+5111737D02*
X+11711468Y+5250039D01*
X+11711468Y+5111737D02*
X+11588532Y+5250039D01*
X+11629511Y+5342240D02*
X+11588532Y+5388341D01*
X+11711468Y+5388341D01*
D34*
X+13960300Y+5785700D02*
X+14237160Y+5785700D01*
X+14237160Y+7030300D01*
X+13960300Y+7030300D01*
X+13960300Y+5785700D01*
D46*
X+14100000Y+5900000D02*
X+14100000Y+5900000D01*
D47*
X+14153671Y+6323190D02*
X+14043790Y+6323190D01*
X+14043790Y+6405600D01*
X+14080417Y+6446805D01*
X+14117044Y+6446805D01*
X+14153671Y+6405600D01*
X+14153671Y+6323190D01*
X+14080417Y+6529215D02*
X+14043790Y+6570420D01*
X+14153671Y+6570420D01*
D48*
X+13525000Y+6500000D02*
X+13524914Y+6502076D01*
X+13524212Y+6506229D01*
X+13522742Y+6510382D01*
X+13520340Y+6514535D01*
X+13516667Y+6518634D01*
X+13512514Y+6521643D01*
X+13508361Y+6523560D01*
X+13504208Y+6524643D01*
X+13500055Y+6525000D01*
X+13500000Y+6525000D01*
X+13475000Y+6500000D02*
X+13475086Y+6502076D01*
X+13475788Y+6506229D01*
X+13477258Y+6510382D01*
X+13479660Y+6514535D01*
X+13483333Y+6518634D01*
X+13487486Y+6521643D01*
X+13491639Y+6523560D01*
X+13495792Y+6524643D01*
X+13499945Y+6525000D01*
X+13500000Y+6525000D01*
X+13475000Y+6500000D02*
X+13475086Y+6497924D01*
X+13475788Y+6493771D01*
X+13477258Y+6489618D01*
X+13479660Y+6485465D01*
X+13483333Y+6481366D01*
X+13487486Y+6478357D01*
X+13491639Y+6476440D01*
X+13495792Y+6475357D01*
X+13499945Y+6475000D01*
X+13500000Y+6475000D01*
X+13525000Y+6500000D02*
X+13524914Y+6497924D01*
X+13524212Y+6493771D01*
X+13522742Y+6489618D01*
X+13520340Y+6485465D01*
X+13516667Y+6481366D01*
X+13512514Y+6478357D01*
X+13508361Y+6476440D01*
X+13504208Y+6475357D01*
X+13500055Y+6475000D01*
X+13500000Y+6475000D01*
X+13465000Y+6500000D02*
X+13535000Y+6500000D01*
X+13500000Y+6465000D02*
X+13500000Y+6535000D01*
X+13725000Y+6275000D02*
X+13725000Y+6500000D01*
X+13720523Y+6546005D01*
X+13707642Y+6588550D01*
X+13687180Y+6626809D01*
X+13659961Y+6659961D01*
X+13626810Y+6687179D01*
X+13588550Y+6707642D01*
X+13546005Y+6720523D01*
X+13500000Y+6725000D01*
X+13453995Y+6720523D01*
X+13411450Y+6707642D01*
X+13373190Y+6687179D01*
X+13340039Y+6659961D01*
X+13312820Y+6626809D01*
X+13292358Y+6588550D01*
X+13279477Y+6546005D01*
X+13275000Y+6500000D01*
X+13279477Y+6453995D01*
X+13292358Y+6411450D01*
X+13312820Y+6373191D01*
X+13340039Y+6340039D01*
X+13373190Y+6312821D01*
X+13411450Y+6292358D01*
X+13453995Y+6279477D01*
X+13500000Y+6275000D01*
X+13725000Y+6275000D01*
D49*
X+13425000Y+6500000D02*
X+13425000Y+6500000D01*
D50*
X+13615944Y+6467157D02*
X+13630541Y+6450735D01*
X+13630541Y+6401471D01*
X+13601347Y+6368629D01*
X+13572154Y+6368629D01*
X+13542960Y+6401471D01*
X+13542960Y+6450735D01*
X+13557557Y+6467157D01*
X+13557557Y+6516421D02*
X+13542960Y+6532842D01*
X+13542960Y+6582106D01*
X+13557557Y+6598528D01*
X+13572154Y+6598528D01*
X+13586750Y+6582106D01*
X+13586750Y+6532842D01*
X+13601347Y+6516421D01*
X+13630541Y+6516421D01*
X+13630541Y+6598528D01*
D48*
X+13525000Y+6000000D02*
X+13524914Y+6002076D01*
X+13524212Y+6006229D01*
X+13522742Y+6010382D01*
X+13520340Y+6014535D01*
X+13516667Y+6018634D01*
X+13512514Y+6021643D01*
X+13508361Y+6023560D01*
X+13504208Y+6024643D01*
X+13500055Y+6025000D01*
X+13500000Y+6025000D01*
X+13475000Y+6000000D02*
X+13475086Y+6002076D01*
X+13475788Y+6006229D01*
X+13477258Y+6010382D01*
X+13479660Y+6014535D01*
X+13483333Y+6018634D01*
X+13487486Y+6021643D01*
X+13491639Y+6023560D01*
X+13495792Y+6024643D01*
X+13499945Y+6025000D01*
X+13500000Y+6025000D01*
X+13475000Y+6000000D02*
X+13475086Y+5997924D01*
X+13475788Y+5993771D01*
X+13477258Y+5989618D01*
X+13479660Y+5985465D01*
X+13483333Y+5981366D01*
X+13487486Y+5978357D01*
X+13491639Y+5976440D01*
X+13495792Y+5975357D01*
X+13499945Y+5975000D01*
X+13500000Y+5975000D01*
X+13525000Y+6000000D02*
X+13524914Y+5997924D01*
X+13524212Y+5993771D01*
X+13522742Y+5989618D01*
X+13520340Y+5985465D01*
X+13516667Y+5981366D01*
X+13512514Y+5978357D01*
X+13508361Y+5976440D01*
X+13504208Y+5975357D01*
X+13500055Y+5975000D01*
X+13500000Y+5975000D01*
X+13465000Y+6000000D02*
X+13535000Y+6000000D01*
X+13500000Y+5965000D02*
X+13500000Y+6035000D01*
X+13725000Y+5775000D02*
X+13725000Y+6000000D01*
X+13720523Y+6046005D01*
X+13707642Y+6088550D01*
X+13687180Y+6126809D01*
X+13659961Y+6159961D01*
X+13626810Y+6187179D01*
X+13588550Y+6207642D01*
X+13546005Y+6220523D01*
X+13500000Y+6225000D01*
X+13453995Y+6220523D01*
X+13411450Y+6207642D01*
X+13373190Y+6187179D01*
X+13340039Y+6159961D01*
X+13312820Y+6126809D01*
X+13292358Y+6088550D01*
X+13279477Y+6046005D01*
X+13275000Y+6000000D01*
X+13279477Y+5953995D01*
X+13292358Y+5911450D01*
X+13312820Y+5873191D01*
X+13340039Y+5840039D01*
X+13373190Y+5812821D01*
X+13411450Y+5792358D01*
X+13453995Y+5779477D01*
X+13500000Y+5775000D01*
X+13725000Y+5775000D01*
D49*
X+13425000Y+6000000D02*
X+13425000Y+6000000D01*
D50*
X+13615944Y+5967157D02*
X+13630541Y+5950735D01*
X+13630541Y+5901471D01*
X+13601347Y+5868629D01*
X+13572154Y+5868629D01*
X+13542960Y+5901471D01*
X+13542960Y+5950735D01*
X+13557557Y+5967157D01*
X+13557557Y+6016421D02*
X+13542960Y+6032842D01*
X+13542960Y+6082106D01*
X+13557557Y+6098528D01*
X+13572154Y+6098528D01*
X+13586750Y+6082106D01*
X+13601347Y+6098528D01*
X+13615944Y+6098528D01*
X+13630541Y+6082106D01*
X+13630541Y+6032842D01*
X+13615944Y+6016421D01*
X+13586750Y+6049264D02*
X+13586750Y+6082106D01*
D34*
X+13213920Y+5067920D02*
X+13986080Y+5067920D01*
X+13986080Y+5459080D01*
X+13213920Y+5459080D01*
X+13213920Y+5067920D01*
D44*
X+13346000Y+5200000D02*
X+13346000Y+5200000D01*
D51*
X+13524817Y+5317348D02*
X+13524817Y+5227601D01*
X+13545009Y+5209652D01*
X+13625781Y+5209652D01*
X+13645974Y+5227601D01*
X+13645974Y+5317348D01*
X+13807517Y+5245551D02*
X+13686360Y+5245551D01*
X+13767131Y+5317348D01*
X+13767131Y+5209652D01*
D34*
X+10324500Y+4367920D02*
X+11213500Y+4367920D01*
X+11213500Y+6918080D01*
X+10324500Y+6918080D01*
X+10324500Y+4367920D01*
D38*
X+11150000Y+4500000D02*
X+11150000Y+4500000D01*
D52*
X+10636931Y+5325532D02*
X+10857047Y+5325532D01*
X+10901070Y+5375058D01*
X+10901070Y+5573162D01*
X+10857047Y+5622688D01*
X+10636931Y+5622688D01*
X+10680954Y+5771266D02*
X+10636931Y+5820792D01*
X+10636931Y+5969370D01*
X+10680954Y+6018896D01*
X+10724977Y+6018896D01*
X+10769000Y+5969370D01*
X+10769000Y+5820792D01*
X+10813024Y+5771266D01*
X+10901070Y+5771266D01*
X+10901070Y+6018896D01*
D34*
X+13494920Y+4394920D02*
X+14305080Y+4394920D01*
X+14305080Y+4705080D01*
X+13494920Y+4705080D01*
X+13494920Y+4394920D01*
D53*
X+13650000Y+4550000D02*
X+13650000Y+4550000D01*
D54*
X+13948428Y+4510576D02*
X+13926252Y+4490864D01*
X+13859724Y+4490864D01*
X+13815372Y+4530288D01*
X+13815372Y+4569712D01*
X+13859724Y+4609136D01*
X+13926252Y+4609136D01*
X+13948428Y+4589424D01*
X+14125836Y+4530288D02*
X+13992780Y+4530288D01*
X+14081484Y+4609136D01*
X+14081484Y+4490864D01*
D34*
X+6136500Y+3389920D02*
X+7025500Y+3389920D01*
X+7025500Y+5432080D01*
X+6136500Y+5432080D01*
X+6136500Y+3389920D01*
D38*
X+6200000Y+5300000D02*
X+6200000Y+5300000D01*
D52*
X+6448931Y+3936052D02*
X+6669047Y+3936052D01*
X+6713070Y+3985578D01*
X+6713070Y+4183682D01*
X+6669047Y+4233208D01*
X+6448931Y+4233208D01*
X+6536977Y+4431312D02*
X+6448931Y+4530364D01*
X+6713070Y+4530364D01*
D34*
X+6136500Y+5689920D02*
X+7025500Y+5689920D01*
X+7025500Y+7732080D01*
X+6136500Y+7732080D01*
X+6136500Y+5689920D01*
D38*
X+6200000Y+7600000D02*
X+6200000Y+7600000D01*
D52*
X+6448931Y+6236052D02*
X+6669047Y+6236052D01*
X+6713070Y+6285578D01*
X+6713070Y+6483682D01*
X+6669047Y+6533208D01*
X+6448931Y+6533208D01*
X+6492954Y+6681786D02*
X+6448931Y+6731312D01*
X+6448931Y+6879890D01*
X+6492954Y+6929416D01*
X+6536977Y+6929416D01*
X+6581000Y+6879890D01*
X+6625024Y+6929416D01*
X+6669047Y+6929416D01*
X+6713070Y+6879890D01*
X+6713070Y+6731312D01*
X+6669047Y+6681786D01*
X+6581000Y+6780838D02*
X+6581000Y+6879890D01*
D34*
X+12867920Y+2736500D02*
X+13894080Y+2736500D01*
X+13894080Y+3625500D01*
X+12867920Y+3625500D01*
X+12867920Y+2736500D01*
D38*
X+13000000Y+2800000D02*
X+13000000Y+2800000D01*
D55*
X+13140513Y+3305612D02*
X+13140513Y+3172008D01*
X+13170573Y+3145287D01*
X+13290817Y+3145287D01*
X+13320878Y+3172008D01*
X+13320878Y+3305612D01*
X+13561365Y+3305612D02*
X+13411060Y+3305612D01*
X+13411060Y+3252170D01*
X+13531304Y+3252170D01*
X+13561365Y+3225450D01*
X+13561365Y+3172008D01*
X+13531304Y+3145287D01*
X+13441121Y+3145287D01*
X+13411060Y+3172008D01*
D34*
X+11244920Y+3044920D02*
X+12055080Y+3044920D01*
X+12055080Y+3355080D01*
X+11244920Y+3355080D01*
X+11244920Y+3044920D01*
D53*
X+11400000Y+3200000D02*
X+11400000Y+3200000D01*
D54*
X+11698428Y+3160576D02*
X+11676252Y+3140864D01*
X+11609724Y+3140864D01*
X+11565372Y+3180288D01*
X+11565372Y+3219712D01*
X+11609724Y+3259136D01*
X+11676252Y+3259136D01*
X+11698428Y+3239424D01*
X+11875836Y+3259136D02*
X+11764956Y+3259136D01*
X+11764956Y+3219712D01*
X+11853660Y+3219712D01*
X+11875836Y+3200000D01*
X+11875836Y+3160576D01*
X+11853660Y+3140864D01*
X+11787132Y+3140864D01*
X+11764956Y+3160576D01*
D34*
X+11013920Y+2267920D02*
X+11786080Y+2267920D01*
X+11786080Y+2659080D01*
X+11013920Y+2659080D01*
X+11013920Y+2267920D01*
D44*
X+11146000Y+2400000D02*
X+11146000Y+2400000D01*
D51*
X+11324817Y+2481449D02*
X+11365202Y+2517348D01*
X+11405588Y+2517348D01*
X+11445974Y+2481449D01*
X+11445974Y+2445551D01*
X+11405588Y+2409652D01*
X+11365202Y+2409652D01*
X+11324817Y+2445551D01*
X+11324817Y+2481449D01*
X+11405588Y+2445551D02*
X+11445974Y+2409652D01*
X+11526745Y+2481449D02*
X+11567131Y+2517348D01*
X+11567131Y+2409652D01*
D34*
X+9811100Y+3411100D02*
X+11004900Y+3411100D01*
X+11004900Y+3588900D01*
X+9811100Y+3588900D01*
X+9811100Y+3411100D01*
D56*
X+9900000Y+3500000D02*
X+9900000Y+3500000D01*
D57*
X+10364618Y+3464796D02*
X+10364618Y+3535204D01*
X+10430625Y+3535204D01*
X+10443827Y+3523469D01*
X+10443827Y+3511735D01*
X+10430625Y+3500000D01*
X+10364618Y+3500000D01*
X+10430625Y+3500000D02*
X+10443827Y+3488265D01*
X+10443827Y+3464796D01*
X+10483431Y+3523469D02*
X+10496633Y+3535204D01*
X+10536237Y+3535204D01*
X+10549439Y+3523469D01*
X+10549439Y+3511735D01*
X+10536237Y+3500000D01*
X+10496633Y+3500000D01*
X+10483431Y+3488265D01*
X+10483431Y+3464796D01*
X+10549439Y+3464796D01*
D34*
X+12867920Y+1940920D02*
X+14148080Y+1940920D01*
X+14148080Y+2459080D01*
X+12867920Y+2459080D01*
X+12867920Y+1940920D01*
D44*
X+13000000Y+2200000D02*
X+13000000Y+2200000D01*
D58*
X+13530352Y+2143104D02*
X+13498348Y+2114656D01*
X+13402336Y+2114656D01*
X+13338328Y+2171552D01*
X+13338328Y+2228448D01*
X+13402336Y+2285344D01*
X+13498348Y+2285344D01*
X+13530352Y+2256896D01*
X+13786384Y+2256896D02*
X+13754380Y+2285344D01*
X+13658368Y+2285344D01*
X+13626364Y+2256896D01*
X+13626364Y+2143104D01*
X+13658368Y+2114656D01*
X+13754380Y+2114656D01*
X+13786384Y+2143104D01*
X+13786384Y+2171552D01*
X+13754380Y+2200000D01*
X+13626364Y+2200000D01*
D34*
X+12560300Y+1074712D02*
X+12837160Y+1074712D01*
X+12837160Y+2319312D01*
X+12560300Y+2319312D01*
X+12560300Y+1074712D01*
D46*
X+12700000Y+1189012D02*
X+12700000Y+1189012D01*
D47*
X+12753671Y+1612202D02*
X+12643790Y+1612202D01*
X+12643790Y+1694612D01*
X+12680417Y+1735817D01*
X+12717044Y+1735817D01*
X+12753671Y+1694612D01*
X+12753671Y+1612202D01*
X+12662104Y+1797624D02*
X+12643790Y+1818227D01*
X+12643790Y+1880034D01*
X+12662104Y+1900637D01*
X+12680417Y+1900637D01*
X+12698730Y+1880034D01*
X+12698730Y+1818227D01*
X+12717044Y+1797624D01*
X+12753671Y+1797624D01*
X+12753671Y+1900637D01*
D34*
X+10838100Y+1365100D02*
X+12031900Y+1365100D01*
X+12031900Y+1542900D01*
X+10838100Y+1542900D01*
X+10838100Y+1365100D01*
D56*
X+10927000Y+1454000D02*
X+10927000Y+1454000D01*
D57*
X+11391618Y+1418796D02*
X+11391618Y+1489204D01*
X+11457625Y+1489204D01*
X+11470827Y+1477469D01*
X+11470827Y+1465735D01*
X+11457625Y+1454000D01*
X+11391618Y+1454000D01*
X+11457625Y+1454000D02*
X+11470827Y+1442265D01*
X+11470827Y+1418796D01*
X+11576439Y+1489204D02*
X+11510431Y+1489204D01*
X+11510431Y+1465735D01*
X+11563237Y+1465735D01*
X+11576439Y+1454000D01*
X+11576439Y+1430531D01*
X+11563237Y+1418796D01*
X+11523633Y+1418796D01*
X+11510431Y+1430531D01*
D34*
X+10744920Y+825920D02*
X+11555080Y+825920D01*
X+11555080Y+1136080D01*
X+10744920Y+1136080D01*
X+10744920Y+825920D01*
D53*
X+10900000Y+981000D02*
X+10900000Y+981000D01*
D54*
X+11198428Y+941576D02*
X+11176252Y+921864D01*
X+11109724Y+921864D01*
X+11065372Y+961288D01*
X+11065372Y+1000712D01*
X+11109724Y+1040136D01*
X+11176252Y+1040136D01*
X+11198428Y+1020424D01*
X+11375836Y+1000712D02*
X+11353660Y+981000D01*
X+11287132Y+981000D01*
X+11264956Y+1000712D01*
X+11264956Y+1020424D01*
X+11287132Y+1040136D01*
X+11353660Y+1040136D01*
X+11375836Y+1020424D01*
X+11375836Y+941576D01*
X+11353660Y+921864D01*
X+11287132Y+921864D01*
D34*
X+12138100Y+892100D02*
X+13331900Y+892100D01*
X+13331900Y+1069900D01*
X+12138100Y+1069900D01*
X+12138100Y+892100D01*
D56*
X+12227000Y+981000D02*
X+12227000Y+981000D01*
D57*
X+12691618Y+945796D02*
X+12691618Y+1016204D01*
X+12757625Y+1016204D01*
X+12770827Y+1004469D01*
X+12770827Y+992735D01*
X+12757625Y+981000D01*
X+12691618Y+981000D01*
X+12757625Y+981000D02*
X+12770827Y+969265D01*
X+12770827Y+945796D01*
X+12876439Y+1004469D02*
X+12863237Y+1016204D01*
X+12823633Y+1016204D01*
X+12810431Y+1004469D01*
X+12810431Y+957531D01*
X+12823633Y+945796D01*
X+12863237Y+945796D01*
X+12876439Y+957531D01*
X+12876439Y+969265D01*
X+12863237Y+981000D01*
X+12810431Y+981000D01*
D34*
X+9802020Y+1635420D02*
X+10497980Y+1635420D01*
X+10497980Y+2128180D01*
X+9802020Y+2128180D01*
X+9802020Y+1635420D01*
D53*
X+10353200Y+1958000D02*
X+10353200Y+1958000D01*
D59*
X+9936640Y+1895770D02*
X+9968072Y+1923710D01*
X+9999505Y+1923710D01*
X+10030937Y+1895770D01*
X+10030937Y+1867830D01*
X+9999505Y+1839890D01*
X+9968072Y+1839890D01*
X+9936640Y+1867830D01*
X+9936640Y+1895770D01*
X+9999505Y+1867830D02*
X+10030937Y+1839890D01*
X+10078086Y+1909740D02*
X+10093802Y+1923710D01*
X+10140951Y+1923710D01*
X+10156667Y+1909740D01*
X+10156667Y+1895770D01*
X+10140951Y+1881800D01*
X+10093802Y+1881800D01*
X+10078086Y+1867830D01*
X+10078086Y+1839890D01*
X+10156667Y+1839890D01*
D48*
X+7065000Y+4635000D02*
X+7525000Y+4635000D01*
X+7525000Y+4865000D01*
X+7065000Y+4865000D01*
X+7065000Y+4635000D01*
X+7295000Y+4800000D02*
X+7295000Y+4700000D01*
X+7345000Y+4750000D02*
X+7245000Y+4750000D01*
D60*
X+7150000Y+4750000D02*
X+7150000Y+4750000D01*
D61*
X+7207713Y+4716872D02*
X+7207713Y+4783127D01*
X+7269826Y+4783127D01*
X+7282248Y+4772084D01*
X+7282248Y+4761042D01*
X+7269826Y+4750000D01*
X+7207713Y+4750000D01*
X+7269826Y+4750000D02*
X+7282248Y+4738957D01*
X+7282248Y+4716872D01*
X+7331939Y+4761042D02*
X+7356784Y+4783127D01*
X+7356784Y+4716872D01*
X+7418897Y+4772084D02*
X+7431320Y+4783127D01*
X+7468588Y+4783127D01*
X+7481010Y+4772084D01*
X+7481010Y+4761042D01*
X+7468588Y+4750000D01*
X+7431320Y+4750000D01*
X+7418897Y+4738957D01*
X+7418897Y+4716872D01*
X+7481010Y+4716872D01*
D48*
X+7054500Y+4952300D02*
X+7514500Y+4952300D01*
X+7514500Y+5182300D01*
X+7054500Y+5182300D01*
X+7054500Y+4952300D01*
X+7284500Y+5117300D02*
X+7284500Y+5017300D01*
X+7334500Y+5067300D02*
X+7234500Y+5067300D01*
D60*
X+7139500Y+5067300D02*
X+7139500Y+5067300D01*
D61*
X+7197213Y+5034172D02*
X+7197213Y+5100427D01*
X+7259326Y+5100427D01*
X+7271748Y+5089384D01*
X+7271748Y+5078342D01*
X+7259326Y+5067300D01*
X+7197213Y+5067300D01*
X+7259326Y+5067300D02*
X+7271748Y+5056257D01*
X+7271748Y+5034172D01*
X+7321439Y+5078342D02*
X+7346284Y+5100427D01*
X+7346284Y+5034172D01*
X+7470510Y+5056257D02*
X+7395975Y+5056257D01*
X+7445665Y+5100427D01*
X+7445665Y+5034172D01*
D48*
X+6090000Y+7231100D02*
X+5630000Y+7231100D01*
X+5630000Y+7001100D01*
X+6090000Y+7001100D01*
X+6090000Y+7231100D01*
X+5860000Y+7066100D02*
X+5860000Y+7166100D01*
X+5810000Y+7116100D02*
X+5910000Y+7116100D01*
D60*
X+6005000Y+7116100D02*
X+6005000Y+7116100D01*
D61*
X+5649145Y+7082972D02*
X+5649145Y+7149227D01*
X+5711258Y+7149227D01*
X+5723680Y+7138184D01*
X+5723680Y+7127142D01*
X+5711258Y+7116100D01*
X+5649145Y+7116100D01*
X+5711258Y+7116100D02*
X+5723680Y+7105057D01*
X+5723680Y+7082972D01*
X+5760948Y+7138184D02*
X+5773371Y+7149227D01*
X+5810639Y+7149227D01*
X+5823061Y+7138184D01*
X+5823061Y+7127142D01*
X+5810639Y+7116100D01*
X+5773371Y+7116100D01*
X+5760948Y+7105057D01*
X+5760948Y+7082972D01*
X+5823061Y+7082972D01*
X+5872752Y+7127142D02*
X+5897597Y+7149227D01*
X+5897597Y+7082972D01*
D48*
X+6090000Y+7463700D02*
X+5630000Y+7463700D01*
X+5630000Y+7233700D01*
X+6090000Y+7233700D01*
X+6090000Y+7463700D01*
X+5860000Y+7298700D02*
X+5860000Y+7398700D01*
X+5810000Y+7348700D02*
X+5910000Y+7348700D01*
D60*
X+6005000Y+7348700D02*
X+6005000Y+7348700D01*
D61*
X+5649145Y+7315572D02*
X+5649145Y+7381827D01*
X+5711258Y+7381827D01*
X+5723680Y+7370784D01*
X+5723680Y+7359742D01*
X+5711258Y+7348700D01*
X+5649145Y+7348700D01*
X+5711258Y+7348700D02*
X+5723680Y+7337657D01*
X+5723680Y+7315572D01*
X+5760948Y+7370784D02*
X+5773371Y+7381827D01*
X+5810639Y+7381827D01*
X+5823061Y+7370784D01*
X+5823061Y+7359742D01*
X+5810639Y+7348700D01*
X+5773371Y+7348700D01*
X+5760948Y+7337657D01*
X+5760948Y+7315572D01*
X+5823061Y+7315572D01*
X+5860329Y+7370784D02*
X+5872752Y+7381827D01*
X+5910020Y+7381827D01*
X+5922442Y+7370784D01*
X+5922442Y+7359742D01*
X+5910020Y+7348700D01*
X+5922442Y+7337657D01*
X+5922442Y+7326615D01*
X+5910020Y+7315572D01*
X+5872752Y+7315572D01*
X+5860329Y+7326615D01*
X+5885174Y+7348700D02*
X+5910020Y+7348700D01*
D48*
X+6090000Y+7721700D02*
X+5630000Y+7721700D01*
X+5630000Y+7491700D01*
X+6090000Y+7491700D01*
X+6090000Y+7721700D01*
X+5860000Y+7556700D02*
X+5860000Y+7656700D01*
X+5810000Y+7606700D02*
X+5910000Y+7606700D01*
D60*
X+6005000Y+7606700D02*
X+6005000Y+7606700D01*
D61*
X+5649145Y+7573572D02*
X+5649145Y+7639827D01*
X+5711258Y+7639827D01*
X+5723680Y+7628784D01*
X+5723680Y+7617742D01*
X+5711258Y+7606700D01*
X+5649145Y+7606700D01*
X+5711258Y+7606700D02*
X+5723680Y+7595657D01*
X+5723680Y+7573572D01*
X+5760948Y+7628784D02*
X+5773371Y+7639827D01*
X+5810639Y+7639827D01*
X+5823061Y+7628784D01*
X+5823061Y+7617742D01*
X+5810639Y+7606700D01*
X+5773371Y+7606700D01*
X+5760948Y+7595657D01*
X+5760948Y+7573572D01*
X+5823061Y+7573572D01*
X+5922442Y+7639827D02*
X+5860329Y+7639827D01*
X+5860329Y+7617742D01*
X+5910020Y+7617742D01*
X+5922442Y+7606700D01*
X+5922442Y+7584615D01*
X+5910020Y+7573572D01*
X+5872752Y+7573572D01*
X+5860329Y+7584615D01*
D48*
X+7595300Y+5845900D02*
X+7595300Y+6305900D01*
X+7365300Y+6305900D01*
X+7365300Y+5845900D01*
X+7595300Y+5845900D01*
X+7430300Y+6075900D02*
X+7530300Y+6075900D01*
X+7480300Y+6125900D02*
X+7480300Y+6025900D01*
D60*
X+7480300Y+5930900D02*
X+7480300Y+5930900D01*
D61*
X+7513428Y+5988613D02*
X+7447173Y+5988613D01*
X+7447173Y+6050726D01*
X+7458216Y+6063148D01*
X+7469258Y+6063148D01*
X+7480300Y+6050726D01*
X+7480300Y+5988613D01*
X+7480300Y+6050726D02*
X+7491343Y+6063148D01*
X+7513428Y+6063148D01*
X+7458216Y+6100416D02*
X+7447173Y+6112839D01*
X+7447173Y+6150107D01*
X+7458216Y+6162529D01*
X+7469258Y+6162529D01*
X+7480300Y+6150107D01*
X+7480300Y+6112839D01*
X+7491343Y+6100416D01*
X+7513428Y+6100416D01*
X+7513428Y+6162529D01*
X+7480300Y+6212220D02*
X+7469258Y+6199797D01*
X+7458216Y+6199797D01*
X+7447173Y+6212220D01*
X+7447173Y+6249488D01*
X+7458216Y+6261910D01*
X+7469258Y+6261910D01*
X+7480300Y+6249488D01*
X+7480300Y+6212220D01*
X+7491343Y+6199797D01*
X+7502385Y+6199797D01*
X+7513428Y+6212220D01*
X+7513428Y+6249488D01*
X+7502385Y+6261910D01*
X+7491343Y+6261910D01*
X+7480300Y+6249488D01*
D48*
X+6090000Y+6973100D02*
X+5630000Y+6973100D01*
X+5630000Y+6743100D01*
X+6090000Y+6743100D01*
X+6090000Y+6973100D01*
X+5860000Y+6808100D02*
X+5860000Y+6908100D01*
X+5810000Y+6858100D02*
X+5910000Y+6858100D01*
D60*
X+6005000Y+6858100D02*
X+6005000Y+6858100D01*
D61*
X+5649145Y+6824972D02*
X+5649145Y+6891227D01*
X+5711258Y+6891227D01*
X+5723680Y+6880184D01*
X+5723680Y+6869142D01*
X+5711258Y+6858100D01*
X+5649145Y+6858100D01*
X+5711258Y+6858100D02*
X+5723680Y+6847057D01*
X+5723680Y+6824972D01*
X+5760948Y+6880184D02*
X+5773371Y+6891227D01*
X+5810639Y+6891227D01*
X+5823061Y+6880184D01*
X+5823061Y+6869142D01*
X+5810639Y+6858100D01*
X+5823061Y+6847057D01*
X+5823061Y+6836015D01*
X+5810639Y+6824972D01*
X+5773371Y+6824972D01*
X+5760948Y+6836015D01*
X+5785793Y+6858100D02*
X+5810639Y+6858100D01*
X+5872752Y+6869142D02*
X+5897597Y+6891227D01*
X+5897597Y+6824972D01*
D34*
X+9802020Y+1014820D02*
X+10497980Y+1014820D01*
X+10497980Y+1507580D01*
X+9802020Y+1507580D01*
X+9802020Y+1014820D01*
D53*
X+9946800Y+1185000D02*
X+9946800Y+1185000D01*
D59*
X+10111900Y+1275170D02*
X+10143332Y+1303110D01*
X+10174765Y+1303110D01*
X+10206197Y+1275170D01*
X+10206197Y+1247230D01*
X+10174765Y+1219290D01*
X+10143332Y+1219290D01*
X+10111900Y+1247230D01*
X+10111900Y+1275170D01*
X+10174765Y+1247230D02*
X+10206197Y+1219290D01*
X+10253346Y+1289140D02*
X+10269062Y+1303110D01*
X+10316211Y+1303110D01*
X+10331927Y+1289140D01*
X+10331927Y+1275170D01*
X+10316211Y+1261200D01*
X+10331927Y+1247230D01*
X+10331927Y+1233260D01*
X+10316211Y+1219290D01*
X+10269062Y+1219290D01*
X+10253346Y+1233260D01*
X+10284778Y+1261200D02*
X+10316211Y+1261200D01*
D34*
X+8507000Y+1062700D02*
X+9700800Y+1062700D01*
X+9700800Y+1240500D01*
X+8507000Y+1240500D01*
X+8507000Y+1062700D01*
D56*
X+9611900Y+1151600D02*
X+9611900Y+1151600D01*
D57*
X+8936058Y+1116396D02*
X+8936058Y+1186804D01*
X+9002065Y+1186804D01*
X+9015267Y+1175069D01*
X+9015267Y+1163335D01*
X+9002065Y+1151600D01*
X+8936058Y+1151600D01*
X+9002065Y+1151600D02*
X+9015267Y+1139865D01*
X+9015267Y+1116396D01*
X+9068073Y+1151600D02*
X+9054871Y+1163335D01*
X+9054871Y+1175069D01*
X+9068073Y+1186804D01*
X+9107677Y+1186804D01*
X+9120879Y+1175069D01*
X+9120879Y+1163335D01*
X+9107677Y+1151600D01*
X+9068073Y+1151600D01*
X+9054871Y+1139865D01*
X+9054871Y+1128131D01*
X+9068073Y+1116396D01*
X+9107677Y+1116396D01*
X+9120879Y+1128131D01*
X+9120879Y+1139865D01*
X+9107677Y+1151600D01*
D34*
X+3273920Y+1241920D02*
X+3584080Y+1241920D01*
X+3584080Y+2052080D01*
X+3273920Y+2052080D01*
X+3273920Y+1241920D01*
D53*
X+3429000Y+1397000D02*
X+3429000Y+1397000D01*
D54*
X+3468424Y+1695428D02*
X+3488136Y+1673252D01*
X+3488136Y+1606724D01*
X+3448712Y+1562372D01*
X+3409288Y+1562372D01*
X+3369864Y+1606724D01*
X+3369864Y+1673252D01*
X+3389576Y+1695428D01*
X+3369864Y+1761956D02*
X+3369864Y+1872836D01*
X+3389576Y+1872836D01*
X+3488136Y+1761956D01*
D48*
X+11632800Y+4622800D02*
X+11632714Y+4624876D01*
X+11632012Y+4629029D01*
X+11630542Y+4633182D01*
X+11628140Y+4637335D01*
X+11624467Y+4641434D01*
X+11620314Y+4644443D01*
X+11616161Y+4646360D01*
X+11612008Y+4647443D01*
X+11607855Y+4647800D01*
X+11607800Y+4647800D01*
X+11582800Y+4622800D02*
X+11582886Y+4624876D01*
X+11583588Y+4629029D01*
X+11585058Y+4633182D01*
X+11587460Y+4637335D01*
X+11591133Y+4641434D01*
X+11595286Y+4644443D01*
X+11599439Y+4646360D01*
X+11603592Y+4647443D01*
X+11607745Y+4647800D01*
X+11607800Y+4647800D01*
X+11582800Y+4622800D02*
X+11582886Y+4620724D01*
X+11583588Y+4616571D01*
X+11585058Y+4612418D01*
X+11587460Y+4608265D01*
X+11591133Y+4604166D01*
X+11595286Y+4601157D01*
X+11599439Y+4599240D01*
X+11603592Y+4598157D01*
X+11607745Y+4597800D01*
X+11607800Y+4597800D01*
X+11632800Y+4622800D02*
X+11632714Y+4620724D01*
X+11632012Y+4616571D01*
X+11630542Y+4612418D01*
X+11628140Y+4608265D01*
X+11624467Y+4604166D01*
X+11620314Y+4601157D01*
X+11616161Y+4599240D01*
X+11612008Y+4598157D01*
X+11607855Y+4597800D01*
X+11607800Y+4597800D01*
X+11642800Y+4622800D02*
X+11572800Y+4622800D01*
X+11607800Y+4657800D02*
X+11607800Y+4587800D01*
X+11382800Y+4847800D02*
X+11382800Y+4622800D01*
X+11387277Y+4576795D01*
X+11400158Y+4534250D01*
X+11420620Y+4495991D01*
X+11447839Y+4462839D01*
X+11480990Y+4435621D01*
X+11519250Y+4415158D01*
X+11561795Y+4402277D01*
X+11607800Y+4397800D01*
X+11653805Y+4402277D01*
X+11696350Y+4415158D01*
X+11734610Y+4435621D01*
X+11767761Y+4462839D01*
X+11794980Y+4495991D01*
X+11815442Y+4534250D01*
X+11828323Y+4576795D01*
X+11832800Y+4622800D01*
X+11828323Y+4668805D01*
X+11815442Y+4711350D01*
X+11794980Y+4749609D01*
X+11767761Y+4782761D01*
X+11734610Y+4809979D01*
X+11696350Y+4830442D01*
X+11653805Y+4843323D01*
X+11607800Y+4847800D01*
X+11382800Y+4847800D01*
D49*
X+11682800Y+4622800D02*
X+11682800Y+4622800D01*
D50*
X+11550244Y+4589957D02*
X+11564841Y+4573535D01*
X+11564841Y+4524271D01*
X+11535647Y+4491429D01*
X+11506454Y+4491429D01*
X+11477260Y+4524271D01*
X+11477260Y+4573535D01*
X+11491857Y+4589957D01*
X+11506454Y+4655642D02*
X+11477260Y+4688485D01*
X+11564841Y+4688485D01*
D34*
X+3589020Y+7703820D02*
X+4284980Y+7703820D01*
X+4284980Y+8196580D01*
X+3589020Y+8196580D01*
X+3589020Y+7703820D01*
D53*
X+3733800Y+7874000D02*
X+3733800Y+7874000D01*
D59*
X+3898900Y+7964170D02*
X+3930332Y+7992110D01*
X+3961765Y+7992110D01*
X+3993197Y+7964170D01*
X+3993197Y+7936230D01*
X+3961765Y+7908290D01*
X+3930332Y+7908290D01*
X+3898900Y+7936230D01*
X+3898900Y+7964170D01*
X+3961765Y+7936230D02*
X+3993197Y+7908290D01*
X+4118927Y+7936230D02*
X+4024630Y+7936230D01*
X+4087495Y+7992110D01*
X+4087495Y+7908290D01*
D34*
X+4287520Y+7729220D02*
X+4983480Y+7729220D01*
X+4983480Y+8221980D01*
X+4287520Y+8221980D01*
X+4287520Y+7729220D01*
D53*
X+4432300Y+7899400D02*
X+4432300Y+7899400D01*
D59*
X+4597400Y+7989570D02*
X+4628832Y+8017510D01*
X+4660265Y+8017510D01*
X+4691697Y+7989570D01*
X+4691697Y+7961630D01*
X+4660265Y+7933690D01*
X+4628832Y+7933690D01*
X+4597400Y+7961630D01*
X+4597400Y+7989570D01*
X+4660265Y+7961630D02*
X+4691697Y+7933690D01*
X+4817427Y+8017510D02*
X+4738846Y+8017510D01*
X+4738846Y+7989570D01*
X+4801711Y+7989570D01*
X+4817427Y+7975600D01*
X+4817427Y+7947660D01*
X+4801711Y+7933690D01*
X+4754562Y+7933690D01*
X+4738846Y+7947660D01*
D34*
X+1506220Y+7729220D02*
X+2202180Y+7729220D01*
X+2202180Y+8221980D01*
X+1506220Y+8221980D01*
X+1506220Y+7729220D01*
D53*
X+1651000Y+7899400D02*
X+1651000Y+7899400D01*
D59*
X+1816100Y+7989570D02*
X+1847532Y+8017510D01*
X+1878965Y+8017510D01*
X+1910397Y+7989570D01*
X+1910397Y+7961630D01*
X+1878965Y+7933690D01*
X+1847532Y+7933690D01*
X+1816100Y+7961630D01*
X+1816100Y+7989570D01*
X+1878965Y+7961630D02*
X+1910397Y+7933690D01*
X+2036127Y+7989570D02*
X+2020411Y+7975600D01*
X+1973262Y+7975600D01*
X+1957546Y+7989570D01*
X+1957546Y+8003540D01*
X+1973262Y+8017510D01*
X+2020411Y+8017510D01*
X+2036127Y+8003540D01*
X+2036127Y+7947660D01*
X+2020411Y+7933690D01*
X+1973262Y+7933690D01*
D34*
X+807720Y+7703820D02*
X+1503680Y+7703820D01*
X+1503680Y+8196580D01*
X+807720Y+8196580D01*
X+807720Y+7703820D01*
D53*
X+952500Y+7874000D02*
X+952500Y+7874000D01*
D59*
X+1054735Y+7964170D02*
X+1086167Y+7992110D01*
X+1117600Y+7992110D01*
X+1149032Y+7964170D01*
X+1149032Y+7936230D01*
X+1117600Y+7908290D01*
X+1086167Y+7908290D01*
X+1054735Y+7936230D01*
X+1054735Y+7964170D01*
X+1117600Y+7936230D02*
X+1149032Y+7908290D01*
X+1211897Y+7964170D02*
X+1243330Y+7992110D01*
X+1243330Y+7908290D01*
X+1306195Y+7922260D02*
X+1306195Y+7978140D01*
X+1321911Y+7992110D01*
X+1384776Y+7992110D01*
X+1400492Y+7978140D01*
X+1400492Y+7922260D01*
X+1384776Y+7908290D01*
X+1321911Y+7908290D01*
X+1306195Y+7922260D01*
X+1306195Y+7908290D02*
X+1400492Y+7992110D01*
D34*
X+1912620Y+6700520D02*
X+2608580Y+6700520D01*
X+2608580Y+7193280D01*
X+1912620Y+7193280D01*
X+1912620Y+6700520D01*
D53*
X+2057400Y+6870700D02*
X+2057400Y+6870700D01*
D59*
X+2222500Y+6960870D02*
X+2253932Y+6988810D01*
X+2285365Y+6988810D01*
X+2316797Y+6960870D01*
X+2316797Y+6932930D01*
X+2285365Y+6904990D01*
X+2253932Y+6904990D01*
X+2222500Y+6932930D01*
X+2222500Y+6960870D01*
X+2285365Y+6932930D02*
X+2316797Y+6904990D01*
X+2442527Y+6974840D02*
X+2426811Y+6988810D01*
X+2379662Y+6988810D01*
X+2363946Y+6974840D01*
X+2363946Y+6918960D01*
X+2379662Y+6904990D01*
X+2426811Y+6904990D01*
X+2442527Y+6918960D01*
X+2442527Y+6932930D01*
X+2426811Y+6946900D01*
X+2363946Y+6946900D01*
D34*
X+1226820Y+6687820D02*
X+1922780Y+6687820D01*
X+1922780Y+7180580D01*
X+1226820Y+7180580D01*
X+1226820Y+6687820D01*
D53*
X+1371600Y+6858000D02*
X+1371600Y+6858000D01*
D59*
X+1473835Y+6948170D02*
X+1505267Y+6976110D01*
X+1536700Y+6976110D01*
X+1568132Y+6948170D01*
X+1568132Y+6920230D01*
X+1536700Y+6892290D01*
X+1505267Y+6892290D01*
X+1473835Y+6920230D01*
X+1473835Y+6948170D01*
X+1536700Y+6920230D02*
X+1568132Y+6892290D01*
X+1630997Y+6948170D02*
X+1662430Y+6976110D01*
X+1662430Y+6892290D01*
X+1756727Y+6948170D02*
X+1788160Y+6976110D01*
X+1788160Y+6892290D01*
D34*
X+2903220Y+7703820D02*
X+3599180Y+7703820D01*
X+3599180Y+8196580D01*
X+2903220Y+8196580D01*
X+2903220Y+7703820D01*
D53*
X+3048000Y+7874000D02*
X+3048000Y+7874000D01*
D59*
X+3213100Y+7964170D02*
X+3244532Y+7992110D01*
X+3275965Y+7992110D01*
X+3307397Y+7964170D01*
X+3307397Y+7936230D01*
X+3275965Y+7908290D01*
X+3244532Y+7908290D01*
X+3213100Y+7936230D01*
X+3213100Y+7964170D01*
X+3275965Y+7936230D02*
X+3307397Y+7908290D01*
X+3354546Y+7992110D02*
X+3433127Y+7992110D01*
X+3433127Y+7978140D01*
X+3354546Y+7908290D01*
D34*
X+8694420Y+4178300D02*
X+9720580Y+4178300D01*
X+9720580Y+5067300D01*
X+8694420Y+5067300D01*
X+8694420Y+4178300D01*
D38*
X+8826500Y+4241800D02*
X+8826500Y+4241800D01*
D55*
X+8967013Y+4747412D02*
X+8967013Y+4613808D01*
X+8997073Y+4587087D01*
X+9117317Y+4587087D01*
X+9147378Y+4613808D01*
X+9147378Y+4747412D01*
X+9387865Y+4720691D02*
X+9357804Y+4747412D01*
X+9267621Y+4747412D01*
X+9237560Y+4720691D01*
X+9237560Y+4613808D01*
X+9267621Y+4587087D01*
X+9357804Y+4587087D01*
X+9387865Y+4613808D01*
X+9387865Y+4640529D01*
X+9357804Y+4667250D01*
X+9237560Y+4667250D01*
D48*
X+9455500Y+5372800D02*
X+8995500Y+5372800D01*
X+8995500Y+5142800D01*
X+9455500Y+5142800D01*
X+9455500Y+5372800D01*
X+9225500Y+5207800D02*
X+9225500Y+5307800D01*
X+9175500Y+5257800D02*
X+9275500Y+5257800D01*
D60*
X+9370500Y+5257800D02*
X+9370500Y+5257800D01*
D61*
X+9014645Y+5224672D02*
X+9014645Y+5290927D01*
X+9076758Y+5290927D01*
X+9089180Y+5279884D01*
X+9089180Y+5268842D01*
X+9076758Y+5257800D01*
X+9014645Y+5257800D01*
X+9076758Y+5257800D02*
X+9089180Y+5246757D01*
X+9089180Y+5224672D01*
X+9126448Y+5279884D02*
X+9138871Y+5290927D01*
X+9176139Y+5290927D01*
X+9188561Y+5279884D01*
X+9188561Y+5268842D01*
X+9176139Y+5257800D01*
X+9188561Y+5246757D01*
X+9188561Y+5235715D01*
X+9176139Y+5224672D01*
X+9138871Y+5224672D01*
X+9126448Y+5235715D01*
X+9151293Y+5257800D02*
X+9176139Y+5257800D01*
X+9213407Y+5235715D02*
X+9213407Y+5279884D01*
X+9225829Y+5290927D01*
X+9275520Y+5290927D01*
X+9287942Y+5279884D01*
X+9287942Y+5235715D01*
X+9275520Y+5224672D01*
X+9225829Y+5224672D01*
X+9213407Y+5235715D01*
X+9213407Y+5224672D02*
X+9287942Y+5290927D01*
D48*
X+9782900Y+4634800D02*
X+10242900Y+4634800D01*
X+10242900Y+4864800D01*
X+9782900Y+4864800D01*
X+9782900Y+4634800D01*
X+10012900Y+4799800D02*
X+10012900Y+4699800D01*
X+10062900Y+4749800D02*
X+9962900Y+4749800D01*
D60*
X+9867900Y+4749800D02*
X+9867900Y+4749800D01*
D61*
X+9925613Y+4716672D02*
X+9925613Y+4782927D01*
X+9987726Y+4782927D01*
X+10000148Y+4771884D01*
X+10000148Y+4760842D01*
X+9987726Y+4749800D01*
X+9925613Y+4749800D01*
X+9987726Y+4749800D02*
X+10000148Y+4738757D01*
X+10000148Y+4716672D01*
X+10037416Y+4771884D02*
X+10049839Y+4782927D01*
X+10087107Y+4782927D01*
X+10099529Y+4771884D01*
X+10099529Y+4760842D01*
X+10087107Y+4749800D01*
X+10099529Y+4738757D01*
X+10099529Y+4727715D01*
X+10087107Y+4716672D01*
X+10049839Y+4716672D01*
X+10037416Y+4727715D01*
X+10062261Y+4749800D02*
X+10087107Y+4749800D01*
X+10136797Y+4771884D02*
X+10149220Y+4782927D01*
X+10186488Y+4782927D01*
X+10198910Y+4771884D01*
X+10198910Y+4760842D01*
X+10186488Y+4749800D01*
X+10149220Y+4749800D01*
X+10136797Y+4738757D01*
X+10136797Y+4716672D01*
X+10198910Y+4716672D01*
D34*
X+2598420Y+6700520D02*
X+3294380Y+6700520D01*
X+3294380Y+7193280D01*
X+2598420Y+7193280D01*
X+2598420Y+6700520D01*
D53*
X+2743200Y+6870700D02*
X+2743200Y+6870700D01*
D59*
X+2908300Y+6960870D02*
X+2939732Y+6988810D01*
X+2971165Y+6988810D01*
X+3002597Y+6960870D01*
X+3002597Y+6932930D01*
X+2971165Y+6904990D01*
X+2939732Y+6904990D01*
X+2908300Y+6932930D01*
X+2908300Y+6960870D01*
X+2971165Y+6932930D02*
X+3002597Y+6904990D01*
X+3065462Y+6946900D02*
X+3049746Y+6960870D01*
X+3049746Y+6974840D01*
X+3065462Y+6988810D01*
X+3112611Y+6988810D01*
X+3128327Y+6974840D01*
X+3128327Y+6960870D01*
X+3112611Y+6946900D01*
X+3065462Y+6946900D01*
X+3049746Y+6932930D01*
X+3049746Y+6918960D01*
X+3065462Y+6904990D01*
X+3112611Y+6904990D01*
X+3128327Y+6918960D01*
X+3128327Y+6932930D01*
X+3112611Y+6946900D01*
D34*
X+109220Y+7691120D02*
X+805180Y+7691120D01*
X+805180Y+8183880D01*
X+109220Y+8183880D01*
X+109220Y+7691120D01*
D53*
X+254000Y+7861300D02*
X+254000Y+7861300D01*
D59*
X+356235Y+7951470D02*
X+387667Y+7979410D01*
X+419100Y+7979410D01*
X+450532Y+7951470D01*
X+450532Y+7923530D01*
X+419100Y+7895590D01*
X+387667Y+7895590D01*
X+356235Y+7923530D01*
X+356235Y+7951470D01*
X+419100Y+7923530D02*
X+450532Y+7895590D01*
X+513397Y+7951470D02*
X+544830Y+7979410D01*
X+544830Y+7895590D01*
X+623411Y+7965440D02*
X+639127Y+7979410D01*
X+686276Y+7979410D01*
X+701992Y+7965440D01*
X+701992Y+7951470D01*
X+686276Y+7937500D01*
X+639127Y+7937500D01*
X+623411Y+7923530D01*
X+623411Y+7895590D01*
X+701992Y+7895590D01*
D34*
X+2204720Y+7716520D02*
X+2900680Y+7716520D01*
X+2900680Y+8209280D01*
X+2204720Y+8209280D01*
X+2204720Y+7716520D01*
D53*
X+2349500Y+7886700D02*
X+2349500Y+7886700D01*
D59*
X+2451735Y+7976870D02*
X+2483167Y+8004810D01*
X+2514600Y+8004810D01*
X+2546032Y+7976870D01*
X+2546032Y+7948930D01*
X+2514600Y+7920990D01*
X+2483167Y+7920990D01*
X+2451735Y+7948930D01*
X+2451735Y+7976870D01*
X+2514600Y+7948930D02*
X+2546032Y+7920990D01*
X+2593181Y+7990840D02*
X+2608897Y+8004810D01*
X+2656046Y+8004810D01*
X+2671762Y+7990840D01*
X+2671762Y+7976870D01*
X+2656046Y+7962900D01*
X+2608897Y+7962900D01*
X+2593181Y+7948930D01*
X+2593181Y+7920990D01*
X+2671762Y+7920990D01*
X+2718911Y+7990840D02*
X+2734627Y+8004810D01*
X+2781776Y+8004810D01*
X+2797492Y+7990840D01*
X+2797492Y+7976870D01*
X+2781776Y+7962900D01*
X+2734627Y+7962900D01*
X+2718911Y+7948930D01*
X+2718911Y+7920990D01*
X+2797492Y+7920990D01*
D34*
X+8376920Y+3474720D02*
X+9403080Y+3474720D01*
X+9403080Y+3992880D01*
X+8376920Y+3992880D01*
X+8376920Y+3474720D01*
D44*
X+8636000Y+3733800D02*
X+8636000Y+3733800D01*
D45*
X+8855457Y+3795268D02*
X+8993759Y+3672332D01*
X+8855457Y+3672332D02*
X+8993759Y+3795268D01*
X+9062910Y+3774779D02*
X+9085960Y+3795268D01*
X+9155111Y+3795268D01*
X+9178162Y+3774779D01*
X+9178162Y+3754289D01*
X+9155111Y+3733800D01*
X+9085960Y+3733800D01*
X+9062910Y+3713311D01*
X+9062910Y+3672332D01*
X+9178162Y+3672332D01*
D34*
X+4089600Y+1387100D02*
X+7349600Y+1387100D01*
X+7349600Y+3007100D01*
X+4089600Y+3007100D01*
X+4089600Y+1387100D01*
D62*
X+7159600Y+2197100D02*
X+7159600Y+2197100D01*
D63*
X+4917073Y+2421275D02*
X+4917073Y+2047649D01*
X+5001138Y+1972924D01*
X+5337401Y+1972924D01*
X+5421467Y+2047649D01*
X+5421467Y+2421275D01*
X+5673664Y+2421275D02*
X+6093993Y+2421275D01*
X+6093993Y+2346550D01*
X+5673664Y+1972924D01*
D34*
X+1239520Y+4173220D02*
X+1935480Y+4173220D01*
X+1935480Y+4665980D01*
X+1239520Y+4665980D01*
X+1239520Y+4173220D01*
D53*
X+1384300Y+4343400D02*
X+1384300Y+4343400D01*
D59*
X+1486535Y+4433570D02*
X+1517967Y+4461510D01*
X+1549400Y+4461510D01*
X+1580832Y+4433570D01*
X+1580832Y+4405630D01*
X+1549400Y+4377690D01*
X+1517967Y+4377690D01*
X+1486535Y+4405630D01*
X+1486535Y+4433570D01*
X+1549400Y+4405630D02*
X+1580832Y+4377690D01*
X+1627981Y+4447540D02*
X+1643697Y+4461510D01*
X+1690846Y+4461510D01*
X+1706562Y+4447540D01*
X+1706562Y+4433570D01*
X+1690846Y+4419600D01*
X+1643697Y+4419600D01*
X+1627981Y+4405630D01*
X+1627981Y+4377690D01*
X+1706562Y+4377690D01*
X+1753711Y+4447540D02*
X+1769427Y+4461510D01*
X+1816576Y+4461510D01*
X+1832292Y+4447540D01*
X+1832292Y+4433570D01*
X+1816576Y+4419600D01*
X+1832292Y+4405630D01*
X+1832292Y+4391660D01*
X+1816576Y+4377690D01*
X+1769427Y+4377690D01*
X+1753711Y+4391660D01*
X+1785143Y+4419600D02*
X+1816576Y+4419600D01*
D34*
X+2674620Y+4173220D02*
X+3370580Y+4173220D01*
X+3370580Y+4665980D01*
X+2674620Y+4665980D01*
X+2674620Y+4173220D01*
D53*
X+2819400Y+4343400D02*
X+2819400Y+4343400D01*
D59*
X+2921635Y+4433570D02*
X+2953067Y+4461510D01*
X+2984500Y+4461510D01*
X+3015932Y+4433570D01*
X+3015932Y+4405630D01*
X+2984500Y+4377690D01*
X+2953067Y+4377690D01*
X+2921635Y+4405630D01*
X+2921635Y+4433570D01*
X+2984500Y+4405630D02*
X+3015932Y+4377690D01*
X+3063081Y+4447540D02*
X+3078797Y+4461510D01*
X+3125946Y+4461510D01*
X+3141662Y+4447540D01*
X+3141662Y+4433570D01*
X+3125946Y+4419600D01*
X+3078797Y+4419600D01*
X+3063081Y+4405630D01*
X+3063081Y+4377690D01*
X+3141662Y+4377690D01*
X+3267392Y+4405630D02*
X+3173095Y+4405630D01*
X+3235960Y+4461510D01*
X+3235960Y+4377690D01*
D34*
X+3792220Y+5036820D02*
X+4488180Y+5036820D01*
X+4488180Y+5529580D01*
X+3792220Y+5529580D01*
X+3792220Y+5036820D01*
D53*
X+3937000Y+5207000D02*
X+3937000Y+5207000D01*
D59*
X+4039235Y+5297170D02*
X+4070667Y+5325110D01*
X+4102100Y+5325110D01*
X+4133532Y+5297170D01*
X+4133532Y+5269230D01*
X+4102100Y+5241290D01*
X+4070667Y+5241290D01*
X+4039235Y+5269230D01*
X+4039235Y+5297170D01*
X+4102100Y+5269230D02*
X+4133532Y+5241290D01*
X+4180681Y+5311140D02*
X+4196397Y+5325110D01*
X+4243546Y+5325110D01*
X+4259262Y+5311140D01*
X+4259262Y+5297170D01*
X+4243546Y+5283200D01*
X+4196397Y+5283200D01*
X+4180681Y+5269230D01*
X+4180681Y+5241290D01*
X+4259262Y+5241290D01*
X+4384992Y+5325110D02*
X+4306411Y+5325110D01*
X+4306411Y+5297170D01*
X+4369276Y+5297170D01*
X+4384992Y+5283200D01*
X+4384992Y+5255260D01*
X+4369276Y+5241290D01*
X+4322127Y+5241290D01*
X+4306411Y+5255260D01*
D34*
X+299720Y+5074920D02*
X+995680Y+5074920D01*
X+995680Y+5567680D01*
X+299720Y+5567680D01*
X+299720Y+5074920D01*
D53*
X+444500Y+5245100D02*
X+444500Y+5245100D01*
D59*
X+546735Y+5335270D02*
X+578167Y+5363210D01*
X+609600Y+5363210D01*
X+641032Y+5335270D01*
X+641032Y+5307330D01*
X+609600Y+5279390D01*
X+578167Y+5279390D01*
X+546735Y+5307330D01*
X+546735Y+5335270D01*
X+609600Y+5307330D02*
X+641032Y+5279390D01*
X+688181Y+5349240D02*
X+703897Y+5363210D01*
X+751046Y+5363210D01*
X+766762Y+5349240D01*
X+766762Y+5335270D01*
X+751046Y+5321300D01*
X+703897Y+5321300D01*
X+688181Y+5307330D01*
X+688181Y+5279390D01*
X+766762Y+5279390D01*
X+892492Y+5349240D02*
X+876776Y+5363210D01*
X+829627Y+5363210D01*
X+813911Y+5349240D01*
X+813911Y+5293360D01*
X+829627Y+5279390D01*
X+876776Y+5279390D01*
X+892492Y+5293360D01*
X+892492Y+5307330D01*
X+876776Y+5321300D01*
X+813911Y+5321300D01*
D34*
X+1963420Y+4160520D02*
X+2659380Y+4160520D01*
X+2659380Y+4653280D01*
X+1963420Y+4653280D01*
X+1963420Y+4160520D01*
D53*
X+2108200Y+4330700D02*
X+2108200Y+4330700D01*
D59*
X+2210435Y+4420870D02*
X+2241867Y+4448810D01*
X+2273300Y+4448810D01*
X+2304732Y+4420870D01*
X+2304732Y+4392930D01*
X+2273300Y+4364990D01*
X+2241867Y+4364990D01*
X+2210435Y+4392930D01*
X+2210435Y+4420870D01*
X+2273300Y+4392930D02*
X+2304732Y+4364990D01*
X+2351881Y+4434840D02*
X+2367597Y+4448810D01*
X+2414746Y+4448810D01*
X+2430462Y+4434840D01*
X+2430462Y+4420870D01*
X+2414746Y+4406900D01*
X+2367597Y+4406900D01*
X+2351881Y+4392930D01*
X+2351881Y+4364990D01*
X+2430462Y+4364990D01*
X+2477611Y+4448810D02*
X+2556192Y+4448810D01*
X+2556192Y+4434840D01*
X+2477611Y+4364990D01*
D34*
X+985520Y+5036820D02*
X+1681480Y+5036820D01*
X+1681480Y+5529580D01*
X+985520Y+5529580D01*
X+985520Y+5036820D01*
D53*
X+1130300Y+5207000D02*
X+1130300Y+5207000D01*
D59*
X+1232535Y+5297170D02*
X+1263967Y+5325110D01*
X+1295400Y+5325110D01*
X+1326832Y+5297170D01*
X+1326832Y+5269230D01*
X+1295400Y+5241290D01*
X+1263967Y+5241290D01*
X+1232535Y+5269230D01*
X+1232535Y+5297170D01*
X+1295400Y+5269230D02*
X+1326832Y+5241290D01*
X+1373981Y+5311140D02*
X+1389697Y+5325110D01*
X+1436846Y+5325110D01*
X+1452562Y+5311140D01*
X+1452562Y+5297170D01*
X+1436846Y+5283200D01*
X+1389697Y+5283200D01*
X+1373981Y+5269230D01*
X+1373981Y+5241290D01*
X+1452562Y+5241290D01*
X+1515427Y+5283200D02*
X+1499711Y+5297170D01*
X+1499711Y+5311140D01*
X+1515427Y+5325110D01*
X+1562576Y+5325110D01*
X+1578292Y+5311140D01*
X+1578292Y+5297170D01*
X+1562576Y+5283200D01*
X+1515427Y+5283200D01*
X+1499711Y+5269230D01*
X+1499711Y+5255260D01*
X+1515427Y+5241290D01*
X+1562576Y+5241290D01*
X+1578292Y+5255260D01*
X+1578292Y+5269230D01*
X+1562576Y+5283200D01*
D34*
X+3068320Y+4998720D02*
X+3764280Y+4998720D01*
X+3764280Y+5491480D01*
X+3068320Y+5491480D01*
X+3068320Y+4998720D01*
D53*
X+3213100Y+5168900D02*
X+3213100Y+5168900D01*
D59*
X+3315335Y+5259070D02*
X+3346767Y+5287010D01*
X+3378200Y+5287010D01*
X+3409632Y+5259070D01*
X+3409632Y+5231130D01*
X+3378200Y+5203190D01*
X+3346767Y+5203190D01*
X+3315335Y+5231130D01*
X+3315335Y+5259070D01*
X+3378200Y+5231130D02*
X+3409632Y+5203190D01*
X+3456781Y+5273040D02*
X+3472497Y+5287010D01*
X+3519646Y+5287010D01*
X+3535362Y+5273040D01*
X+3535362Y+5259070D01*
X+3519646Y+5245100D01*
X+3472497Y+5245100D01*
X+3456781Y+5231130D01*
X+3456781Y+5203190D01*
X+3535362Y+5203190D01*
X+3661092Y+5259070D02*
X+3645376Y+5245100D01*
X+3598227Y+5245100D01*
X+3582511Y+5259070D01*
X+3582511Y+5273040D01*
X+3598227Y+5287010D01*
X+3645376Y+5287010D01*
X+3661092Y+5273040D01*
X+3661092Y+5217160D01*
X+3645376Y+5203190D01*
X+3598227Y+5203190D01*
D34*
X+1658620Y+5062220D02*
X+2354580Y+5062220D01*
X+2354580Y+5554980D01*
X+1658620Y+5554980D01*
X+1658620Y+5062220D01*
D53*
X+1803400Y+5232400D02*
X+1803400Y+5232400D01*
D59*
X+1905635Y+5322570D02*
X+1937067Y+5350510D01*
X+1968500Y+5350510D01*
X+1999932Y+5322570D01*
X+1999932Y+5294630D01*
X+1968500Y+5266690D01*
X+1937067Y+5266690D01*
X+1905635Y+5294630D01*
X+1905635Y+5322570D01*
X+1968500Y+5294630D02*
X+1999932Y+5266690D01*
X+2047081Y+5336540D02*
X+2062797Y+5350510D01*
X+2109946Y+5350510D01*
X+2125662Y+5336540D01*
X+2125662Y+5322570D01*
X+2109946Y+5308600D01*
X+2125662Y+5294630D01*
X+2125662Y+5280660D01*
X+2109946Y+5266690D01*
X+2062797Y+5266690D01*
X+2047081Y+5280660D01*
X+2078513Y+5308600D02*
X+2109946Y+5308600D01*
X+2157095Y+5280660D02*
X+2157095Y+5336540D01*
X+2172811Y+5350510D01*
X+2235676Y+5350510D01*
X+2251392Y+5336540D01*
X+2251392Y+5280660D01*
X+2235676Y+5266690D01*
X+2172811Y+5266690D01*
X+2157095Y+5280660D01*
X+2157095Y+5266690D02*
X+2251392Y+5350510D01*
D34*
X+3360420Y+4147820D02*
X+4056380Y+4147820D01*
X+4056380Y+4640580D01*
X+3360420Y+4640580D01*
X+3360420Y+4147820D01*
D53*
X+3505200Y+4318000D02*
X+3505200Y+4318000D01*
D59*
X+3607435Y+4408170D02*
X+3638867Y+4436110D01*
X+3670300Y+4436110D01*
X+3701732Y+4408170D01*
X+3701732Y+4380230D01*
X+3670300Y+4352290D01*
X+3638867Y+4352290D01*
X+3607435Y+4380230D01*
X+3607435Y+4408170D01*
X+3670300Y+4380230D02*
X+3701732Y+4352290D01*
X+3748881Y+4422140D02*
X+3764597Y+4436110D01*
X+3811746Y+4436110D01*
X+3827462Y+4422140D01*
X+3827462Y+4408170D01*
X+3811746Y+4394200D01*
X+3827462Y+4380230D01*
X+3827462Y+4366260D01*
X+3811746Y+4352290D01*
X+3764597Y+4352290D01*
X+3748881Y+4366260D01*
X+3780313Y+4394200D02*
X+3811746Y+4394200D01*
X+3890327Y+4408170D02*
X+3921760Y+4436110D01*
X+3921760Y+4352290D01*
D34*
X+2344420Y+5011420D02*
X+3040380Y+5011420D01*
X+3040380Y+5504180D01*
X+2344420Y+5504180D01*
X+2344420Y+5011420D01*
D53*
X+2489200Y+5181600D02*
X+2489200Y+5181600D01*
D59*
X+2591435Y+5271770D02*
X+2622867Y+5299710D01*
X+2654300Y+5299710D01*
X+2685732Y+5271770D01*
X+2685732Y+5243830D01*
X+2654300Y+5215890D01*
X+2622867Y+5215890D01*
X+2591435Y+5243830D01*
X+2591435Y+5271770D01*
X+2654300Y+5243830D02*
X+2685732Y+5215890D01*
X+2732881Y+5285740D02*
X+2748597Y+5299710D01*
X+2795746Y+5299710D01*
X+2811462Y+5285740D01*
X+2811462Y+5271770D01*
X+2795746Y+5257800D01*
X+2811462Y+5243830D01*
X+2811462Y+5229860D01*
X+2795746Y+5215890D01*
X+2748597Y+5215890D01*
X+2732881Y+5229860D01*
X+2764313Y+5257800D02*
X+2795746Y+5257800D01*
X+2858611Y+5285740D02*
X+2874327Y+5299710D01*
X+2921476Y+5299710D01*
X+2937192Y+5285740D01*
X+2937192Y+5271770D01*
X+2921476Y+5257800D01*
X+2874327Y+5257800D01*
X+2858611Y+5243830D01*
X+2858611Y+5215890D01*
X+2937192Y+5215890D01*
D48*
X+12035200Y+4532300D02*
X+11685200Y+4532300D01*
X+11685200Y+4332300D01*
X+12035200Y+4332300D01*
X+12035200Y+4532300D01*
X+11860200Y+4382300D02*
X+11860200Y+4482300D01*
X+11810200Y+4432300D02*
X+11910200Y+4432300D01*
D64*
X+11960200Y+4432300D02*
X+11960200Y+4432300D01*
D65*
X+11735458Y+4408462D02*
X+11735458Y+4456138D01*
X+11780154Y+4456138D01*
X+11789093Y+4448192D01*
X+11789093Y+4440246D01*
X+11780154Y+4432300D01*
X+11735458Y+4432300D01*
X+11780154Y+4432300D02*
X+11789093Y+4424354D01*
X+11789093Y+4408462D01*
X+11824850Y+4440246D02*
X+11842729Y+4456138D01*
X+11842729Y+4408462D01*
D39*
X+948690Y+6272200D02*
X+948690Y+6020740D01*
X+3699510Y+6020740D01*
X+3699510Y+6272200D01*
X+948690Y+6272200D01*
X+948690Y+6020740D01*
X+3699510Y+6020740D01*
X+3699510Y+6272200D01*
X+948690Y+6272200D01*
D66*
X+1124100Y+6146800D02*
X+1124100Y+6146800D01*
D51*
X+2268606Y+6128583D02*
X+2268606Y+6110696D01*
X+2288728Y+6092810D01*
X+2369217Y+6092810D01*
X+2389340Y+6110696D01*
X+2389340Y+6200129D01*
X+2449707Y+6182243D02*
X+2469829Y+6200129D01*
X+2530196Y+6200129D01*
X+2550319Y+6182243D01*
X+2550319Y+6164356D01*
X+2530196Y+6146470D01*
X+2469829Y+6146470D01*
X+2449707Y+6128583D01*
X+2449707Y+6092810D01*
X+2550319Y+6092810D01*
D39*
X+961390Y+3605200D02*
X+961390Y+3353740D01*
X+3712210Y+3353740D01*
X+3712210Y+3605200D01*
X+961390Y+3605200D01*
X+961390Y+3353740D01*
X+3712210Y+3353740D01*
X+3712210Y+3605200D01*
X+961390Y+3605200D01*
D66*
X+1136800Y+3479800D02*
X+1136800Y+3479800D01*
D51*
X+2281306Y+3461583D02*
X+2281306Y+3443696D01*
X+2301428Y+3425810D01*
X+2381917Y+3425810D01*
X+2402040Y+3443696D01*
X+2402040Y+3533129D01*
X+2563019Y+3533129D02*
X+2462407Y+3533129D01*
X+2462407Y+3497356D01*
X+2542896Y+3497356D01*
X+2563019Y+3479470D01*
X+2563019Y+3443696D01*
X+2542896Y+3425810D01*
X+2482529Y+3425810D01*
X+2462407Y+3443696D01*
D34*
X+190500Y+3009900D02*
X+1384300Y+3009900D01*
X+1384300Y+3187700D01*
X+190500Y+3187700D01*
X+190500Y+3009900D01*
D56*
X+1295400Y+3098800D02*
X+1295400Y+3098800D01*
D57*
X+619558Y+3063596D02*
X+619558Y+3134004D01*
X+685565Y+3134004D01*
X+698767Y+3122269D01*
X+698767Y+3110535D01*
X+685565Y+3098800D01*
X+619558Y+3098800D01*
X+685565Y+3098800D02*
X+698767Y+3087065D01*
X+698767Y+3063596D01*
X+804379Y+3087065D02*
X+725170Y+3087065D01*
X+777976Y+3134004D01*
X+777976Y+3063596D01*
D34*
X+50800Y+5054600D02*
X+228600Y+5054600D01*
X+228600Y+6248400D01*
X+50800Y+6248400D01*
X+50800Y+5054600D01*
D56*
X+139700Y+6159500D02*
X+139700Y+6159500D01*
D57*
X+174904Y+5483658D02*
X+104496Y+5483658D01*
X+104496Y+5549665D01*
X+116231Y+5562867D01*
X+127965Y+5562867D01*
X+139700Y+5549665D01*
X+139700Y+5483658D01*
X+139700Y+5549665D02*
X+151435Y+5562867D01*
X+174904Y+5562867D01*
X+116231Y+5602471D02*
X+104496Y+5615673D01*
X+104496Y+5655277D01*
X+116231Y+5668479D01*
X+127965Y+5668479D01*
X+139700Y+5655277D01*
X+151435Y+5668479D01*
X+163169Y+5668479D01*
X+174904Y+5655277D01*
X+174904Y+5615673D01*
X+163169Y+5602471D01*
X+139700Y+5628874D02*
X+139700Y+5655277D01*
D34*
X+10833100Y+1587500D02*
X+12026900Y+1587500D01*
X+12026900Y+1765300D01*
X+10833100Y+1765300D01*
X+10833100Y+1587500D01*
D56*
X+10922000Y+1676400D02*
X+10922000Y+1676400D01*
D57*
X+11386618Y+1641196D02*
X+11386618Y+1711604D01*
X+11452625Y+1711604D01*
X+11465827Y+1699869D01*
X+11465827Y+1688135D01*
X+11452625Y+1676400D01*
X+11386618Y+1676400D01*
X+11452625Y+1676400D02*
X+11465827Y+1664665D01*
X+11465827Y+1641196D01*
X+11505431Y+1711604D02*
X+11571439Y+1711604D01*
X+11571439Y+1699869D01*
X+11505431Y+1641196D01*
D48*
X+10870800Y+2019300D02*
X+10870714Y+2021376D01*
X+10870012Y+2025529D01*
X+10868542Y+2029682D01*
X+10866140Y+2033835D01*
X+10862467Y+2037934D01*
X+10858314Y+2040943D01*
X+10854161Y+2042860D01*
X+10850008Y+2043943D01*
X+10845855Y+2044300D01*
X+10845800Y+2044300D01*
X+10820800Y+2019300D02*
X+10820886Y+2021376D01*
X+10821588Y+2025529D01*
X+10823058Y+2029682D01*
X+10825460Y+2033835D01*
X+10829133Y+2037934D01*
X+10833286Y+2040943D01*
X+10837439Y+2042860D01*
X+10841592Y+2043943D01*
X+10845745Y+2044300D01*
X+10845800Y+2044300D01*
X+10820800Y+2019300D02*
X+10820886Y+2017224D01*
X+10821588Y+2013071D01*
X+10823058Y+2008918D01*
X+10825460Y+2004765D01*
X+10829133Y+2000666D01*
X+10833286Y+1997657D01*
X+10837439Y+1995740D01*
X+10841592Y+1994657D01*
X+10845745Y+1994300D01*
X+10845800Y+1994300D01*
X+10870800Y+2019300D02*
X+10870714Y+2017224D01*
X+10870012Y+2013071D01*
X+10868542Y+2008918D01*
X+10866140Y+2004765D01*
X+10862467Y+2000666D01*
X+10858314Y+1997657D01*
X+10854161Y+1995740D01*
X+10850008Y+1994657D01*
X+10845855Y+1994300D01*
X+10845800Y+1994300D01*
X+10810800Y+2019300D02*
X+10880800Y+2019300D01*
X+10845800Y+1984300D02*
X+10845800Y+2054300D01*
X+11070800Y+1794300D02*
X+11070800Y+2019300D01*
X+11066323Y+2065305D01*
X+11053442Y+2107850D01*
X+11032980Y+2146109D01*
X+11005761Y+2179261D01*
X+10972610Y+2206479D01*
X+10934350Y+2226942D01*
X+10891805Y+2239823D01*
X+10845800Y+2244300D01*
X+10799795Y+2239823D01*
X+10757250Y+2226942D01*
X+10718990Y+2206479D01*
X+10685839Y+2179261D01*
X+10658620Y+2146109D01*
X+10638158Y+2107850D01*
X+10625277Y+2065305D01*
X+10620800Y+2019300D01*
X+10625277Y+1973295D01*
X+10638158Y+1930750D01*
X+10658620Y+1892491D01*
X+10685839Y+1859339D01*
X+10718990Y+1832121D01*
X+10757250Y+1811658D01*
X+10799795Y+1798777D01*
X+10845800Y+1794300D01*
X+11070800Y+1794300D01*
D49*
X+10770800Y+2019300D02*
X+10770800Y+2019300D01*
D50*
X+10961744Y+1920772D02*
X+10976341Y+1904350D01*
X+10976341Y+1855086D01*
X+10947147Y+1822244D01*
X+10917954Y+1822244D01*
X+10888760Y+1855086D01*
X+10888760Y+1904350D01*
X+10903357Y+1920772D01*
X+10917954Y+1986457D02*
X+10888760Y+2019300D01*
X+10976341Y+2019300D01*
X+10961744Y+2084986D02*
X+10903357Y+2084986D01*
X+10888760Y+2101407D01*
X+10888760Y+2167092D01*
X+10903357Y+2183514D01*
X+10961744Y+2183514D01*
X+10976341Y+2167092D01*
X+10976341Y+2101407D01*
X+10961744Y+2084986D01*
X+10976341Y+2084986D02*
X+10888760Y+2183514D01*
D34*
X+12065000Y+3898900D02*
X+12242800Y+3898900D01*
X+12242800Y+5092700D01*
X+12065000Y+5092700D01*
X+12065000Y+3898900D01*
D56*
X+12153900Y+5003800D02*
X+12153900Y+5003800D01*
D57*
X+12189104Y+4327958D02*
X+12118696Y+4327958D01*
X+12118696Y+4393965D01*
X+12130431Y+4407167D01*
X+12142165Y+4407167D01*
X+12153900Y+4393965D01*
X+12153900Y+4327958D01*
X+12153900Y+4393965D02*
X+12165635Y+4407167D01*
X+12189104Y+4407167D01*
X+12142165Y+4512779D02*
X+12153900Y+4499577D01*
X+12153900Y+4459973D01*
X+12142165Y+4446771D01*
X+12130431Y+4446771D01*
X+12118696Y+4459973D01*
X+12118696Y+4499577D01*
X+12130431Y+4512779D01*
X+12177369Y+4512779D01*
X+12189104Y+4499577D01*
X+12189104Y+4459973D01*
D34*
X+403720Y+5775820D02*
X+713880Y+5775820D01*
X+713880Y+6585980D01*
X+403720Y+6585980D01*
X+403720Y+5775820D01*
D53*
X+558800Y+5930900D02*
X+558800Y+5930900D01*
D54*
X+598224Y+6229328D02*
X+617936Y+6207152D01*
X+617936Y+6140624D01*
X+578512Y+6096272D01*
X+539088Y+6096272D01*
X+499664Y+6140624D01*
X+499664Y+6207152D01*
X+519376Y+6229328D01*
X+558800Y+6318032D02*
X+539088Y+6295856D01*
X+519376Y+6295856D01*
X+499664Y+6318032D01*
X+499664Y+6384560D01*
X+519376Y+6406736D01*
X+539088Y+6406736D01*
X+558800Y+6384560D01*
X+558800Y+6318032D01*
X+578512Y+6295856D01*
X+598224Y+6295856D01*
X+617936Y+6318032D01*
X+617936Y+6384560D01*
X+598224Y+6406736D01*
X+578512Y+6406736D01*
X+558800Y+6384560D01*
D34*
X+12174220Y+7500620D02*
X+13200380Y+7500620D01*
X+13200380Y+8526780D01*
X+12174220Y+8526780D01*
X+12174220Y+7500620D01*
D42*
X+12433300Y+8013700D02*
X+12433300Y+8013700D01*
D43*
X+12875294Y+7761936D02*
X+12903268Y+7761936D01*
X+12931242Y+7793406D01*
X+12931242Y+7919288D01*
X+12903268Y+7950759D01*
X+12763399Y+7950759D01*
X+12791373Y+8045170D02*
X+12763399Y+8076641D01*
X+12763399Y+8171052D01*
X+12791373Y+8202523D01*
X+12819347Y+8202523D01*
X+12847320Y+8171052D01*
X+12875294Y+8202523D01*
X+12903268Y+8202523D01*
X+12931242Y+8171052D01*
X+12931242Y+8076641D01*
X+12903268Y+8045170D01*
X+12847320Y+8108111D02*
X+12847320Y+8171052D01*
M02*
