G04 PROTEUS GERBER X2 FILE*
%TF.GenerationSoftware,Labcenter,Proteus,8.17-SP2-Build37159*%
%TF.CreationDate,2025-02-23T13:52:33+00:00*%
%TF.FileFunction,Legend,Bot*%
%TF.FilePolarity,Positive*%
%TF.Part,Single*%
%TF.SameCoordinates,{f5fd30df-bfb1-41d0-8757-df29ac62e929}*%
%FSLAX45Y45*%
%MOMM*%
G01*
%TA.AperFunction,Profile*%
%ADD73C,0.101600*%
%TA.AperFunction,Material*%
%ADD34C,0.101600*%
%ADD36C,0.200000*%
%ADD38C,0.508000*%
%ADD41C,0.203200*%
%TD.AperFunction*%
D73*
X+0Y+635000D02*
X+14900000Y+635000D01*
X+14900000Y+8835000D01*
X+0Y+635000D02*
X+0Y+8835000D01*
X+14900000Y+8835000D01*
D34*
X+12470460Y+2651460D02*
X+12470460Y+2473660D01*
X+12729540Y+2651460D02*
X+12729540Y+2473660D01*
X+12363780Y+2669240D02*
X+12439980Y+2669240D01*
X+12439980Y+2589230D01*
X+12389180Y+2535890D02*
X+12363780Y+2509220D01*
X+12439980Y+2509220D01*
D36*
X+5061200Y+4913800D02*
X+4961200Y+4913800D01*
X+5061200Y+5093800D02*
X+4961200Y+5093800D01*
D34*
X+5571220Y+4979200D02*
X+5571220Y+5055400D01*
X+5504545Y+5055400D01*
X+5491210Y+5042700D01*
X+5491210Y+5030000D01*
X+5504545Y+5017300D01*
X+5571220Y+5017300D01*
X+5504545Y+5017300D02*
X+5491210Y+5004600D01*
X+5491210Y+4979200D01*
X+5437870Y+5030000D02*
X+5411200Y+5055400D01*
X+5411200Y+4979200D01*
X+5331190Y+5030000D02*
X+5304520Y+5055400D01*
X+5304520Y+4979200D01*
D36*
X+5073900Y+5180500D02*
X+4973900Y+5180500D01*
X+5073900Y+5360500D02*
X+4973900Y+5360500D01*
D34*
X+5583920Y+5245900D02*
X+5583920Y+5322100D01*
X+5517245Y+5322100D01*
X+5503910Y+5309400D01*
X+5503910Y+5296700D01*
X+5517245Y+5284000D01*
X+5583920Y+5284000D01*
X+5517245Y+5284000D02*
X+5503910Y+5271300D01*
X+5503910Y+5245900D01*
X+5450570Y+5296700D02*
X+5423900Y+5322100D01*
X+5423900Y+5245900D01*
X+5357225Y+5309400D02*
X+5343890Y+5322100D01*
X+5303885Y+5322100D01*
X+5290550Y+5309400D01*
X+5290550Y+5296700D01*
X+5303885Y+5284000D01*
X+5290550Y+5271300D01*
X+5290550Y+5258600D01*
X+5303885Y+5245900D01*
X+5343890Y+5245900D01*
X+5357225Y+5258600D01*
X+5330555Y+5284000D02*
X+5303885Y+5284000D01*
D36*
X+5073900Y+5409100D02*
X+4973900Y+5409100D01*
X+5073900Y+5589100D02*
X+4973900Y+5589100D01*
D34*
X+5583920Y+5474500D02*
X+5583920Y+5550700D01*
X+5517245Y+5550700D01*
X+5503910Y+5538000D01*
X+5503910Y+5525300D01*
X+5517245Y+5512600D01*
X+5583920Y+5512600D01*
X+5517245Y+5512600D02*
X+5503910Y+5499900D01*
X+5503910Y+5474500D01*
X+5450570Y+5525300D02*
X+5423900Y+5550700D01*
X+5423900Y+5474500D01*
X+5290550Y+5550700D02*
X+5357225Y+5550700D01*
X+5357225Y+5525300D01*
X+5303885Y+5525300D01*
X+5290550Y+5512600D01*
X+5290550Y+5487200D01*
X+5303885Y+5474500D01*
X+5343890Y+5474500D01*
X+5357225Y+5487200D01*
D36*
X+5710400Y+3660000D02*
X+5610400Y+3660000D01*
X+5710400Y+3840000D02*
X+5610400Y+3840000D01*
D34*
X+6220420Y+3725400D02*
X+6220420Y+3801600D01*
X+6153745Y+3801600D01*
X+6140410Y+3788900D01*
X+6140410Y+3776200D01*
X+6153745Y+3763500D01*
X+6220420Y+3763500D01*
X+6153745Y+3763500D02*
X+6140410Y+3750800D01*
X+6140410Y+3725400D01*
X+6087070Y+3776200D02*
X+6060400Y+3801600D01*
X+6060400Y+3725400D01*
X+5927050Y+3788900D02*
X+5940385Y+3801600D01*
X+5980390Y+3801600D01*
X+5993725Y+3788900D01*
X+5993725Y+3738100D01*
X+5980390Y+3725400D01*
X+5940385Y+3725400D01*
X+5927050Y+3738100D01*
X+5927050Y+3750800D01*
X+5940385Y+3763500D01*
X+5993725Y+3763500D01*
D36*
X+5061200Y+4672500D02*
X+4961200Y+4672500D01*
X+5061200Y+4852500D02*
X+4961200Y+4852500D01*
D34*
X+5571220Y+4737900D02*
X+5571220Y+4814100D01*
X+5504545Y+4814100D01*
X+5491210Y+4801400D01*
X+5491210Y+4788700D01*
X+5504545Y+4776000D01*
X+5571220Y+4776000D01*
X+5504545Y+4776000D02*
X+5491210Y+4763300D01*
X+5491210Y+4737900D01*
X+5437870Y+4788700D02*
X+5411200Y+4814100D01*
X+5411200Y+4737900D01*
X+5344525Y+4814100D02*
X+5277850Y+4814100D01*
X+5277850Y+4801400D01*
X+5344525Y+4737900D01*
D36*
X+7481400Y+3268400D02*
X+7481400Y+3168400D01*
X+7301400Y+3268400D02*
X+7301400Y+3168400D01*
D34*
X+7266000Y+3378420D02*
X+7189800Y+3378420D01*
X+7189800Y+3311745D01*
X+7202500Y+3298410D01*
X+7215200Y+3298410D01*
X+7227900Y+3311745D01*
X+7227900Y+3378420D01*
X+7227900Y+3311745D02*
X+7240600Y+3298410D01*
X+7266000Y+3298410D01*
X+7215200Y+3245070D02*
X+7189800Y+3218400D01*
X+7266000Y+3218400D01*
X+7227900Y+3138390D02*
X+7215200Y+3151725D01*
X+7202500Y+3151725D01*
X+7189800Y+3138390D01*
X+7189800Y+3098385D01*
X+7202500Y+3085050D01*
X+7215200Y+3085050D01*
X+7227900Y+3098385D01*
X+7227900Y+3138390D01*
X+7240600Y+3151725D01*
X+7253300Y+3151725D01*
X+7266000Y+3138390D01*
X+7266000Y+3098385D01*
X+7253300Y+3085050D01*
X+7240600Y+3085050D01*
X+7227900Y+3098385D01*
D36*
X+5710400Y+3910000D02*
X+5610400Y+3910000D01*
X+5710400Y+4090000D02*
X+5610400Y+4090000D01*
D34*
X+6220420Y+3975400D02*
X+6220420Y+4051600D01*
X+6153745Y+4051600D01*
X+6140410Y+4038900D01*
X+6140410Y+4026200D01*
X+6153745Y+4013500D01*
X+6220420Y+4013500D01*
X+6153745Y+4013500D02*
X+6140410Y+4000800D01*
X+6140410Y+3975400D01*
X+6087070Y+4026200D02*
X+6060400Y+4051600D01*
X+6060400Y+3975400D01*
X+5927050Y+4026200D02*
X+5940385Y+4013500D01*
X+5980390Y+4013500D01*
X+5993725Y+4026200D01*
X+5993725Y+4038900D01*
X+5980390Y+4051600D01*
X+5940385Y+4051600D01*
X+5927050Y+4038900D01*
X+5927050Y+3988100D01*
X+5940385Y+3975400D01*
X+5980390Y+3975400D01*
D36*
X+5710400Y+4160000D02*
X+5610400Y+4160000D01*
X+5710400Y+4340000D02*
X+5610400Y+4340000D01*
D34*
X+6220420Y+4225400D02*
X+6220420Y+4301600D01*
X+6153745Y+4301600D01*
X+6140410Y+4288900D01*
X+6140410Y+4276200D01*
X+6153745Y+4263500D01*
X+6220420Y+4263500D01*
X+6153745Y+4263500D02*
X+6140410Y+4250800D01*
X+6140410Y+4225400D01*
X+6100405Y+4288900D02*
X+6087070Y+4301600D01*
X+6047065Y+4301600D01*
X+6033730Y+4288900D01*
X+6033730Y+4276200D01*
X+6047065Y+4263500D01*
X+6087070Y+4263500D01*
X+6100405Y+4250800D01*
X+6100405Y+4225400D01*
X+6033730Y+4225400D01*
X+6007060Y+4238100D02*
X+6007060Y+4288900D01*
X+5993725Y+4301600D01*
X+5940385Y+4301600D01*
X+5927050Y+4288900D01*
X+5927050Y+4238100D01*
X+5940385Y+4225400D01*
X+5993725Y+4225400D01*
X+6007060Y+4238100D01*
X+6007060Y+4225400D02*
X+5927050Y+4301600D01*
D36*
X+7610000Y+7755000D02*
X+7610000Y+7855000D01*
X+7790000Y+7755000D02*
X+7790000Y+7855000D01*
D34*
X+7901600Y+7965020D02*
X+7825400Y+7965020D01*
X+7825400Y+7898345D01*
X+7838100Y+7885010D01*
X+7850800Y+7885010D01*
X+7863500Y+7898345D01*
X+7863500Y+7965020D01*
X+7863500Y+7898345D02*
X+7876200Y+7885010D01*
X+7901600Y+7885010D01*
X+7838100Y+7845005D02*
X+7825400Y+7831670D01*
X+7825400Y+7791665D01*
X+7838100Y+7778330D01*
X+7850800Y+7778330D01*
X+7863500Y+7791665D01*
X+7863500Y+7831670D01*
X+7876200Y+7845005D01*
X+7901600Y+7845005D01*
X+7901600Y+7778330D01*
X+7838100Y+7738325D02*
X+7825400Y+7724990D01*
X+7825400Y+7684985D01*
X+7838100Y+7671650D01*
X+7850800Y+7671650D01*
X+7863500Y+7684985D01*
X+7863500Y+7724990D01*
X+7876200Y+7738325D01*
X+7901600Y+7738325D01*
X+7901600Y+7671650D01*
D36*
X+7263300Y+7765800D02*
X+7263300Y+7865800D01*
X+7443300Y+7765800D02*
X+7443300Y+7865800D01*
D34*
X+7554900Y+7975820D02*
X+7478700Y+7975820D01*
X+7478700Y+7909145D01*
X+7491400Y+7895810D01*
X+7504100Y+7895810D01*
X+7516800Y+7909145D01*
X+7516800Y+7975820D01*
X+7516800Y+7909145D02*
X+7529500Y+7895810D01*
X+7554900Y+7895810D01*
X+7491400Y+7855805D02*
X+7478700Y+7842470D01*
X+7478700Y+7802465D01*
X+7491400Y+7789130D01*
X+7504100Y+7789130D01*
X+7516800Y+7802465D01*
X+7516800Y+7842470D01*
X+7529500Y+7855805D01*
X+7554900Y+7855805D01*
X+7554900Y+7789130D01*
X+7529500Y+7682450D02*
X+7529500Y+7762460D01*
X+7478700Y+7709120D01*
X+7554900Y+7709120D01*
D36*
X+5059100Y+6310800D02*
X+4959100Y+6310800D01*
X+5059100Y+6490800D02*
X+4959100Y+6490800D01*
D34*
X+5169120Y+6526200D02*
X+5169120Y+6602400D01*
X+5102445Y+6602400D01*
X+5089110Y+6589700D01*
X+5089110Y+6577000D01*
X+5102445Y+6564300D01*
X+5169120Y+6564300D01*
X+5102445Y+6564300D02*
X+5089110Y+6551600D01*
X+5089110Y+6526200D01*
X+5049105Y+6589700D02*
X+5035770Y+6602400D01*
X+4995765Y+6602400D01*
X+4982430Y+6589700D01*
X+4982430Y+6577000D01*
X+4995765Y+6564300D01*
X+5035770Y+6564300D01*
X+5049105Y+6551600D01*
X+5049105Y+6526200D01*
X+4982430Y+6526200D01*
X+4875750Y+6589700D02*
X+4889085Y+6602400D01*
X+4929090Y+6602400D01*
X+4942425Y+6589700D01*
X+4942425Y+6538900D01*
X+4929090Y+6526200D01*
X+4889085Y+6526200D01*
X+4875750Y+6538900D01*
X+4875750Y+6551600D01*
X+4889085Y+6564300D01*
X+4942425Y+6564300D01*
D36*
X+5059100Y+6539400D02*
X+4959100Y+6539400D01*
X+5059100Y+6719400D02*
X+4959100Y+6719400D01*
D34*
X+5169120Y+6754800D02*
X+5169120Y+6831000D01*
X+5102445Y+6831000D01*
X+5089110Y+6818300D01*
X+5089110Y+6805600D01*
X+5102445Y+6792900D01*
X+5169120Y+6792900D01*
X+5102445Y+6792900D02*
X+5089110Y+6780200D01*
X+5089110Y+6754800D01*
X+5049105Y+6818300D02*
X+5035770Y+6831000D01*
X+4995765Y+6831000D01*
X+4982430Y+6818300D01*
X+4982430Y+6805600D01*
X+4995765Y+6792900D01*
X+5035770Y+6792900D01*
X+5049105Y+6780200D01*
X+5049105Y+6754800D01*
X+4982430Y+6754800D01*
X+4942425Y+6831000D02*
X+4875750Y+6831000D01*
X+4875750Y+6818300D01*
X+4942425Y+6754800D01*
D36*
X+5061200Y+6044100D02*
X+4961200Y+6044100D01*
X+5061200Y+6224100D02*
X+4961200Y+6224100D01*
D34*
X+5171220Y+6259500D02*
X+5171220Y+6335700D01*
X+5104545Y+6335700D01*
X+5091210Y+6323000D01*
X+5091210Y+6310300D01*
X+5104545Y+6297600D01*
X+5171220Y+6297600D01*
X+5104545Y+6297600D02*
X+5091210Y+6284900D01*
X+5091210Y+6259500D01*
X+5051205Y+6323000D02*
X+5037870Y+6335700D01*
X+4997865Y+6335700D01*
X+4984530Y+6323000D01*
X+4984530Y+6310300D01*
X+4997865Y+6297600D01*
X+5037870Y+6297600D01*
X+5051205Y+6284900D01*
X+5051205Y+6259500D01*
X+4984530Y+6259500D01*
X+4877850Y+6310300D02*
X+4891185Y+6297600D01*
X+4931190Y+6297600D01*
X+4944525Y+6310300D01*
X+4944525Y+6323000D01*
X+4931190Y+6335700D01*
X+4891185Y+6335700D01*
X+4877850Y+6323000D01*
X+4877850Y+6272200D01*
X+4891185Y+6259500D01*
X+4931190Y+6259500D01*
D38*
X+1162200Y+5956300D02*
X+1162069Y+5959458D01*
X+1161003Y+5965776D01*
X+1158772Y+5972094D01*
X+1155127Y+5978412D01*
X+1149552Y+5984651D01*
X+1143234Y+5989247D01*
X+1136916Y+5992180D01*
X+1130598Y+5993842D01*
X+1124280Y+5994400D01*
X+1124100Y+5994400D01*
X+1086000Y+5956300D02*
X+1086131Y+5959458D01*
X+1087197Y+5965776D01*
X+1089428Y+5972094D01*
X+1093073Y+5978412D01*
X+1098648Y+5984651D01*
X+1104966Y+5989247D01*
X+1111284Y+5992180D01*
X+1117602Y+5993842D01*
X+1123920Y+5994400D01*
X+1124100Y+5994400D01*
X+1086000Y+5956300D02*
X+1086131Y+5953142D01*
X+1087197Y+5946824D01*
X+1089428Y+5940506D01*
X+1093073Y+5934188D01*
X+1098648Y+5927949D01*
X+1104966Y+5923353D01*
X+1111284Y+5920420D01*
X+1117602Y+5918758D01*
X+1123920Y+5918200D01*
X+1124100Y+5918200D01*
X+1162200Y+5956300D02*
X+1162069Y+5953142D01*
X+1161003Y+5946824D01*
X+1158772Y+5940506D01*
X+1155127Y+5934188D01*
X+1149552Y+5927949D01*
X+1143234Y+5923353D01*
X+1136916Y+5920420D01*
X+1130598Y+5918758D01*
X+1124280Y+5918200D01*
X+1124100Y+5918200D01*
X+1174900Y+3289300D02*
X+1174769Y+3292458D01*
X+1173703Y+3298776D01*
X+1171472Y+3305094D01*
X+1167827Y+3311412D01*
X+1162252Y+3317651D01*
X+1155934Y+3322247D01*
X+1149616Y+3325180D01*
X+1143298Y+3326842D01*
X+1136980Y+3327400D01*
X+1136800Y+3327400D01*
X+1098700Y+3289300D02*
X+1098831Y+3292458D01*
X+1099897Y+3298776D01*
X+1102128Y+3305094D01*
X+1105773Y+3311412D01*
X+1111348Y+3317651D01*
X+1117666Y+3322247D01*
X+1123984Y+3325180D01*
X+1130302Y+3326842D01*
X+1136620Y+3327400D01*
X+1136800Y+3327400D01*
X+1098700Y+3289300D02*
X+1098831Y+3286142D01*
X+1099897Y+3279824D01*
X+1102128Y+3273506D01*
X+1105773Y+3267188D01*
X+1111348Y+3260949D01*
X+1117666Y+3256353D01*
X+1123984Y+3253420D01*
X+1130302Y+3251758D01*
X+1136620Y+3251200D01*
X+1136800Y+3251200D01*
X+1174900Y+3289300D02*
X+1174769Y+3286142D01*
X+1173703Y+3279824D01*
X+1171472Y+3273506D01*
X+1167827Y+3267188D01*
X+1162252Y+3260949D01*
X+1155934Y+3256353D01*
X+1149616Y+3253420D01*
X+1143298Y+3251758D01*
X+1136980Y+3251200D01*
X+1136800Y+3251200D01*
D41*
X+10743460Y+7655400D02*
X+10743410Y+7656605D01*
X+10743002Y+7659017D01*
X+10742147Y+7661429D01*
X+10740750Y+7663841D01*
X+10738613Y+7666220D01*
X+10736201Y+7667963D01*
X+10733789Y+7669072D01*
X+10731377Y+7669697D01*
X+10728965Y+7669900D01*
X+10728960Y+7669900D01*
X+10714460Y+7655400D02*
X+10714510Y+7656605D01*
X+10714918Y+7659017D01*
X+10715773Y+7661429D01*
X+10717170Y+7663841D01*
X+10719307Y+7666220D01*
X+10721719Y+7667963D01*
X+10724131Y+7669072D01*
X+10726543Y+7669697D01*
X+10728955Y+7669900D01*
X+10728960Y+7669900D01*
X+10714460Y+7655400D02*
X+10714510Y+7654195D01*
X+10714918Y+7651783D01*
X+10715773Y+7649371D01*
X+10717170Y+7646959D01*
X+10719307Y+7644580D01*
X+10721719Y+7642837D01*
X+10724131Y+7641728D01*
X+10726543Y+7641103D01*
X+10728955Y+7640900D01*
X+10728960Y+7640900D01*
X+10743460Y+7655400D02*
X+10743410Y+7654195D01*
X+10743002Y+7651783D01*
X+10742147Y+7649371D01*
X+10740750Y+7646959D01*
X+10738613Y+7644580D01*
X+10736201Y+7642837D01*
X+10733789Y+7641728D01*
X+10731377Y+7641103D01*
X+10728965Y+7640900D01*
X+10728960Y+7640900D01*
D34*
X+10853420Y+7942580D02*
X+10916920Y+7942580D01*
X+10929620Y+7929245D01*
X+10929620Y+7875905D01*
X+10916920Y+7862570D01*
X+10853420Y+7862570D01*
X+10891520Y+7809230D02*
X+10878820Y+7822565D01*
X+10866120Y+7822565D01*
X+10853420Y+7809230D01*
X+10853420Y+7769225D01*
X+10866120Y+7755890D01*
X+10878820Y+7755890D01*
X+10891520Y+7769225D01*
X+10891520Y+7809230D01*
X+10904220Y+7822565D01*
X+10916920Y+7822565D01*
X+10929620Y+7809230D01*
X+10929620Y+7769225D01*
X+10916920Y+7755890D01*
X+10904220Y+7755890D01*
X+10891520Y+7769225D01*
D36*
X+11605000Y+8190000D02*
X+11705000Y+8190000D01*
X+11605000Y+8010000D02*
X+11705000Y+8010000D01*
D34*
X+11815020Y+7898400D02*
X+11815020Y+7974600D01*
X+11748345Y+7974600D01*
X+11735010Y+7961900D01*
X+11735010Y+7949200D01*
X+11748345Y+7936500D01*
X+11815020Y+7936500D01*
X+11748345Y+7936500D02*
X+11735010Y+7923800D01*
X+11735010Y+7898400D01*
X+11681670Y+7949200D02*
X+11655000Y+7974600D01*
X+11655000Y+7898400D01*
X+11601660Y+7911100D02*
X+11601660Y+7961900D01*
X+11588325Y+7974600D01*
X+11534985Y+7974600D01*
X+11521650Y+7961900D01*
X+11521650Y+7911100D01*
X+11534985Y+7898400D01*
X+11588325Y+7898400D01*
X+11601660Y+7911100D01*
X+11601660Y+7898400D02*
X+11521650Y+7974600D01*
D36*
X+11810000Y+7555000D02*
X+11810000Y+7655000D01*
X+11990000Y+7555000D02*
X+11990000Y+7655000D01*
D34*
X+12101600Y+7765020D02*
X+12025400Y+7765020D01*
X+12025400Y+7698345D01*
X+12038100Y+7685010D01*
X+12050800Y+7685010D01*
X+12063500Y+7698345D01*
X+12063500Y+7765020D01*
X+12063500Y+7698345D02*
X+12076200Y+7685010D01*
X+12101600Y+7685010D01*
X+12038100Y+7645005D02*
X+12025400Y+7631670D01*
X+12025400Y+7591665D01*
X+12038100Y+7578330D01*
X+12050800Y+7578330D01*
X+12063500Y+7591665D01*
X+12076200Y+7578330D01*
X+12088900Y+7578330D01*
X+12101600Y+7591665D01*
X+12101600Y+7631670D01*
X+12088900Y+7645005D01*
X+12063500Y+7618335D02*
X+12063500Y+7591665D01*
X+12038100Y+7538325D02*
X+12025400Y+7524990D01*
X+12025400Y+7484985D01*
X+12038100Y+7471650D01*
X+12050800Y+7471650D01*
X+12063500Y+7484985D01*
X+12076200Y+7471650D01*
X+12088900Y+7471650D01*
X+12101600Y+7484985D01*
X+12101600Y+7524990D01*
X+12088900Y+7538325D01*
X+12063500Y+7511655D02*
X+12063500Y+7484985D01*
M02*
